<?xml version="1.0" encoding="UTF-8" ?>
<!DOCTYPE svg PUBLIC "-//W3C//DTD SVG 1.1//EN" "http://www.w3.org/Graphics/SVG/1.1/DTD/svg11.dtd">
<svg width="1041pt" height="781pt" viewBox="0 0 1041 781" version="1.1" xmlns="http://www.w3.org/2000/svg">
<g id="#101010ff">
</g>
<g id="#c0944dff">
<path fill="#c0944d" opacity="1.00" d=" M 392.86 27.56 C 394.30 23.80 398.94 25.31 402.01 25.62 C 406.61 27.38 410.56 30.45 414.23 33.68 C 417.14 36.32 421.14 37.76 423.20 41.28 C 423.67 41.32 424.62 41.39 425.09 41.42 C 428.49 44.44 432.13 47.18 435.43 50.32 C 437.90 52.86 441.73 53.37 444.09 56.04 C 446.33 58.39 448.71 60.65 451.60 62.19 C 457.10 65.33 461.58 69.95 467.08 73.09 C 471.06 75.48 474.91 78.32 477.56 82.19 C 479.53 85.47 480.08 89.32 481.00 92.97 C 482.28 96.93 479.71 100.92 480.91 104.91 C 482.14 108.57 480.00 112.26 481.02 115.95 C 479.70 130.60 480.97 145.35 480.35 160.04 C 480.13 162.35 479.12 164.48 478.40 166.66 C 477.07 166.62 475.74 166.58 474.43 166.54 C 474.45 165.18 474.48 163.83 474.52 162.48 C 473.85 162.12 472.51 161.41 471.84 161.05 C 472.63 160.40 473.43 159.75 474.25 159.11 C 472.12 156.04 472.61 152.36 473.65 149.00 C 473.81 147.41 475.16 145.72 473.92 144.27 C 473.79 143.76 473.52 142.74 473.38 142.23 C 473.31 140.91 473.50 139.64 473.66 138.34 C 472.81 136.83 472.17 135.23 471.85 133.52 C 472.85 133.33 473.86 133.15 474.88 132.97 C 473.67 132.35 470.97 132.25 471.88 130.18 C 472.54 126.48 472.65 122.69 472.12 118.97 C 471.34 114.37 472.03 109.65 470.98 105.09 C 470.02 100.42 471.14 95.58 470.00 90.94 C 469.58 88.78 469.30 86.59 469.24 84.39 C 468.73 84.44 467.71 84.52 467.19 84.56 C 463.40 80.49 458.91 77.12 454.96 73.21 C 446.47 68.63 439.44 61.97 431.73 56.27 C 426.38 52.41 421.84 47.49 416.07 44.22 C 410.65 41.65 407.49 36.14 402.11 33.46 C 400.66 33.45 399.22 33.43 397.78 33.39 C 400.08 39.01 403.36 44.66 402.51 50.97 C 401.38 61.34 403.39 71.67 406.52 81.53 C 407.05 81.57 408.12 81.64 408.66 81.68 C 406.33 84.68 408.98 88.08 409.88 91.12 C 411.20 93.63 412.50 96.24 412.66 99.14 C 413.18 100.00 413.72 100.85 414.28 101.70 C 414.53 103.34 414.73 105.06 415.73 106.46 C 419.90 112.99 422.93 120.18 427.30 126.59 C 430.26 130.65 432.40 135.32 436.11 138.80 C 440.51 146.20 446.35 152.57 452.07 158.95 C 455.89 163.72 459.37 170.07 466.10 170.90 C 467.97 173.42 469.66 176.08 471.33 178.75 C 471.68 180.97 472.52 183.24 471.80 185.49 C 472.32 186.16 472.85 186.83 473.39 187.50 C 473.42 188.67 473.46 189.83 473.51 191.00 C 474.42 193.37 475.56 195.66 477.15 197.66 C 478.14 204.00 483.00 208.80 485.93 214.31 C 485.55 214.49 484.80 214.85 484.42 215.03 C 486.13 217.23 487.75 219.52 489.43 221.75 C 489.41 222.63 489.41 223.51 489.43 224.40 C 490.00 225.13 490.58 225.86 491.17 226.60 C 492.05 229.77 493.20 232.87 493.67 236.15 C 494.20 237.06 494.79 237.94 495.44 238.79 C 495.47 239.83 495.50 240.89 495.51 241.94 C 497.08 247.08 499.17 252.25 498.40 257.74 C 499.21 257.62 500.03 257.49 500.85 257.37 C 498.79 259.66 499.41 262.75 500.18 265.45 C 500.56 265.65 501.30 266.07 501.68 266.28 C 500.97 266.66 499.56 267.41 498.85 267.78 C 499.80 268.90 500.78 270.03 501.76 271.14 C 500.94 271.67 500.14 272.21 499.34 272.74 C 499.37 273.46 499.43 274.89 499.46 275.61 C 496.71 277.78 494.04 280.36 490.58 281.32 C 486.14 281.95 481.68 282.42 477.20 282.73 C 466.87 284.97 456.05 282.00 445.74 284.51 C 443.89 286.15 442.22 288.01 440.80 290.05 C 439.60 289.21 438.44 288.33 437.35 287.37 C 437.49 285.41 437.50 283.44 437.53 281.47 C 440.44 279.68 443.34 277.72 446.63 276.67 C 449.73 276.21 452.89 276.56 456.00 276.16 C 463.97 275.01 472.04 275.85 480.05 275.53 C 483.99 275.31 487.86 273.65 490.52 270.68 C 492.17 264.48 489.91 258.25 489.27 252.07 C 487.79 247.08 486.77 241.97 484.85 237.12 C 484.73 232.58 482.71 228.45 482.21 223.98 C 481.40 220.45 479.83 217.14 479.06 213.60 C 476.95 212.73 474.82 211.89 472.68 211.08 C 472.94 210.68 473.44 209.88 473.70 209.48 C 472.90 209.52 471.31 209.59 470.52 209.62 C 470.45 208.96 470.32 207.62 470.26 206.96 C 469.10 206.45 467.95 205.94 466.80 205.43 C 465.93 201.66 464.23 198.01 464.48 194.07 C 464.61 189.99 464.63 185.88 463.45 181.94 C 461.08 176.85 455.78 174.54 451.94 170.80 C 451.00 170.60 450.08 170.41 449.16 170.22 C 445.25 166.30 440.58 163.21 437.33 158.65 C 432.13 154.37 428.88 148.46 425.14 142.98 C 417.93 133.72 412.47 123.19 408.84 112.05 C 407.44 108.97 406.00 105.89 405.25 102.58 C 404.70 102.14 403.59 101.28 403.04 100.84 C 403.71 100.55 405.04 99.96 405.71 99.66 C 405.28 99.60 404.41 99.48 403.98 99.42 C 403.23 98.16 402.49 96.91 401.74 95.66 C 400.65 105.95 406.71 116.03 403.45 126.17 C 401.57 129.40 399.59 132.57 397.27 135.50 C 396.00 135.53 394.73 135.57 393.46 135.61 C 393.66 118.75 393.51 101.88 393.56 85.01 C 393.96 79.22 393.74 73.41 393.37 67.62 C 391.86 66.81 390.53 68.42 389.14 68.80 C 388.29 71.45 386.23 72.89 383.48 72.96 C 383.54 69.48 383.57 66.00 383.67 62.51 C 380.83 61.80 377.91 61.48 374.99 61.54 C 376.58 60.29 378.08 58.93 379.55 57.54 C 380.23 57.57 381.59 57.62 382.28 57.65 C 384.27 55.76 386.32 53.92 388.47 52.19 C 388.42 51.56 388.33 50.30 388.28 49.66 C 388.93 49.51 390.23 49.20 390.87 49.05 C 390.51 48.60 389.78 47.69 389.41 47.23 C 389.48 44.72 389.62 42.16 390.53 39.79 C 390.37 38.17 390.09 36.58 389.81 34.99 C 390.39 31.94 390.97 28.88 392.00 25.94 C 392.22 26.34 392.65 27.16 392.86 27.56 Z" />
<path fill="#c0944d" opacity="1.00" d=" M 429.31 59.69 C 438.42 64.07 443.65 73.16 449.45 80.97 C 450.18 81.78 450.99 82.51 451.86 83.18 C 451.44 83.56 450.61 84.32 450.19 84.70 C 450.74 84.57 451.84 84.33 452.39 84.21 C 452.20 84.81 451.84 86.00 451.65 86.60 C 452.06 86.86 452.89 87.38 453.30 87.64 C 455.59 90.51 458.58 93.28 458.67 97.23 C 459.19 98.01 459.71 98.79 460.23 99.58 C 460.40 102.01 461.39 104.22 462.64 106.28 C 462.42 106.57 461.97 107.16 461.75 107.45 C 463.10 109.18 464.92 110.88 464.30 113.29 C 465.89 118.91 467.17 124.61 468.56 130.28 C 468.49 130.59 468.35 131.23 468.28 131.55 C 468.55 133.45 468.66 135.37 468.81 137.29 C 469.30 137.66 470.29 138.39 470.78 138.76 C 470.69 141.23 470.40 143.72 467.52 144.05 C 466.22 139.26 465.18 134.41 464.26 129.54 C 463.79 129.22 462.84 128.60 462.37 128.28 C 462.33 127.08 462.29 125.89 462.26 124.69 C 458.92 121.54 457.79 117.01 455.66 113.10 C 455.62 112.54 455.55 111.41 455.51 110.85 C 453.64 108.30 452.13 105.44 452.19 102.19 C 450.07 99.93 447.98 97.31 448.35 94.02 C 448.02 93.78 447.34 93.31 447.01 93.08 C 446.29 91.10 445.25 89.26 443.72 87.80 C 443.61 87.10 443.50 86.40 443.40 85.70 C 438.11 78.65 435.74 69.68 429.56 63.22 C 429.48 62.04 429.39 60.87 429.31 59.69 Z" />
<path fill="#c0944d" opacity="1.00" d=" M 418.93 161.56 C 420.66 161.60 422.40 161.56 424.12 161.84 C 424.36 163.20 424.49 164.58 424.60 165.96 C 419.55 167.90 415.54 171.76 410.49 173.69 C 404.00 176.13 400.06 182.13 394.94 186.43 C 394.20 187.94 393.49 189.46 392.78 190.98 C 392.52 193.13 391.64 195.14 390.55 196.99 C 390.36 202.07 390.54 207.14 390.48 212.22 C 391.15 213.05 391.83 213.89 392.51 214.72 C 392.48 216.21 392.46 217.70 392.43 219.19 C 392.86 219.59 393.71 220.37 394.13 220.76 C 394.69 223.10 395.61 225.32 396.68 227.47 C 398.22 227.64 399.77 227.80 401.31 228.02 C 400.69 228.15 399.44 228.41 398.82 228.55 C 398.99 229.21 399.34 230.54 399.51 231.20 C 401.87 235.17 404.66 238.84 407.50 242.48 C 409.47 242.49 411.46 242.48 413.45 242.47 C 418.53 238.41 422.20 232.92 427.26 228.85 C 427.38 228.28 427.61 227.12 427.72 226.54 C 429.32 226.49 430.93 226.44 432.54 226.39 C 432.48 227.31 432.42 228.23 432.37 229.16 C 430.62 231.21 429.63 233.74 429.28 236.39 C 425.41 241.27 420.39 245.04 415.29 248.52 C 411.08 248.58 406.87 248.62 402.66 248.56 C 401.58 249.38 400.49 250.20 399.40 251.01 C 399.83 251.12 400.69 251.33 401.12 251.44 C 400.50 252.92 399.94 254.43 399.38 255.92 C 396.25 262.11 390.75 268.86 383.03 268.03 C 377.67 267.06 370.83 269.41 366.82 264.65 C 364.60 264.53 362.36 264.57 360.14 264.68 C 358.81 267.00 356.47 268.23 353.98 268.96 C 354.69 270.17 354.66 271.39 353.54 272.36 C 354.03 272.79 354.99 273.64 355.47 274.06 C 354.98 274.52 354.01 275.45 353.52 275.91 C 354.98 278.13 356.48 280.36 358.49 282.14 C 358.53 282.75 358.60 283.97 358.63 284.57 C 363.67 287.75 368.01 291.83 372.32 295.92 C 372.82 297.12 373.33 298.33 373.81 299.55 C 374.39 299.54 375.54 299.50 376.11 299.48 C 378.26 301.46 380.24 303.69 382.78 305.20 C 387.64 306.42 392.99 304.24 397.58 306.81 C 395.90 308.46 393.85 309.56 391.54 309.99 C 391.57 310.72 391.61 311.45 391.66 312.20 C 389.17 313.22 386.75 314.37 384.35 315.57 C 384.06 321.81 386.80 327.55 388.81 333.30 C 388.46 333.50 387.75 333.89 387.40 334.09 C 388.45 334.93 389.50 335.78 390.57 336.63 C 390.65 340.00 390.51 343.46 388.29 346.21 C 388.62 346.57 389.26 347.28 389.59 347.64 C 385.95 350.77 383.20 354.84 379.18 357.54 C 376.60 364.15 370.59 368.78 368.23 375.45 C 366.21 378.71 364.31 382.05 362.36 385.35 C 361.48 386.89 359.45 386.91 358.02 387.65 C 358.80 387.55 360.36 387.36 361.14 387.27 C 359.22 390.77 357.99 394.63 355.89 398.03 C 355.29 398.26 354.08 398.71 353.48 398.94 C 354.06 399.67 354.62 400.43 355.16 401.20 C 354.50 401.47 353.18 402.01 352.52 402.28 C 352.88 402.69 353.60 403.52 353.96 403.93 C 352.87 405.15 351.79 406.39 350.70 407.61 C 350.67 408.40 350.60 409.97 350.56 410.76 C 350.15 410.67 349.32 410.50 348.91 410.41 C 348.60 411.65 348.37 412.91 348.17 414.18 C 348.38 414.63 348.80 415.54 349.01 415.99 C 348.19 416.83 347.39 417.68 346.60 418.54 C 346.59 419.24 346.58 420.63 346.57 421.32 C 346.05 421.49 345.01 421.83 344.49 422.00 C 344.86 422.53 345.59 423.57 345.96 424.09 C 345.42 424.48 344.33 425.27 343.78 425.66 C 343.10 428.45 342.14 431.16 340.87 433.75 C 340.75 434.31 340.51 435.45 340.39 436.02 C 338.34 438.81 336.82 441.96 336.16 445.37 C 335.03 446.82 333.89 448.27 332.80 449.75 C 331.51 454.32 327.61 457.45 325.36 461.53 C 321.55 466.09 318.37 471.34 313.38 474.75 C 310.70 476.89 308.76 479.79 306.14 482.01 C 301.09 486.05 296.81 491.00 291.30 494.48 C 289.65 494.49 288.01 494.52 286.37 494.54 C 286.46 493.73 286.56 492.93 286.66 492.13 C 290.00 489.28 292.22 485.38 295.65 482.63 C 298.82 480.17 301.13 476.82 304.23 474.29 C 308.53 470.84 311.53 466.13 315.54 462.39 C 315.54 461.75 315.54 460.47 315.54 459.83 C 317.89 456.99 320.34 454.22 322.98 451.65 C 323.45 449.70 323.98 447.78 324.58 445.87 C 326.22 444.04 327.69 442.08 328.98 440.00 C 329.54 436.32 332.85 433.69 332.71 429.81 C 333.17 429.48 334.10 428.84 334.57 428.52 C 334.52 427.84 334.43 426.50 334.38 425.82 C 334.86 425.54 335.82 424.97 336.30 424.69 C 336.32 423.22 336.34 421.75 336.37 420.30 C 336.83 420.32 337.75 420.36 338.21 420.38 C 338.33 414.96 341.23 410.19 342.65 405.07 C 343.24 405.22 344.40 405.50 344.98 405.64 C 344.34 405.27 343.07 404.52 342.43 404.15 C 343.37 403.32 344.32 402.49 345.26 401.67 C 345.34 400.43 345.41 399.19 345.48 397.96 C 346.18 396.63 346.89 395.29 347.59 393.96 C 347.58 393.37 347.55 392.20 347.54 391.61 C 350.70 389.16 351.36 385.22 352.88 381.79 C 355.99 377.78 357.61 372.83 360.99 369.01 C 362.75 366.94 363.95 364.48 365.39 362.19 C 369.34 356.19 375.97 352.77 380.36 347.18 C 381.89 341.59 381.96 335.70 381.00 330.01 C 380.71 328.79 380.77 327.59 381.20 326.41 C 379.98 325.12 378.84 323.76 377.61 322.49 C 378.06 318.44 375.34 315.20 374.20 311.52 C 372.12 308.27 370.07 305.01 368.12 301.68 C 368.51 301.49 369.27 301.10 369.66 300.91 C 366.88 300.50 365.42 298.10 363.99 295.98 C 362.43 295.06 360.86 294.17 359.31 293.26 C 359.37 292.49 359.47 290.94 359.52 290.16 C 358.25 290.39 356.98 290.61 355.74 290.93 C 355.84 291.95 355.99 292.97 356.13 294.00 C 355.62 296.25 355.60 298.57 355.99 300.85 C 355.15 304.60 355.95 308.55 354.74 312.24 C 354.76 317.37 352.85 322.19 352.31 327.24 C 351.92 330.04 351.12 332.77 350.15 335.42 C 351.19 335.78 352.22 336.18 353.25 336.61 C 352.52 336.49 351.06 336.26 350.32 336.15 C 350.32 337.23 350.32 338.33 350.32 339.43 C 347.95 341.10 347.89 343.84 349.90 345.84 C 349.30 345.63 348.09 345.22 347.49 345.01 C 347.42 345.56 347.28 346.67 347.21 347.22 C 345.24 349.85 343.85 352.85 342.74 355.93 C 341.91 360.17 339.19 363.61 337.36 367.43 C 330.41 384.97 319.90 400.81 308.86 416.00 C 306.34 419.04 303.11 421.48 301.09 424.92 C 299.47 427.72 297.16 430.00 294.49 431.79 C 294.51 432.33 294.54 433.40 294.55 433.93 C 290.41 437.07 287.20 441.23 283.07 444.39 C 283.68 442.05 284.67 439.83 286.00 437.83 C 286.24 437.40 286.73 436.54 286.97 436.11 C 289.26 433.66 291.30 431.00 293.33 428.34 C 293.36 427.70 293.41 426.42 293.44 425.78 C 294.28 425.23 295.12 424.70 295.96 424.16 C 297.23 420.86 299.67 418.25 301.91 415.60 C 304.32 408.39 309.41 402.43 312.72 395.63 C 314.12 392.68 315.71 389.81 317.38 387.01 C 317.44 386.48 317.58 385.42 317.64 384.90 C 320.59 381.78 322.00 377.71 323.52 373.80 C 323.55 373.22 323.60 372.06 323.63 371.48 C 324.64 370.43 325.64 369.37 326.65 368.32 C 326.64 367.64 326.62 366.29 326.61 365.62 C 328.50 362.54 330.08 359.27 331.23 355.85 C 333.07 350.48 335.88 345.38 336.50 339.66 C 332.63 339.17 328.85 340.60 324.97 340.44 C 319.56 340.36 314.00 340.93 308.75 339.28 C 302.94 337.42 297.02 335.83 290.94 335.23 C 290.60 334.87 289.94 334.16 289.61 333.80 C 278.58 332.67 269.70 324.94 258.86 323.16 C 258.04 322.60 257.22 322.04 256.42 321.48 C 255.78 321.47 254.50 321.45 253.86 321.43 C 251.34 319.57 248.42 318.31 245.31 317.88 C 237.70 316.78 230.74 312.83 223.00 312.44 C 220.08 312.36 217.24 311.68 214.36 311.30 C 213.68 310.77 213.00 310.25 212.32 309.74 C 204.30 308.88 196.46 306.34 188.34 306.46 C 187.51 305.38 186.68 304.30 185.86 303.22 C 188.32 302.73 190.82 302.52 193.33 302.52 C 193.67 302.30 194.36 301.86 194.71 301.65 C 196.76 302.57 198.93 302.67 201.02 301.78 C 209.88 304.60 219.34 304.63 228.40 306.56 C 228.73 306.30 229.39 305.79 229.72 305.53 C 235.09 307.59 240.71 308.89 246.37 309.91 C 246.50 309.56 246.77 308.87 246.90 308.52 C 248.78 311.28 252.22 312.51 255.23 310.77 C 256.38 311.69 257.53 312.60 258.70 313.52 C 262.77 313.21 266.35 315.34 270.22 316.15 C 276.39 316.81 281.85 320.13 288.03 320.84 C 290.13 323.23 293.18 323.74 296.22 323.71 C 297.65 324.56 299.08 325.40 300.51 326.25 C 307.26 327.41 314.00 328.97 320.86 329.15 C 323.80 328.71 326.77 328.61 329.71 328.22 C 333.18 327.18 336.22 325.15 339.21 323.17 C 340.50 320.05 341.94 316.99 343.42 313.96 C 343.74 312.66 344.08 311.36 344.41 310.07 C 344.08 309.02 343.92 307.94 344.11 306.85 C 344.52 304.88 344.92 302.91 345.43 300.96 C 345.69 290.68 345.49 280.40 345.63 270.12 C 346.41 267.42 347.10 264.70 347.74 261.97 C 349.96 259.97 352.33 258.14 354.81 256.48 C 362.40 255.69 369.66 258.04 376.82 260.18 C 381.69 260.67 386.53 259.29 390.82 257.07 C 393.86 252.90 396.64 248.54 398.52 243.71 C 398.11 243.25 397.29 242.34 396.89 241.89 C 397.39 241.58 398.41 240.96 398.92 240.65 C 398.31 240.65 397.10 240.67 396.50 240.67 C 396.03 239.03 395.55 237.39 395.12 235.74 C 394.24 235.25 393.37 234.76 392.50 234.27 C 392.51 233.67 392.53 232.47 392.54 231.87 C 391.22 229.58 389.67 227.45 387.96 225.45 C 385.49 229.95 383.73 235.15 379.28 238.17 C 376.57 240.87 373.46 243.16 370.96 246.09 C 369.57 246.74 368.18 247.40 366.78 248.01 C 364.79 248.92 362.89 250.01 361.06 251.18 C 354.75 252.39 349.03 255.49 342.93 257.37 C 339.68 258.28 336.28 258.49 333.01 259.30 C 326.18 260.32 319.70 262.83 312.99 264.30 C 306.74 264.18 301.12 267.16 295.09 268.31 C 290.57 269.24 286.40 272.33 281.63 271.40 C 280.54 268.66 283.90 268.15 285.64 267.20 C 289.25 265.63 291.74 262.16 295.60 261.10 C 301.76 259.40 307.83 257.34 314.09 255.99 C 317.60 253.82 321.89 253.89 325.71 252.55 C 328.49 251.55 331.44 251.42 334.36 251.30 C 339.07 248.64 344.71 249.25 349.69 247.45 C 360.21 242.81 371.47 238.01 378.27 228.24 C 379.99 225.26 381.34 222.05 383.46 219.32 C 383.56 216.37 383.56 213.41 383.35 210.47 C 380.36 217.73 376.45 224.63 370.97 230.34 C 370.42 230.42 369.31 230.57 368.75 230.65 C 361.82 235.99 353.16 237.81 344.95 240.17 C 341.41 240.86 338.14 242.56 334.52 242.84 C 333.37 243.65 332.23 244.46 331.09 245.26 C 328.44 245.61 326.07 246.85 324.02 248.51 C 322.06 248.20 320.14 247.77 318.19 247.46 C 318.27 247.02 318.42 246.13 318.50 245.68 C 321.91 243.33 325.89 242.18 329.69 240.67 C 333.55 238.54 337.69 236.99 341.61 234.97 C 344.30 233.67 347.11 232.64 350.07 232.15 C 352.03 231.25 354.06 230.51 356.23 230.36 C 359.84 228.58 363.29 226.47 366.61 224.19 C 369.98 221.92 370.60 217.36 373.96 215.07 C 375.96 211.91 376.61 208.21 377.44 204.63 C 378.07 204.43 379.33 204.05 379.97 203.86 C 379.26 203.72 377.86 203.45 377.16 203.31 C 377.90 202.34 378.66 201.38 379.43 200.42 C 378.89 196.16 382.08 192.98 383.39 189.20 C 384.13 187.16 385.55 185.52 387.01 183.96 C 389.98 180.90 391.49 176.55 395.24 174.25 C 399.20 171.65 402.60 168.33 406.57 165.76 C 410.85 164.90 415.07 163.62 418.93 161.56 Z" />
<path fill="#c0944d" opacity="1.00" d=" M 692.28 272.87 C 693.95 272.37 695.61 271.87 697.28 271.34 C 698.66 272.67 700.17 273.90 701.33 275.46 C 701.60 277.30 701.43 279.17 701.42 281.02 C 700.61 282.41 699.83 283.81 699.08 285.23 C 692.57 290.25 685.85 295.95 677.32 296.79 C 677.35 296.38 677.40 295.57 677.43 295.16 C 679.58 292.72 682.29 290.84 684.34 288.30 C 687.73 284.35 688.79 278.90 692.61 275.26 C 692.49 274.46 692.38 273.66 692.28 272.87 Z" />
<path fill="#c0944d" opacity="1.00" d=" M 771.98 301.77 C 773.67 301.51 775.38 301.26 777.07 300.94 C 781.38 301.75 785.85 301.07 790.11 302.24 C 790.72 302.34 791.92 302.54 792.53 302.65 C 793.21 303.24 793.90 303.84 794.60 304.44 C 804.05 306.18 813.70 304.77 823.19 305.83 C 828.60 307.93 835.63 307.85 838.91 313.43 C 839.41 313.49 840.42 313.62 840.93 313.69 C 843.29 314.65 846.35 315.30 848.34 313.19 C 851.19 310.57 854.44 308.38 858.11 307.07 C 859.53 306.16 861.01 307.42 862.39 307.79 C 858.40 311.51 853.97 314.74 850.10 318.60 C 850.52 320.59 851.04 322.56 851.70 324.49 C 850.98 324.84 849.55 325.54 848.84 325.89 C 848.51 325.27 847.85 324.04 847.52 323.42 C 846.46 323.45 845.41 323.47 844.37 323.51 C 842.83 325.57 841.28 327.63 839.66 329.63 C 839.63 330.22 839.56 331.40 839.52 331.99 C 837.21 334.82 833.69 337.18 833.36 341.12 C 831.93 343.67 830.47 346.21 829.34 348.91 C 827.41 352.25 824.96 355.38 824.12 359.23 C 820.42 362.79 818.99 367.86 815.84 371.82 C 813.15 375.54 811.40 379.94 807.93 383.07 C 803.87 387.97 799.05 392.13 794.51 396.55 C 791.15 399.12 787.15 400.69 783.75 403.21 C 786.11 403.83 788.54 404.65 791.02 404.02 C 795.02 403.29 799.19 404.00 803.14 402.85 C 806.83 402.70 810.51 402.24 814.10 401.33 C 815.99 400.58 817.83 399.69 819.77 399.02 C 829.43 393.94 839.23 387.67 844.56 377.77 C 845.92 375.31 847.45 371.57 850.95 372.45 C 850.32 375.06 849.38 377.77 846.94 379.20 C 844.24 382.74 842.13 386.86 838.38 389.44 C 835.12 391.81 832.56 394.98 829.36 397.39 C 822.11 401.60 813.92 403.69 806.03 406.29 C 800.49 407.95 794.68 407.31 788.99 407.39 C 779.30 407.42 769.62 407.30 759.93 407.53 C 754.87 407.55 749.73 407.83 744.82 406.42 C 743.88 405.06 742.75 403.78 742.24 402.20 C 745.82 398.51 751.39 399.27 756.03 399.63 C 760.28 400.56 764.63 400.66 768.98 400.64 C 770.27 401.26 771.49 402.18 772.96 402.39 C 777.70 401.80 782.23 399.99 786.16 397.27 C 787.64 395.40 789.29 393.68 790.96 391.98 C 793.50 387.11 797.90 383.54 800.17 378.50 C 800.59 376.43 801.79 374.67 803.01 372.99 C 804.87 370.36 805.81 367.24 807.44 364.49 C 810.12 359.90 813.34 355.63 815.90 350.97 C 817.20 348.52 818.88 346.30 820.71 344.22 C 821.06 344.25 821.76 344.31 822.11 344.34 C 822.20 342.16 823.79 340.75 825.34 339.45 C 825.37 338.86 825.45 337.67 825.48 337.08 C 827.18 335.08 828.91 333.11 830.67 331.17 C 831.23 331.24 832.35 331.38 832.91 331.46 C 832.40 331.16 831.38 330.56 830.87 330.26 C 834.21 326.72 837.08 322.75 840.64 319.40 C 840.60 318.50 840.57 317.60 840.56 316.71 C 837.86 315.02 835.15 313.36 832.47 311.65 C 826.93 310.75 821.64 308.39 815.98 308.48 C 812.39 308.34 808.82 308.81 805.33 309.56 C 805.36 310.73 805.41 311.89 805.50 313.06 C 809.53 319.19 811.09 326.79 810.24 334.04 C 808.75 341.51 806.40 348.95 802.28 355.42 C 799.76 359.43 795.72 362.08 792.57 365.53 C 789.37 369.23 784.54 370.63 780.13 372.30 C 772.28 374.91 762.82 374.15 756.38 368.60 C 753.66 365.69 751.51 362.22 749.92 358.58 C 749.35 353.55 750.34 348.49 750.81 343.49 C 754.26 336.07 758.27 328.61 764.92 323.55 C 768.58 320.89 771.40 317.10 775.58 315.18 C 777.81 314.09 780.05 313.00 782.18 311.70 C 783.25 311.59 784.33 311.49 785.43 311.39 C 785.78 310.97 786.48 310.14 786.83 309.72 C 789.01 309.23 791.19 308.66 793.38 308.18 C 793.40 307.34 793.41 306.51 793.43 305.68 C 784.24 303.93 774.58 303.80 765.57 306.58 C 762.10 308.19 759.60 311.30 756.13 312.95 C 751.12 315.32 748.43 320.40 744.65 324.18 C 744.58 324.76 744.46 325.92 744.39 326.50 C 742.55 328.39 740.85 330.40 739.25 332.49 C 739.36 333.26 739.48 334.04 739.61 334.82 C 738.93 334.76 737.59 334.65 736.92 334.59 C 738.42 331.35 740.38 328.21 740.82 324.59 C 746.63 317.41 753.07 310.46 761.03 305.64 C 764.80 304.75 768.41 303.28 771.98 301.77 M 774.03 328.07 C 770.80 332.46 766.54 336.21 764.50 341.37 C 763.71 343.20 762.71 344.92 761.70 346.63 C 761.65 348.96 760.94 351.17 759.63 353.10 C 759.31 357.21 759.53 361.35 760.56 365.36 C 761.98 367.02 763.40 368.68 764.82 370.35 C 767.71 369.27 770.67 370.35 773.63 370.40 C 776.15 370.15 778.62 369.44 781.13 369.03 C 782.79 368.58 784.41 367.93 785.67 366.70 C 788.98 363.71 793.26 361.73 795.79 357.93 C 797.37 355.65 799.07 353.43 801.19 351.61 C 801.62 350.81 802.04 350.00 802.50 349.21 C 802.51 348.61 802.54 347.41 802.56 346.81 C 803.15 346.03 803.74 345.24 804.33 344.44 C 804.51 341.54 806.08 339.08 807.10 336.45 C 806.19 333.25 807.13 330.11 807.57 326.94 C 807.13 325.26 806.78 323.57 806.47 321.88 C 804.81 318.15 802.80 314.59 800.18 311.46 C 799.41 311.49 797.88 311.55 797.12 311.59 C 788.68 315.91 780.01 320.46 774.03 328.07 Z" />
<path fill="#c0944d" opacity="1.00" d=" M 680.63 305.66 C 682.38 305.56 684.14 305.46 685.92 305.37 C 683.80 308.44 682.02 311.93 678.73 313.92 C 678.65 314.74 678.59 315.55 678.54 316.38 C 677.59 316.86 676.65 317.34 675.71 317.82 C 675.65 318.34 675.53 319.36 675.47 319.87 C 672.95 322.58 670.30 325.40 669.29 329.06 C 667.72 331.38 665.65 333.35 664.29 335.81 C 663.19 338.18 662.23 340.65 660.69 342.78 C 660.51 343.46 660.15 344.80 659.98 345.48 C 661.16 345.59 662.34 345.73 663.53 345.91 C 661.83 346.12 660.15 346.35 658.47 346.53 C 657.98 347.92 657.51 349.31 657.02 350.70 C 655.98 351.95 655.34 353.41 655.15 355.03 C 651.26 357.32 649.89 362.19 647.74 365.95 C 647.11 367.59 646.34 369.17 645.51 370.72 C 645.39 371.28 645.29 371.85 645.19 372.42 C 642.54 377.19 640.29 382.15 637.83 387.01 C 636.79 389.68 634.88 392.39 635.60 395.38 C 637.84 395.80 640.04 394.83 642.23 394.41 C 644.89 391.98 647.59 388.85 651.60 389.33 C 650.56 390.98 649.77 393.00 647.97 393.98 C 644.50 396.01 640.94 398.18 636.88 398.70 C 633.37 399.85 630.54 402.51 630.22 406.34 C 625.79 407.76 621.12 407.58 616.54 407.39 C 616.55 406.35 616.59 405.32 616.64 404.29 C 619.05 403.18 618.55 400.40 618.87 398.27 C 616.46 397.71 614.01 397.43 611.55 397.32 C 610.90 396.79 610.26 396.26 609.63 395.73 C 605.17 395.19 601.27 392.82 597.18 391.17 C 598.51 390.09 600.20 388.53 602.03 389.67 C 607.69 392.58 613.60 396.35 620.27 395.46 C 623.67 391.00 623.81 385.12 625.41 379.92 C 625.47 377.58 625.56 375.24 625.77 372.91 C 627.33 370.06 625.73 367.08 624.56 364.45 C 624.85 364.15 625.41 363.54 625.70 363.24 C 625.03 361.21 624.62 359.12 624.14 357.06 C 621.55 357.91 619.89 360.16 617.87 361.84 C 616.50 363.06 614.89 364.10 614.09 365.82 C 612.11 368.86 609.49 371.39 606.91 373.92 C 603.75 376.95 601.45 380.97 597.38 382.95 C 597.45 384.52 597.51 386.09 597.60 387.68 C 597.01 388.32 596.42 388.95 595.81 389.57 C 594.67 389.43 593.40 388.20 592.27 389.10 C 585.58 393.43 580.08 400.40 571.78 401.68 C 570.24 402.53 568.71 403.38 567.20 404.27 C 562.80 405.37 558.63 407.70 553.98 407.47 C 549.28 407.32 544.59 407.42 539.97 408.33 C 535.28 407.54 530.55 407.17 525.80 407.46 C 525.45 407.00 524.74 406.07 524.39 405.60 C 522.88 405.19 521.37 404.79 519.88 404.36 C 517.08 402.10 513.61 401.06 510.46 399.44 C 508.96 398.74 508.55 397.07 508.20 395.62 C 507.32 395.55 506.44 395.48 505.58 395.42 C 505.57 393.90 505.55 392.38 505.55 390.87 C 504.46 389.94 503.37 389.00 502.28 388.08 C 502.67 387.10 503.05 386.12 503.44 385.14 C 501.87 381.62 502.56 377.69 502.46 373.96 C 502.38 371.81 502.95 369.74 503.63 367.73 C 503.31 367.38 502.68 366.69 502.36 366.34 C 505.69 363.65 508.11 360.10 510.99 356.99 C 514.84 353.86 518.82 350.89 522.63 347.70 C 527.84 347.14 532.91 345.74 538.02 344.61 C 544.90 343.76 551.58 345.41 557.95 347.88 C 561.47 351.46 566.06 354.05 568.29 358.79 C 568.49 360.97 569.01 363.11 569.68 365.20 C 569.43 365.51 568.94 366.15 568.69 366.47 C 570.03 369.00 569.48 371.74 566.77 372.95 C 567.14 374.16 568.05 375.72 566.87 376.83 C 563.42 381.70 558.83 385.59 554.23 389.33 C 546.66 389.89 538.76 393.59 531.46 389.73 C 535.26 388.90 539.16 389.23 543.01 389.43 C 550.35 388.06 557.48 384.37 562.35 378.63 C 562.88 375.87 564.08 373.33 565.19 370.78 C 566.39 367.29 564.43 363.86 563.34 360.63 C 560.87 357.99 558.69 354.43 554.89 353.65 C 551.34 352.82 547.76 351.98 544.13 351.75 C 539.70 352.17 535.35 353.16 530.95 353.73 C 528.99 354.81 526.87 355.58 524.61 355.59 C 523.03 356.82 521.48 358.07 519.95 359.36 C 519.00 359.47 518.05 359.58 517.11 359.70 C 516.31 360.35 515.50 361.00 514.69 361.64 C 514.69 361.98 514.69 362.66 514.69 363.00 C 513.27 363.93 511.89 364.90 510.48 365.82 C 513.08 367.38 509.88 368.63 508.78 369.91 C 505.63 375.48 506.54 381.95 506.54 388.05 C 508.99 393.76 513.51 398.02 518.72 401.24 C 523.35 402.12 527.29 405.15 532.14 405.30 C 534.50 405.42 536.90 405.65 539.16 406.44 C 543.15 406.78 547.07 405.94 550.98 405.26 C 554.47 404.41 558.00 403.66 561.59 403.32 C 562.25 402.72 562.92 402.12 563.59 401.52 C 564.73 401.53 565.87 401.53 567.02 401.51 C 568.63 400.53 570.26 399.57 571.88 398.58 C 572.52 398.56 573.79 398.51 574.43 398.48 C 579.10 393.58 585.81 391.40 590.47 386.55 C 586.75 382.26 581.62 379.26 578.95 374.08 C 574.54 366.87 571.51 358.41 572.68 349.84 C 573.24 348.17 573.50 346.42 573.66 344.67 C 577.62 339.82 581.56 333.87 588.18 332.64 C 593.77 331.91 599.44 332.29 605.05 332.70 C 609.15 335.26 614.35 336.50 617.03 340.88 C 618.48 342.01 619.94 343.15 621.39 344.31 C 621.44 345.97 621.48 347.65 621.67 349.32 C 623.64 349.82 625.90 350.14 627.05 348.05 C 629.75 343.98 634.61 342.07 637.08 337.83 C 637.37 337.74 637.96 337.56 638.25 337.47 C 638.63 334.22 642.27 333.45 644.68 332.14 C 644.66 331.81 644.61 331.15 644.58 330.81 C 649.97 326.72 655.45 322.62 659.98 317.55 C 661.01 317.50 662.05 317.45 663.09 317.41 C 662.42 319.73 660.85 321.68 658.49 322.42 C 653.81 324.04 650.93 328.26 647.81 331.83 C 644.97 333.95 642.35 336.35 639.99 339.00 C 636.03 343.76 630.92 347.46 627.41 352.64 C 627.48 357.19 627.51 361.75 627.38 366.30 C 627.62 366.57 628.11 367.11 628.35 367.38 C 627.11 369.70 627.33 372.38 627.40 374.92 C 631.50 375.06 633.59 371.26 634.87 367.93 C 636.03 364.66 638.17 361.89 640.54 359.41 C 640.56 358.84 640.60 357.68 640.62 357.10 C 646.96 350.73 649.79 341.54 657.29 336.16 C 657.31 335.60 657.36 334.47 657.39 333.91 C 659.21 331.87 661.06 329.86 662.90 327.83 C 663.47 326.51 663.95 325.10 665.02 324.08 C 668.14 320.89 670.97 317.42 674.29 314.43 C 672.80 314.45 671.31 314.49 669.84 314.51 C 668.30 315.45 666.77 316.40 665.25 317.36 C 664.76 317.43 663.76 317.56 663.27 317.63 C 663.37 317.23 663.58 316.44 663.68 316.05 C 669.20 312.36 674.90 309.02 680.63 305.66 M 584.11 344.21 C 582.26 347.27 581.65 351.04 578.97 353.61 C 579.30 353.94 579.95 354.60 580.28 354.93 C 579.97 355.38 579.37 356.28 579.07 356.73 C 579.21 358.09 579.25 359.46 579.28 360.83 C 579.53 364.19 580.85 367.30 581.88 370.47 C 584.65 374.85 587.80 379.02 591.58 382.60 C 592.53 382.58 593.48 382.57 594.44 382.58 C 600.85 375.96 607.49 369.57 613.65 362.72 C 616.34 360.29 619.12 357.95 621.45 355.15 C 621.48 354.30 621.53 352.61 621.56 351.76 C 617.19 344.81 610.89 338.35 602.47 336.89 C 595.42 335.09 589.06 339.82 584.11 344.21 Z" />
<path fill="#c0944d" opacity="1.00" d=" M 455.37 308.37 C 456.47 308.37 458.67 308.36 459.77 308.36 C 460.73 311.45 461.17 314.75 460.33 317.93 C 460.46 319.39 460.57 320.86 460.67 322.34 C 454.96 326.61 449.72 331.98 447.57 338.95 C 447.09 340.74 447.53 342.54 448.21 344.21 C 447.69 345.25 447.25 346.31 446.87 347.41 C 447.73 347.60 449.46 347.98 450.32 348.16 C 449.49 348.22 447.84 348.34 447.01 348.40 C 447.28 350.74 448.02 352.98 449.29 354.98 C 449.29 355.78 449.29 356.57 449.29 357.38 C 450.65 358.50 452.08 359.57 453.43 360.73 C 452.61 360.23 450.98 359.21 450.17 358.71 C 450.26 360.58 450.34 362.56 452.59 363.03 C 452.20 363.15 451.43 363.40 451.04 363.53 C 451.34 368.60 453.49 373.25 455.03 378.02 C 455.98 379.90 456.99 381.74 457.85 383.67 C 458.15 384.85 458.40 386.04 458.62 387.25 C 459.01 387.44 459.79 387.83 460.19 388.02 C 460.20 391.13 462.17 393.58 464.10 395.82 C 465.66 401.53 467.48 407.17 468.71 412.96 C 469.14 415.26 470.13 417.39 471.34 419.39 C 471.39 421.54 471.42 423.69 471.42 425.85 C 472.00 425.67 473.17 425.31 473.76 425.13 C 471.83 426.68 472.31 429.15 472.78 431.26 C 472.32 433.02 472.54 434.80 473.42 436.39 C 473.15 436.72 472.61 437.36 472.33 437.69 C 473.01 440.63 473.58 443.59 474.33 446.53 C 474.10 446.81 473.63 447.38 473.39 447.67 C 473.40 452.13 473.93 456.72 472.61 461.07 C 474.19 465.26 472.05 469.65 471.65 473.91 C 471.55 474.75 471.35 476.44 471.25 477.29 C 471.49 477.56 471.98 478.11 472.22 478.39 C 470.61 481.73 472.43 485.26 472.54 488.72 C 472.83 488.98 473.41 489.52 473.70 489.79 C 473.25 490.05 472.34 490.59 471.89 490.85 C 472.72 491.82 473.55 492.80 474.39 493.78 C 473.81 498.21 475.65 502.31 476.66 506.53 C 477.30 506.62 478.58 506.80 479.22 506.89 C 478.17 507.39 477.12 507.91 476.09 508.44 C 477.44 513.78 477.92 519.28 479.16 524.64 C 478.96 524.89 478.57 525.41 478.37 525.66 C 478.36 526.57 478.35 528.38 478.35 529.29 C 478.58 529.57 479.05 530.14 479.28 530.43 C 477.94 534.57 477.95 539.20 479.41 543.32 C 479.10 543.69 478.47 544.44 478.16 544.82 C 478.34 546.79 478.76 548.73 479.27 550.65 C 478.97 550.94 478.35 551.52 478.05 551.81 C 478.49 553.29 478.96 554.77 479.45 556.25 C 479.18 556.64 478.64 557.42 478.37 557.81 C 478.46 562.01 478.45 566.21 478.31 570.42 C 478.63 570.54 479.27 570.78 479.58 570.89 C 478.06 572.79 477.31 575.10 477.01 577.50 C 477.73 577.57 479.18 577.70 479.90 577.77 C 478.54 578.94 476.24 579.71 476.56 581.91 C 476.04 590.64 472.93 598.97 472.19 607.66 C 470.70 611.50 470.05 615.60 470.49 619.71 C 470.03 619.51 469.12 619.12 468.66 618.92 C 467.99 623.40 467.23 627.88 466.11 632.28 C 464.18 635.32 463.12 638.80 463.37 642.43 C 462.39 642.50 461.41 642.59 460.44 642.70 C 461.01 643.06 462.15 643.80 462.72 644.16 C 461.91 644.54 460.31 645.30 459.50 645.69 C 460.37 646.62 461.24 647.56 462.12 648.51 C 461.23 648.48 459.46 648.42 458.57 648.38 C 458.62 651.82 457.28 655.02 455.62 657.96 C 455.43 658.58 455.05 659.83 454.86 660.46 C 455.75 660.59 457.54 660.86 458.43 660.99 C 456.74 661.26 455.02 661.32 453.32 661.52 C 453.36 663.62 453.38 665.74 453.39 667.86 C 450.89 668.57 449.60 670.83 448.33 672.88 C 448.34 673.43 448.35 674.51 448.36 675.05 C 447.60 675.59 446.07 676.66 445.30 677.19 C 445.92 677.35 447.17 677.65 447.79 677.81 C 445.77 679.08 443.96 680.65 442.28 682.35 C 442.34 683.14 442.42 683.94 442.49 684.75 C 437.60 690.14 435.21 697.12 430.82 702.86 C 429.55 706.34 427.17 709.22 424.50 711.74 C 424.47 712.35 424.41 713.57 424.38 714.19 C 423.26 714.76 422.15 715.35 421.05 715.96 C 420.19 718.60 418.56 720.88 417.12 723.23 C 414.85 725.93 412.47 728.59 410.83 731.75 C 410.06 733.49 408.22 734.23 406.69 735.17 C 406.69 735.67 406.67 736.65 406.66 737.15 C 405.95 737.92 405.24 738.71 404.54 739.50 C 403.11 739.47 401.67 739.44 400.25 739.45 C 400.73 738.10 401.22 736.76 401.70 735.42 C 402.34 735.39 403.61 735.32 404.24 735.29 C 404.28 734.62 404.35 733.30 404.39 732.63 C 404.93 732.36 406.01 731.80 406.56 731.53 C 406.48 730.87 406.33 729.55 406.25 728.89 C 408.33 726.44 410.32 723.93 412.33 721.43 C 412.35 720.81 412.41 719.57 412.44 718.94 C 414.87 716.08 417.16 713.07 418.81 709.67 C 419.13 709.54 419.77 709.28 420.09 709.16 C 420.37 706.24 422.06 703.81 423.55 701.40 C 424.03 701.34 424.99 701.24 425.47 701.19 C 425.14 700.70 424.46 699.73 424.12 699.24 C 426.07 696.59 427.86 693.83 429.55 691.01 C 429.56 690.44 429.59 689.28 429.60 688.71 C 432.55 685.86 433.53 681.78 435.38 678.26 C 438.75 672.24 441.36 665.84 443.84 659.42 C 444.60 658.93 445.37 658.46 446.13 657.98 C 446.54 653.28 446.77 648.27 449.43 644.20 C 450.75 642.02 451.71 639.66 452.50 637.25 C 452.48 636.07 452.48 634.89 452.49 633.73 C 453.20 632.90 453.90 632.09 454.61 631.27 C 454.57 630.14 454.53 629.02 454.52 627.91 C 455.17 626.61 455.81 625.32 456.46 624.04 C 457.06 621.86 457.54 619.66 457.89 617.43 C 460.12 611.14 461.64 604.55 462.77 597.97 C 464.13 594.02 464.72 589.87 464.55 585.70 C 464.98 585.36 465.85 584.68 466.28 584.34 C 466.53 573.16 466.17 561.82 468.42 550.84 C 468.52 547.11 468.44 543.38 468.68 539.66 C 468.96 535.46 468.14 531.18 469.32 527.07 C 468.93 525.70 468.53 524.34 468.52 522.92 C 468.44 516.02 468.78 509.11 468.22 502.23 C 466.75 503.86 466.28 506.03 465.75 508.09 C 464.89 510.74 463.75 513.27 462.74 515.87 C 462.26 520.04 459.98 523.68 458.74 527.64 C 457.98 530.08 457.03 532.48 455.88 534.77 C 454.55 538.72 452.93 542.56 451.32 546.40 C 450.84 546.56 449.86 546.88 449.37 547.04 C 449.73 547.45 450.43 548.29 450.79 548.71 C 447.19 554.47 446.10 561.36 442.64 567.16 C 442.54 568.46 442.47 569.77 442.40 571.08 C 437.52 579.14 435.63 588.47 431.62 596.93 C 431.50 597.87 431.38 598.83 431.26 599.79 C 432.99 601.07 434.83 602.19 436.77 603.16 C 436.24 604.91 435.57 606.61 434.78 608.27 C 434.65 608.76 434.40 609.75 434.27 610.25 C 433.19 611.92 432.13 613.60 431.08 615.29 C 430.74 615.62 430.05 616.27 429.71 616.59 C 425.27 625.02 420.43 633.23 415.17 641.17 C 411.14 646.28 407.84 651.90 404.15 657.25 C 403.04 658.84 401.40 659.92 399.89 661.10 C 399.78 661.56 399.54 662.49 399.42 662.95 C 398.05 664.58 396.80 666.34 396.18 668.41 C 395.56 668.49 394.33 668.64 393.71 668.71 C 393.70 669.34 393.67 670.60 393.65 671.22 C 392.35 672.10 391.05 672.99 389.75 673.87 C 389.68 674.38 389.54 675.41 389.47 675.92 C 386.85 678.21 384.36 680.64 381.82 683.02 C 381.71 683.48 381.47 684.40 381.35 684.86 C 377.20 687.74 373.53 691.25 370.09 694.93 C 362.95 702.72 354.77 709.40 346.59 716.05 C 343.60 717.77 340.40 719.31 338.18 722.07 C 334.77 726.04 329.74 727.87 325.55 730.81 C 322.21 733.31 317.72 733.78 314.89 737.01 C 311.95 737.98 309.15 739.33 306.59 741.07 C 298.41 743.92 290.06 746.28 281.97 749.34 C 281.34 749.46 280.08 749.69 279.46 749.80 C 273.56 752.69 266.82 753.02 260.54 754.64 C 256.32 755.93 251.78 755.16 247.62 756.70 C 241.68 758.55 235.23 756.23 229.38 758.57 C 225.12 760.04 220.51 759.42 216.10 759.20 C 209.63 759.05 203.12 759.93 196.64 759.26 C 193.76 758.58 190.99 757.30 187.97 757.45 C 182.46 757.45 177.39 755.04 172.11 753.85 C 167.70 752.80 163.17 751.93 159.13 749.79 C 151.64 745.81 143.27 743.52 136.51 738.25 C 129.89 734.90 125.16 729.11 119.50 724.48 C 114.48 719.17 109.17 714.15 104.56 708.46 C 100.72 704.80 98.50 699.90 95.05 695.92 C 92.99 693.39 92.52 689.94 90.30 687.52 C 86.92 683.90 86.38 678.52 82.57 675.24 C 82.53 674.12 82.48 673.01 82.44 671.90 C 80.81 669.76 79.27 667.46 79.27 664.67 C 76.47 661.28 76.23 656.72 74.07 653.00 C 73.00 651.37 73.98 649.49 74.37 647.82 C 73.86 646.95 73.36 646.09 72.88 645.22 C 73.49 645.06 74.71 644.75 75.31 644.59 C 73.76 644.29 71.73 644.91 70.73 643.32 C 70.48 641.91 70.43 640.47 70.35 639.06 C 69.55 635.87 68.68 632.68 68.35 629.39 C 67.77 628.85 67.19 628.31 66.62 627.77 C 66.56 626.19 66.49 624.60 66.41 623.02 C 65.60 620.57 65.35 618.00 65.13 615.46 C 65.46 615.52 66.13 615.63 66.46 615.68 C 65.35 613.49 64.58 611.15 64.07 608.75 C 65.12 608.34 66.17 607.92 67.21 607.49 C 66.51 607.54 65.11 607.64 64.42 607.70 C 64.00 604.57 63.56 601.45 63.26 598.32 C 63.79 598.37 64.86 598.47 65.40 598.52 C 66.89 600.15 68.36 601.80 69.80 603.49 C 70.30 603.56 71.31 603.69 71.82 603.75 C 76.17 607.93 81.23 611.24 86.08 614.79 C 90.92 616.20 94.53 620.16 99.46 621.37 C 104.76 622.85 109.81 625.10 115.03 626.84 C 114.82 627.20 114.40 627.94 114.19 628.30 C 115.74 627.53 117.47 627.50 119.15 627.30 C 119.46 627.78 120.08 628.74 120.39 629.22 C 122.28 629.54 124.18 629.89 126.04 630.40 C 135.83 632.58 145.85 633.00 155.81 633.89 C 163.49 635.37 171.35 633.81 179.05 635.14 C 180.88 635.59 182.58 634.65 184.34 634.30 C 181.60 632.42 178.94 630.38 176.77 627.83 C 176.33 627.72 175.44 627.49 174.99 627.38 C 171.51 623.69 166.92 621.29 163.59 617.45 C 158.57 612.74 154.54 607.11 149.86 602.09 C 149.25 600.72 148.62 599.36 147.98 598.02 C 143.53 592.65 140.30 586.29 138.18 579.66 C 136.81 577.51 135.82 575.13 135.37 572.63 C 134.60 568.66 132.25 565.09 132.35 560.96 C 131.78 560.00 131.19 559.05 130.60 558.11 C 130.53 555.80 130.43 553.50 130.29 551.21 C 129.31 547.33 128.95 543.32 127.71 539.52 C 127.28 533.59 128.04 527.60 126.79 521.75 C 127.59 517.59 126.68 513.49 125.99 509.39 C 127.27 503.53 126.15 497.47 126.47 491.53 C 127.81 490.17 129.07 488.72 130.59 487.57 C 137.63 486.23 144.47 489.15 151.43 489.66 C 152.17 490.17 152.91 490.68 153.66 491.20 C 162.77 491.79 171.62 494.95 179.75 498.97 C 182.93 500.22 185.83 502.07 188.97 503.42 C 194.43 505.65 198.87 509.62 203.70 512.89 C 203.72 513.50 203.76 514.71 203.78 515.31 C 204.38 515.36 205.56 515.46 206.16 515.50 C 206.82 516.51 207.49 517.53 208.17 518.55 C 209.25 518.51 210.34 518.48 211.42 518.45 C 211.51 510.63 211.00 502.74 212.20 494.99 C 212.68 491.51 211.97 487.90 213.20 484.55 C 212.96 484.19 212.48 483.46 212.24 483.09 C 213.35 480.50 214.56 477.84 214.43 474.96 C 214.53 464.93 218.98 455.68 220.05 445.79 C 221.06 442.68 222.38 439.63 222.66 436.35 C 223.28 435.64 223.91 434.94 224.55 434.26 C 224.53 433.67 224.51 432.48 224.49 431.89 C 225.59 431.08 226.68 430.26 227.77 429.45 C 229.18 429.49 230.59 429.53 232.00 429.57 C 235.45 430.98 238.62 432.93 241.62 435.12 C 252.18 440.87 260.15 450.09 268.62 458.39 C 273.50 464.53 280.00 469.35 283.80 476.32 C 284.54 477.55 284.51 478.80 283.71 480.07 C 276.78 476.28 270.75 471.13 264.05 467.01 C 261.14 464.86 258.31 462.58 255.12 460.85 C 249.37 457.91 244.36 453.26 237.74 452.31 L 236.93 452.87 C 235.74 459.82 233.84 466.64 232.84 473.64 C 233.22 476.85 231.31 479.75 231.49 482.95 C 231.59 487.28 230.35 491.46 230.07 495.76 C 230.71 499.90 228.87 503.99 229.47 508.16 C 230.13 512.28 229.74 516.45 230.33 520.58 C 230.84 525.38 229.50 530.49 231.89 534.95 C 232.70 536.04 231.76 537.12 231.45 538.19 C 231.95 540.86 232.50 543.52 232.58 546.25 C 233.18 547.09 233.80 547.92 234.42 548.75 C 233.89 553.04 235.40 557.04 236.87 560.98 C 238.83 565.03 241.23 568.87 242.68 573.15 C 243.63 576.27 245.97 578.60 248.48 580.54 C 248.48 581.20 248.49 582.52 248.49 583.18 C 251.50 586.33 254.42 589.58 256.89 593.18 C 259.94 595.73 263.22 598.11 265.58 601.37 C 268.21 604.39 270.36 608.05 274.03 609.95 C 276.27 612.92 280.06 613.83 282.77 616.22 C 284.46 617.70 285.84 619.48 287.22 621.26 C 287.82 621.32 289.04 621.43 289.64 621.49 C 289.65 621.96 289.67 622.89 289.68 623.36 C 290.26 623.38 291.43 623.42 292.01 623.43 C 292.71 624.60 293.80 625.38 295.07 625.85 C 296.84 626.82 298.56 627.88 300.27 628.97 C 299.79 629.29 298.84 629.92 298.36 630.24 C 304.31 630.68 308.57 635.27 312.28 639.45 C 310.15 639.49 308.03 639.51 305.91 639.49 C 300.72 636.79 295.43 634.30 290.03 632.06 C 288.79 630.86 287.06 630.55 285.47 630.16 C 285.42 629.56 285.33 628.37 285.29 627.77 C 284.22 627.63 283.16 627.48 282.10 627.34 C 280.86 626.35 279.51 625.51 278.16 624.71 C 278.91 623.53 278.42 620.39 276.09 624.34 C 275.82 622.46 274.50 621.61 272.88 621.18 C 269.01 618.36 264.99 615.75 261.14 612.93 C 255.08 607.26 249.06 601.54 243.48 595.39 C 238.91 591.77 236.77 586.22 233.28 581.72 C 230.20 577.57 227.36 573.08 226.11 568.02 C 223.88 566.90 223.45 564.33 222.55 562.27 C 221.50 559.48 220.17 556.80 218.60 554.28 C 218.53 553.21 218.48 552.15 218.43 551.10 C 217.80 548.64 217.13 546.18 215.83 543.99 C 215.00 540.08 215.12 535.73 212.68 532.37 C 211.18 530.11 209.76 527.78 207.99 525.73 C 205.80 524.10 203.15 523.22 200.90 521.68 C 199.80 521.56 198.69 521.44 197.59 521.34 C 196.83 520.75 196.08 520.16 195.32 519.58 C 186.83 519.23 179.54 513.37 170.96 513.23 C 167.22 511.44 163.15 510.50 159.04 510.12 C 155.97 508.62 152.59 508.20 149.21 508.28 C 148.54 511.46 148.38 514.71 147.92 517.92 C 148.13 520.93 147.30 523.91 147.55 526.93 C 148.24 529.79 147.16 532.77 148.05 535.66 C 146.64 541.72 148.50 547.74 148.72 553.81 C 150.24 559.83 150.56 566.14 153.03 571.90 C 154.11 575.16 156.43 578.04 156.50 581.59 C 157.47 581.61 158.43 581.64 159.41 581.67 C 158.45 581.95 156.54 582.52 155.59 582.80 C 157.17 584.39 158.85 585.93 160.74 587.17 C 160.11 587.44 158.84 587.98 158.21 588.24 C 159.87 588.40 161.53 588.54 163.19 588.69 C 162.06 589.28 160.94 589.89 159.85 590.57 C 161.53 593.77 163.39 596.88 165.44 599.86 C 165.45 600.46 165.46 601.65 165.47 602.24 C 170.45 607.10 173.81 613.29 178.75 618.19 C 181.99 623.19 186.19 627.43 190.68 631.32 C 191.90 632.37 193.57 632.48 195.05 632.94 C 199.61 635.29 204.92 634.83 209.83 635.94 C 214.25 636.49 218.72 637.95 223.16 636.74 C 227.97 635.73 232.67 640.27 237.29 637.57 C 238.07 638.19 238.84 638.81 239.62 639.46 C 246.36 639.13 252.70 641.76 258.97 643.84 C 264.19 645.48 268.34 649.17 272.68 652.33 C 273.27 652.37 274.45 652.46 275.03 652.51 C 277.31 655.77 280.42 658.30 283.97 660.10 C 287.00 661.49 288.71 664.41 290.59 667.01 C 290.25 667.38 289.59 668.13 289.26 668.50 C 288.82 668.49 287.94 668.47 287.50 668.46 C 286.32 667.18 285.15 665.90 283.99 664.62 C 283.33 664.58 282.01 664.48 281.34 664.43 C 279.17 662.76 276.91 661.14 274.31 660.18 C 268.49 658.32 264.28 653.34 258.24 651.97 C 254.24 649.92 249.67 649.66 245.46 648.27 C 234.85 644.46 223.37 644.11 212.24 644.76 C 207.20 645.88 201.88 644.78 196.97 646.53 C 196.23 646.54 194.76 646.55 194.02 646.56 C 193.52 646.90 192.50 647.57 191.99 647.91 C 191.63 647.65 190.91 647.12 190.55 646.86 C 185.08 648.23 179.39 647.02 173.89 648.16 C 171.66 648.65 169.35 648.64 167.13 648.06 C 159.87 646.38 152.25 648.64 145.06 646.48 C 137.91 644.42 130.35 644.96 123.21 642.88 C 115.57 640.96 107.44 640.52 100.28 637.02 C 96.51 635.61 92.98 633.64 89.20 632.26 C 89.26 631.86 89.38 631.06 89.44 630.66 C 87.01 630.93 84.36 630.79 83.75 627.97 C 83.52 629.39 83.43 630.83 83.19 632.26 C 84.34 633.99 85.56 635.66 86.78 637.35 C 86.12 637.50 84.79 637.80 84.12 637.95 C 87.41 637.76 88.87 640.48 88.92 643.39 C 89.45 643.43 90.50 643.51 91.02 643.56 C 90.85 644.36 90.67 645.17 90.50 645.99 C 93.39 646.20 93.69 648.59 93.84 650.97 C 95.89 651.79 96.04 653.62 94.35 654.88 C 95.10 654.69 96.59 654.30 97.34 654.11 C 97.89 655.99 98.45 657.89 98.97 659.79 C 101.90 663.13 104.22 666.95 107.14 670.31 C 106.75 670.48 105.96 670.82 105.57 670.99 C 107.24 672.23 108.84 673.57 110.50 674.85 C 110.53 675.38 110.60 676.45 110.63 676.99 C 117.31 680.42 118.70 688.60 124.40 693.05 C 124.51 693.53 124.73 694.48 124.84 694.96 C 128.52 698.14 132.57 701.06 135.21 705.24 C 135.63 705.36 136.48 705.59 136.90 705.71 C 140.85 709.55 144.41 713.94 149.24 716.76 C 153.05 718.99 156.34 721.96 159.73 724.79 C 160.57 724.65 161.41 724.53 162.25 724.42 C 162.08 727.60 165.36 727.88 167.59 728.92 C 169.99 729.88 171.54 732.15 173.89 733.19 C 176.31 734.14 178.72 735.16 180.90 736.59 C 181.54 736.56 182.80 736.49 183.43 736.46 C 183.76 736.89 184.41 737.76 184.74 738.20 C 189.97 739.50 194.55 742.70 199.97 743.43 C 209.65 744.80 219.16 747.86 229.03 747.46 C 237.33 747.23 245.70 748.06 253.94 746.71 C 261.38 746.16 268.57 743.83 276.02 743.35 C 280.19 742.95 284.06 741.17 287.95 739.75 C 292.11 738.49 296.76 737.98 300.09 734.94 C 302.90 734.27 305.64 733.31 308.07 731.73 C 308.63 731.64 309.75 731.44 310.31 731.34 C 313.78 728.50 318.35 727.63 321.89 724.91 C 324.56 722.78 327.87 721.66 330.48 719.46 C 334.41 715.92 339.52 714.04 343.27 710.26 C 349.50 705.42 354.97 699.63 361.70 695.47 C 364.71 693.68 365.81 689.05 369.89 689.37 C 369.27 689.03 368.02 688.35 367.40 688.01 C 368.56 687.31 369.75 686.66 370.97 686.06 C 372.44 684.14 374.14 682.40 375.89 680.74 C 376.41 678.99 377.83 677.90 379.25 676.89 C 379.33 676.44 379.50 675.54 379.59 675.09 C 382.61 670.95 388.31 668.83 389.68 663.63 C 390.97 662.68 392.25 661.73 393.58 660.85 C 393.05 660.69 391.99 660.36 391.46 660.20 C 392.10 659.71 393.38 658.73 394.02 658.24 C 395.39 655.76 396.32 652.30 399.69 652.08 C 399.31 651.91 398.54 651.59 398.15 651.42 C 400.43 648.57 402.06 645.29 403.84 642.12 C 406.65 640.52 408.26 637.65 410.24 635.21 C 410.33 634.67 410.50 633.59 410.59 633.05 C 414.35 628.91 417.26 624.13 420.07 619.32 C 421.07 617.46 422.59 615.96 424.27 614.71 C 424.31 613.75 424.35 612.81 424.39 611.88 C 421.27 610.77 418.21 609.49 415.18 608.16 C 416.99 605.15 418.56 602.01 419.94 598.79 C 423.49 592.35 426.67 585.72 430.22 579.30 C 430.26 578.73 430.34 577.58 430.38 577.01 C 431.56 575.04 432.78 573.10 434.07 571.20 C 434.51 564.72 437.84 558.93 440.46 553.13 C 440.45 551.92 440.46 550.71 440.48 549.52 C 441.22 548.81 441.95 548.10 442.69 547.39 C 442.61 546.13 442.55 544.87 442.50 543.62 C 443.50 542.42 444.54 541.23 445.56 540.04 C 445.57 539.43 445.60 538.21 445.61 537.59 C 448.30 533.95 448.71 529.43 449.48 525.13 C 449.99 521.57 453.89 518.49 451.64 514.84 C 452.20 514.05 452.76 513.27 453.33 512.49 C 453.98 508.80 456.10 505.43 455.60 501.56 C 456.02 501.17 456.87 500.39 457.29 500.00 C 457.55 498.29 457.74 496.58 458.14 494.90 C 459.14 491.12 459.23 487.09 460.93 483.51 C 460.48 483.41 459.58 483.22 459.13 483.12 C 459.90 482.56 460.68 481.99 461.45 481.43 C 461.54 479.22 461.65 477.02 462.08 474.87 C 464.80 469.55 462.59 463.52 464.26 457.99 C 463.77 456.67 463.81 455.29 464.17 453.96 C 463.37 451.00 464.40 448.03 464.50 445.06 C 463.67 442.52 463.74 439.83 463.52 437.20 C 462.87 433.12 461.60 429.13 461.50 424.97 C 461.51 422.95 460.76 421.08 459.86 419.33 C 458.94 415.86 458.65 412.24 457.54 408.82 C 456.65 406.48 455.69 404.14 455.33 401.65 C 454.43 400.11 453.46 398.61 452.51 397.11 C 452.47 395.75 452.44 394.38 452.42 393.02 C 449.36 387.39 447.40 381.11 446.32 374.82 C 446.03 374.33 445.44 373.36 445.15 372.87 C 445.80 372.15 446.46 371.43 447.12 370.72 C 446.45 370.66 445.13 370.54 444.46 370.48 C 444.41 368.68 444.31 366.89 444.21 365.10 C 442.62 361.78 441.33 358.33 440.14 354.84 C 440.49 354.48 441.18 353.75 441.53 353.39 C 441.12 353.08 440.32 352.47 439.92 352.16 C 440.10 351.61 440.47 350.51 440.65 349.96 C 440.34 349.70 439.72 349.19 439.41 348.93 C 438.90 343.65 440.23 338.65 441.79 333.69 C 445.53 328.80 448.15 323.16 452.03 318.38 C 452.22 315.87 453.14 313.55 455.25 312.05 C 455.29 310.83 455.33 309.59 455.37 308.37 Z" />
<path fill="#c0944d" opacity="1.00" d=" M 849.38 326.69 C 850.01 326.35 851.28 325.67 851.91 325.33 C 853.05 326.83 854.24 328.30 855.45 329.76 C 855.48 330.82 855.53 331.88 855.59 332.95 C 857.57 336.04 857.65 339.70 857.41 343.24 C 857.77 343.61 858.49 344.36 858.84 344.73 C 858.29 344.95 857.18 345.38 856.62 345.60 C 857.69 348.60 857.65 351.82 857.42 354.96 C 857.01 359.15 856.38 363.53 853.65 366.92 C 853.55 368.11 853.46 369.30 853.40 370.50 C 852.30 370.50 850.09 370.51 848.99 370.52 C 850.44 365.98 853.11 361.63 852.63 356.69 C 853.22 356.25 853.83 355.81 854.44 355.37 C 855.95 346.80 854.34 338.01 850.91 330.08 C 850.42 328.93 849.91 327.80 849.38 326.69 Z" />
<path fill="#c0944d" opacity="1.00" d=" M 736.55 336.40 C 737.14 336.43 738.32 336.50 738.90 336.53 C 738.52 337.66 738.11 338.78 737.70 339.90 C 737.01 343.31 736.23 346.74 736.33 350.25 C 735.99 350.75 735.33 351.74 734.99 352.23 C 734.09 352.42 733.20 352.61 732.32 352.81 C 732.83 350.41 733.72 347.99 732.98 345.53 C 734.93 343.64 734.60 340.95 734.60 338.47 C 735.24 337.78 735.89 337.08 736.55 336.40 Z" />
<path fill="#c0944d" opacity="1.00" d=" M 937.80 341.99 C 939.74 340.47 941.68 338.95 943.64 337.46 C 944.53 337.50 946.30 337.59 947.18 337.63 C 948.40 339.43 949.68 341.19 950.88 343.01 C 949.48 344.86 948.23 346.90 946.36 348.31 C 944.04 349.49 941.39 349.36 938.88 349.54 C 938.61 348.66 938.35 347.78 938.11 346.91 C 938.43 345.26 938.33 343.58 937.80 341.99 Z" />
<path fill="#c0944d" opacity="1.00" d=" M 883.91 340.46 C 886.41 340.45 888.92 340.46 891.43 340.46 C 892.75 344.45 892.48 348.68 892.86 352.81 C 894.31 356.56 895.83 360.31 897.98 363.74 C 896.52 363.64 895.08 363.56 893.64 363.47 C 889.32 360.02 886.22 355.45 882.69 351.27 C 882.13 348.81 881.60 346.35 881.31 343.85 C 882.18 342.72 883.04 341.60 883.91 340.46 Z" />
<path fill="#c0944d" opacity="1.00" d=" M 389.75 350.85 C 391.49 350.83 393.21 351.14 394.90 351.55 C 394.09 354.15 393.17 356.70 392.19 359.24 C 390.93 359.62 389.74 360.20 389.08 361.40 C 386.68 364.97 383.79 368.51 383.13 372.89 C 381.83 373.82 380.52 374.74 379.22 375.66 C 379.23 376.30 379.26 377.59 379.28 378.23 C 378.21 379.73 377.43 381.38 377.00 383.17 C 375.22 386.89 373.50 390.65 371.30 394.14 C 371.68 394.62 372.44 395.57 372.82 396.04 C 372.07 396.55 371.31 397.07 370.57 397.59 C 370.63 400.25 369.91 402.80 368.72 405.17 C 367.39 408.41 366.57 411.82 365.70 415.21 C 365.51 415.73 365.12 416.76 364.93 417.28 C 364.56 421.00 363.91 424.69 363.26 428.37 C 363.06 428.65 362.66 429.21 362.46 429.49 C 360.98 434.43 361.61 439.69 360.26 444.67 C 359.67 445.33 359.09 446.00 358.51 446.66 C 358.26 452.86 356.84 458.95 355.58 465.01 C 355.46 466.62 355.40 468.25 355.27 469.87 C 354.08 471.09 353.03 472.43 351.95 473.74 C 351.61 473.59 350.93 473.29 350.59 473.15 C 352.56 474.77 350.90 477.16 350.78 479.18 C 350.44 483.26 348.83 487.07 348.22 491.10 C 346.86 494.00 345.44 496.91 344.87 500.09 C 344.35 502.30 344.55 504.69 343.54 506.78 C 341.77 510.91 338.14 514.04 337.11 518.53 C 334.04 527.01 330.20 535.51 323.81 542.03 C 323.72 542.52 323.54 543.50 323.45 543.99 C 319.50 548.53 315.86 553.33 312.09 558.02 C 311.30 559.70 309.43 559.68 307.86 559.32 C 308.70 557.49 309.97 555.92 311.23 554.38 C 311.21 551.49 312.41 549.07 315.04 547.75 C 316.01 543.91 316.98 539.57 320.37 537.09 C 320.38 535.98 320.40 534.87 320.41 533.77 C 321.02 532.94 321.61 532.10 322.20 531.26 C 322.91 527.62 325.54 524.66 325.81 520.92 C 328.66 515.29 330.98 509.20 331.78 502.91 C 334.12 498.94 334.72 494.27 336.27 489.99 C 337.95 485.41 338.50 480.51 340.20 475.94 C 340.91 473.32 341.49 470.68 341.81 467.99 C 343.05 465.32 343.84 462.46 343.59 459.49 C 344.00 459.13 344.81 458.42 345.22 458.07 C 344.95 451.49 347.44 445.27 347.61 438.76 C 348.20 437.95 348.80 437.15 349.40 436.36 C 349.49 435.27 349.59 434.19 349.68 433.12 C 350.99 426.38 353.25 419.81 353.70 412.93 C 354.15 412.52 355.06 411.69 355.52 411.27 C 355.54 410.18 355.58 409.09 355.62 408.00 C 356.62 406.06 357.43 404.01 357.82 401.86 C 359.73 396.96 362.42 392.39 363.91 387.33 C 365.88 384.34 367.50 381.13 368.76 377.78 C 369.48 377.22 370.20 376.67 370.92 376.11 C 371.52 373.71 372.77 371.56 375.35 370.96 C 375.35 369.89 375.36 368.82 375.37 367.77 C 380.15 363.20 383.86 357.60 389.05 353.48 C 389.36 352.63 389.60 351.75 389.75 350.85 Z" />
<path fill="#c0944d" opacity="1.00" d=" M 873.52 368.42 C 878.02 366.57 883.03 364.44 887.95 365.87 C 889.86 367.04 891.18 368.93 892.64 370.60 C 893.09 370.61 894.00 370.62 894.45 370.62 C 895.71 369.27 896.99 367.93 898.26 366.58 C 901.15 365.67 904.20 365.20 907.03 366.66 C 904.48 372.07 900.83 376.86 898.21 382.21 C 895.94 390.04 888.00 395.43 888.19 404.14 C 891.49 402.73 895.13 401.54 897.50 398.67 C 900.47 395.25 903.32 391.73 906.47 388.46 C 907.06 388.42 908.24 388.34 908.83 388.31 C 908.71 388.79 908.49 389.76 908.37 390.25 C 906.91 391.44 905.48 392.66 904.08 393.92 C 900.53 399.00 896.54 403.98 891.37 407.49 C 888.40 407.44 885.44 407.45 882.48 407.47 C 880.90 405.14 879.18 402.91 877.34 400.80 C 873.45 405.13 868.00 408.42 861.95 407.44 C 860.21 406.50 858.39 405.70 856.51 405.14 C 854.13 399.90 856.88 393.87 854.30 388.71 C 853.92 387.91 853.64 387.08 853.46 386.22 C 854.82 383.03 857.26 380.35 860.47 378.95 C 860.46 378.08 860.48 377.22 860.50 376.37 C 861.10 376.41 862.30 376.49 862.90 376.53 C 862.77 376.09 862.52 375.22 862.39 374.78 C 866.74 373.88 869.46 369.96 873.52 368.42 M 877.01 373.11 C 873.70 376.85 870.51 380.74 867.80 384.94 C 867.38 386.91 866.48 388.69 865.42 390.38 C 862.95 394.31 862.42 399.06 862.30 403.60 C 864.64 403.56 866.99 403.52 869.35 403.47 C 872.60 400.29 876.35 397.61 879.25 394.07 C 881.34 391.54 883.46 389.00 886.06 386.97 C 885.68 385.79 884.99 384.39 885.99 383.31 C 888.42 379.60 890.00 375.20 889.45 370.71 C 888.49 369.80 887.38 369.08 886.32 368.33 C 883.13 369.70 879.37 370.34 877.01 373.11 Z" />
<path fill="#c0944d" opacity="1.00" d=" M 665.81 370.78 C 669.60 369.35 673.17 367.41 676.91 365.84 C 679.52 365.62 682.13 365.42 684.76 365.27 C 684.68 365.96 684.54 367.33 684.46 368.02 C 684.80 367.47 685.47 366.37 685.81 365.81 C 687.39 366.65 689.03 367.44 690.64 368.28 C 690.65 369.46 690.70 370.66 690.76 371.85 C 692.55 375.79 691.28 380.11 690.38 384.11 C 688.45 387.05 687.05 390.29 685.96 393.63 C 687.70 393.57 689.45 393.49 691.20 393.45 C 693.72 391.15 696.20 388.81 698.59 386.39 C 699.74 386.41 700.89 386.44 702.05 386.48 C 700.67 388.32 699.32 390.17 698.10 392.12 C 695.36 393.33 692.72 394.73 690.17 396.27 C 687.29 396.65 684.44 397.23 681.58 397.70 C 677.55 401.43 673.69 406.08 668.06 407.29 C 663.85 407.71 659.17 408.23 655.62 405.43 C 655.67 402.92 654.74 400.63 653.14 398.73 C 653.55 398.58 654.37 398.26 654.78 398.11 C 654.32 397.60 653.40 396.58 652.94 396.07 C 653.28 395.73 653.97 395.05 654.31 394.71 C 653.75 393.68 653.21 392.65 652.69 391.62 C 653.28 391.58 654.45 391.50 655.03 391.46 C 653.77 390.63 652.52 389.77 651.30 388.92 C 652.04 388.68 653.53 388.20 654.27 387.96 C 653.58 387.77 652.20 387.39 651.51 387.20 C 654.31 382.58 658.22 378.84 661.98 375.02 C 663.22 373.58 664.54 372.20 665.81 370.78 M 672.45 375.74 C 669.51 380.44 664.89 384.50 664.28 390.29 C 663.38 391.83 662.45 393.34 661.49 394.84 C 661.39 398.08 661.41 401.32 661.50 404.57 C 664.89 404.90 668.25 404.10 670.96 401.97 C 676.88 398.54 680.16 392.36 684.48 387.33 C 684.44 386.67 684.35 385.36 684.31 384.71 C 685.31 383.92 686.47 383.29 687.37 382.36 C 687.35 379.59 686.65 376.88 686.46 374.13 C 688.63 371.99 685.64 370.75 684.32 369.40 C 683.45 369.41 681.73 369.43 680.87 369.43 C 677.71 371.00 674.25 372.51 672.45 375.74 Z" />
<path fill="#c0944d" opacity="1.00" d=" M 925.58 366.61 C 929.36 366.07 933.19 365.34 936.94 366.56 C 936.34 368.07 935.71 369.57 935.11 371.08 C 931.75 374.37 930.83 379.22 927.89 382.82 C 923.89 388.06 922.35 395.12 916.72 399.04 C 916.65 400.48 916.58 401.92 916.54 403.37 C 916.88 403.97 917.57 405.18 917.91 405.78 C 920.56 403.21 923.90 401.63 927.11 399.90 C 931.40 396.27 935.08 391.94 938.37 387.39 C 939.53 387.38 940.70 387.38 941.88 387.38 C 941.75 387.80 941.47 388.64 941.33 389.06 C 938.91 391.04 936.67 393.22 934.67 395.62 C 931.47 399.45 927.51 402.54 924.16 406.23 C 923.08 406.62 922.02 407.03 920.97 407.44 C 918.70 407.42 916.41 407.59 914.17 407.19 C 912.61 405.92 911.32 404.36 910.01 402.86 C 910.30 402.45 910.89 401.62 911.18 401.20 C 910.46 398.80 910.28 396.29 910.17 393.81 C 911.15 392.72 912.15 391.64 913.16 390.58 C 913.84 388.09 914.43 385.58 914.93 383.05 C 913.28 384.14 911.44 384.93 909.76 383.40 C 911.31 382.08 912.88 380.72 914.01 379.00 C 917.08 374.20 921.52 370.54 925.58 366.61 Z" />
<path fill="#c0944d" opacity="1.00" d=" M 909.55 384.92 C 911.17 384.38 911.73 384.93 911.22 386.57 C 909.58 387.08 909.02 386.53 909.55 384.92 Z" />
<path fill="#c0944d" opacity="1.00" d=" M 709.79 475.97 C 712.88 474.67 716.20 474.09 719.45 473.34 C 721.34 475.21 723.20 477.12 725.05 479.04 C 724.12 479.47 722.27 480.31 721.34 480.73 C 721.36 479.32 721.40 477.92 721.44 476.51 C 719.20 476.51 716.96 476.47 714.73 476.42 C 711.59 479.75 708.80 483.37 705.67 486.69 C 705.59 487.22 705.45 488.26 705.37 488.79 C 703.69 490.79 703.37 493.38 703.18 495.89 C 710.75 494.32 719.44 489.86 720.78 481.44 C 722.13 480.94 723.52 480.60 724.91 481.22 C 723.35 487.06 719.38 492.13 713.96 494.86 C 709.68 496.82 706.07 499.97 701.63 501.59 C 701.32 503.10 701.00 504.62 700.66 506.13 C 700.50 508.16 700.38 510.20 700.24 512.23 C 700.73 512.43 701.70 512.83 702.19 513.03 C 700.93 513.24 699.68 513.44 698.44 513.63 C 698.38 514.29 698.27 515.60 698.22 516.26 C 697.83 517.64 697.51 519.04 697.20 520.45 C 696.30 521.95 695.43 523.46 694.50 524.95 C 694.46 526.49 694.42 528.03 694.39 529.58 C 693.38 530.58 692.37 531.58 691.38 532.60 C 691.38 533.78 691.39 534.97 691.39 536.17 C 689.89 537.82 688.30 539.48 687.57 541.64 C 685.11 548.46 680.86 554.42 677.62 560.87 C 681.27 560.64 683.59 557.53 686.09 555.25 C 691.88 548.96 698.03 543.01 703.96 536.85 C 707.52 532.62 710.07 527.56 714.31 523.91 C 714.41 523.23 714.52 522.56 714.64 521.90 C 717.48 519.86 719.95 517.34 721.85 514.41 C 722.75 514.45 724.53 514.53 725.42 514.57 C 723.68 517.66 721.81 520.81 718.77 522.80 C 718.66 523.29 718.56 523.78 718.47 524.28 C 715.72 528.21 711.80 531.03 708.73 534.66 C 707.96 537.49 705.68 539.44 703.61 541.36 C 703.58 541.68 703.52 542.34 703.48 542.66 C 701.67 543.82 699.96 545.18 698.98 547.14 C 694.54 551.69 690.64 556.73 685.89 560.96 C 678.02 568.42 671.15 578.11 660.19 581.11 C 659.77 576.21 662.36 571.85 665.12 568.03 C 668.17 564.18 669.44 559.35 670.91 554.76 C 671.95 553.18 673.06 551.64 674.19 550.12 C 676.84 540.25 680.85 530.78 683.23 520.82 C 683.83 518.03 685.05 515.44 686.50 513.00 C 686.51 512.40 686.55 511.20 686.56 510.60 C 687.63 508.79 688.47 506.84 688.83 504.77 C 689.58 503.29 690.33 501.81 691.13 500.36 C 688.34 499.66 685.33 499.62 682.75 498.29 C 679.76 496.24 677.68 493.19 675.47 490.39 C 675.49 489.47 675.52 488.55 675.57 487.65 C 672.35 484.44 669.56 480.81 666.26 477.69 C 661.83 476.69 657.21 477.77 653.40 480.14 C 648.44 480.62 644.75 484.12 641.04 487.07 C 640.00 487.81 639.48 488.97 638.94 490.07 C 634.41 492.78 633.02 498.11 629.45 501.71 C 629.46 502.67 629.49 503.64 629.53 504.62 C 628.95 504.85 627.80 505.32 627.23 505.55 C 629.92 509.47 626.00 513.88 627.68 518.08 C 629.47 520.75 632.26 522.52 634.67 524.60 C 639.61 524.73 644.55 524.47 649.35 523.18 C 654.40 519.69 657.91 514.62 661.85 510.04 C 664.56 504.86 666.23 499.18 667.86 493.58 C 669.00 493.52 670.15 493.47 671.31 493.41 C 671.67 495.93 672.69 498.51 671.75 501.03 C 671.72 508.56 667.75 515.53 663.20 521.28 C 659.41 524.76 655.93 529.26 650.73 530.57 C 644.93 531.03 639.07 530.84 633.28 530.33 C 633.36 529.50 633.52 527.83 633.60 526.99 C 633.23 527.55 632.47 528.68 632.09 529.24 C 629.80 526.74 627.05 524.41 625.90 521.12 C 625.44 518.40 625.61 515.59 624.80 512.93 C 625.35 511.34 625.61 509.66 624.96 508.07 C 626.56 505.97 626.67 503.35 626.72 500.83 C 627.67 500.33 628.63 499.83 629.61 499.34 C 629.55 498.10 629.51 496.85 629.48 495.62 C 633.52 490.81 638.45 486.79 642.13 481.68 C 643.52 481.62 644.93 481.57 646.34 481.53 C 648.06 479.93 649.76 478.31 651.50 476.72 C 656.67 475.64 661.85 474.62 667.03 473.57 C 671.14 473.56 675.39 474.02 679.13 475.85 C 682.72 477.82 684.80 481.54 687.25 484.68 C 687.54 488.44 689.69 491.61 691.73 494.66 C 692.19 494.63 693.12 494.57 693.59 494.54 C 695.88 491.76 698.51 489.10 699.70 485.61 C 700.38 484.89 701.10 484.20 701.82 483.50 C 703.92 480.49 706.33 477.46 709.79 475.97 Z" />
<path fill="#c0944d" opacity="1.00" d=" M 756.71 475.70 C 759.14 475.32 761.53 474.77 763.97 474.38 C 765.44 475.27 766.94 476.12 768.44 476.97 C 768.49 478.77 768.56 480.56 768.63 482.37 C 767.51 483.46 766.39 484.56 765.28 485.66 C 761.39 485.75 757.62 484.81 753.82 484.15 C 745.30 490.85 738.28 499.12 731.48 507.49 C 729.01 510.22 726.68 514.06 722.50 513.88 C 725.17 509.85 729.36 506.74 730.97 502.08 C 738.85 492.65 747.48 483.82 756.71 475.70 Z" />
<path fill="#c0944d" opacity="1.00" d=" M 738.94 509.85 C 740.98 509.45 743.00 508.93 745.07 508.65 C 746.74 509.10 748.24 510.01 749.81 510.76 C 749.28 513.31 749.07 516.20 747.18 518.19 C 745.58 519.32 743.66 519.88 741.89 520.66 C 740.09 519.66 738.15 518.83 736.67 517.37 C 737.35 514.84 738.32 512.40 738.94 509.85 Z" />
<path fill="#c0944d" opacity="1.00" d=" M 813.64 510.60 C 817.07 510.08 820.49 509.45 823.96 509.25 C 823.44 514.04 820.74 518.10 817.68 521.66 C 817.56 522.15 817.31 523.12 817.19 523.61 C 821.72 523.59 826.29 523.21 830.78 524.07 C 830.66 525.22 830.55 526.38 830.46 527.55 C 825.64 527.35 820.82 527.42 816.01 527.52 C 814.57 529.03 813.11 530.51 811.61 531.96 C 811.55 532.52 811.44 533.66 811.38 534.22 C 806.96 538.53 805.17 544.60 801.48 549.43 C 797.14 555.46 793.55 561.99 789.64 568.28 C 787.25 570.52 787.36 573.82 787.30 576.84 C 793.80 575.29 798.25 570.24 803.03 565.98 C 805.86 563.11 808.15 559.69 811.63 557.51 C 811.44 559.42 811.70 561.55 810.53 563.22 C 809.39 565.51 806.65 565.93 804.51 566.83 C 804.51 567.61 804.53 568.40 804.55 569.20 C 800.30 572.21 796.70 576.09 792.06 578.55 C 788.47 578.45 784.03 578.69 781.69 575.41 C 781.50 574.45 781.10 572.53 780.91 571.56 C 782.31 571.16 783.74 570.76 785.16 570.37 C 784.04 570.45 781.79 570.62 780.66 570.70 C 780.95 568.97 781.84 567.75 783.33 567.05 C 783.15 565.44 782.38 563.84 782.79 562.20 C 783.51 560.41 784.49 558.74 785.22 556.95 C 786.26 555.03 783.44 552.76 785.07 551.08 C 789.18 546.51 793.50 542.07 797.05 537.03 C 799.09 533.62 801.63 530.53 804.56 527.84 C 803.37 527.41 802.20 526.98 801.04 526.54 C 800.37 526.55 799.04 526.57 798.37 526.58 C 798.37 526.04 798.37 524.94 798.37 524.40 C 800.66 523.94 802.98 523.59 805.32 523.49 C 808.91 519.75 811.30 515.17 813.64 510.60 Z" />
<path fill="#c0944d" opacity="1.00" d=" M 767.74 520.51 C 772.09 517.90 774.68 512.24 780.39 512.37 C 780.84 512.78 781.72 513.59 782.16 513.99 C 782.31 516.07 782.85 518.08 784.11 519.78 C 784.73 524.39 786.45 528.80 786.74 533.47 C 785.33 533.86 783.92 534.53 782.45 534.41 C 781.31 533.43 780.35 532.28 779.36 531.19 C 779.36 529.45 779.35 527.73 779.32 526.00 C 777.91 525.41 776.63 524.59 775.64 523.46 C 771.74 524.02 768.44 526.10 766.00 529.13 C 762.29 530.89 758.34 532.17 754.92 534.48 C 752.89 534.51 750.86 534.53 748.85 534.52 C 749.40 529.82 754.62 529.50 757.68 527.11 C 760.89 524.69 764.33 522.63 767.74 520.51 Z" />
<path fill="#c0944d" opacity="1.00" d=" M 753.85 542.75 C 761.08 537.52 771.34 535.32 779.44 539.86 C 779.47 542.00 779.53 544.13 779.33 546.27 C 777.62 549.75 774.70 552.41 772.09 555.21 C 765.95 559.08 759.32 562.22 752.20 563.79 C 750.57 565.47 749.69 567.65 748.88 569.80 C 749.91 571.69 750.85 573.64 751.85 575.57 C 754.27 575.61 756.73 575.49 759.09 574.83 C 759.70 574.75 760.90 574.59 761.50 574.51 C 765.23 571.15 768.84 567.62 773.02 564.81 C 774.52 562.14 776.24 559.39 779.20 558.14 C 779.64 558.55 780.51 559.38 780.94 559.79 C 780.01 560.88 779.03 561.93 778.08 563.01 C 776.95 565.11 774.92 566.43 773.05 567.80 C 770.88 572.03 766.44 574.16 762.62 576.62 C 758.86 579.19 754.00 578.92 749.70 578.32 C 746.02 576.51 743.08 573.18 741.71 569.33 C 741.19 566.23 741.57 563.06 741.45 559.94 C 739.51 560.55 737.85 561.79 736.92 563.63 C 734.49 568.13 730.42 571.31 726.98 574.99 C 724.47 575.69 722.16 576.91 720.11 578.49 C 716.07 579.10 712.29 577.87 709.19 575.28 C 709.30 573.02 709.50 570.76 709.95 568.54 C 709.65 568.18 709.05 567.44 708.75 567.07 C 709.73 566.11 710.74 565.18 711.74 564.23 C 711.29 563.94 710.39 563.36 709.94 563.07 C 710.78 562.22 711.63 561.37 712.49 560.53 C 712.50 558.95 712.50 557.37 712.52 555.81 C 716.42 552.86 716.02 547.42 719.49 544.18 C 720.31 543.27 721.26 542.50 722.20 541.72 C 722.34 541.19 722.61 540.14 722.74 539.62 C 726.98 537.91 731.58 538.47 736.04 538.48 C 735.24 539.93 734.46 541.38 733.71 542.86 C 733.70 546.05 730.95 547.93 729.33 550.34 C 727.70 552.69 726.52 555.33 724.85 557.67 C 723.82 558.97 722.82 560.31 721.86 561.67 C 720.55 565.19 718.16 568.11 715.59 570.78 C 715.57 572.34 715.56 573.90 715.55 575.47 C 717.49 575.52 719.43 575.53 721.39 575.58 C 728.77 567.88 736.78 560.75 743.55 552.47 C 746.53 548.76 750.68 546.27 753.85 542.75 M 766.65 540.44 C 762.80 543.69 760.13 548.34 755.41 550.47 C 755.90 550.46 756.88 550.43 757.37 550.42 C 755.55 552.67 754.02 555.11 752.63 557.64 C 752.51 558.17 752.27 559.23 752.15 559.75 C 755.40 559.92 758.43 558.93 760.98 556.92 C 763.39 556.15 765.43 554.63 767.14 552.79 C 767.58 552.64 768.45 552.32 768.89 552.17 C 770.81 548.47 772.93 544.69 772.82 540.39 C 770.75 540.40 768.70 540.45 766.65 540.44 Z" />
<path fill="#c0944d" opacity="1.00" d=" M 742.23 595.78 C 742.82 593.10 744.22 590.74 745.81 588.55 C 747.63 588.51 749.46 588.45 751.30 588.39 C 752.05 589.13 752.81 589.87 753.58 590.62 C 753.58 592.55 753.52 594.48 753.55 596.43 C 751.01 598.46 748.00 599.78 744.71 599.77 C 743.89 598.43 743.06 597.09 742.23 595.78 Z" />
<path fill="#c0944d" opacity="1.00" d=" M 576.17 628.89 C 583.32 625.22 591.45 626.82 599.15 626.58 C 604.59 630.01 610.90 632.10 615.31 637.02 C 615.43 637.97 615.56 638.94 615.70 639.92 C 616.61 641.82 617.40 643.78 618.19 645.75 C 618.60 649.85 618.35 654.00 619.04 658.08 C 617.96 664.99 618.84 672.01 618.53 678.97 C 618.15 689.98 620.24 701.72 614.85 711.89 C 611.35 717.12 605.55 719.73 600.03 722.23 C 592.72 724.45 585.01 723.82 577.86 721.35 C 574.19 719.31 570.54 717.20 567.39 714.40 C 567.38 713.77 567.39 713.15 567.40 712.53 C 566.16 711.02 564.91 709.51 563.71 707.98 C 564.29 707.59 565.43 706.80 566.00 706.40 C 565.44 706.47 564.32 706.61 563.76 706.67 C 563.49 704.89 562.95 703.20 562.26 701.56 C 562.66 701.40 563.46 701.08 563.86 700.92 C 563.51 700.62 562.81 700.01 562.46 699.71 C 562.83 695.72 561.48 691.77 562.12 687.83 C 561.96 687.43 561.62 686.64 561.46 686.25 C 562.14 684.73 562.55 683.10 562.51 681.43 C 562.49 674.78 562.52 668.14 562.39 661.49 C 563.66 661.30 564.97 661.14 566.26 660.94 C 565.17 660.78 562.99 660.45 561.90 660.29 C 562.82 659.25 563.80 658.27 564.76 657.27 C 564.19 657.39 563.06 657.63 562.50 657.75 C 562.65 653.22 561.83 648.53 563.33 644.16 C 563.42 643.27 563.51 642.40 563.62 641.53 C 565.65 639.17 566.82 636.24 568.66 633.76 C 571.00 631.89 573.72 630.59 576.17 628.89 M 586.56 644.40 C 584.84 649.78 585.65 655.45 585.47 660.99 C 585.50 674.66 585.33 688.32 585.55 701.99 C 586.28 703.19 587.01 704.40 587.75 705.63 C 589.53 705.55 591.32 705.50 593.11 705.44 C 593.90 703.43 595.07 701.53 595.44 699.38 C 595.86 691.87 595.12 684.31 595.33 676.83 C 595.64 673.82 595.51 670.80 595.18 667.81 C 595.84 661.16 595.33 654.47 595.52 647.80 C 594.79 646.67 594.07 645.54 593.36 644.41 C 591.09 644.41 588.82 644.40 586.56 644.40 Z" />
<path fill="#c0944d" opacity="1.00" d=" M 794.01 626.68 C 799.89 626.32 805.79 625.87 811.68 626.33 C 818.73 628.78 826.58 631.98 830.02 639.14 C 831.05 642.05 832.49 644.90 832.71 648.04 C 832.97 651.37 832.54 654.72 832.97 658.05 C 832.50 663.98 832.27 670.06 833.16 675.96 C 831.88 680.57 833.04 685.33 832.69 690.02 C 832.27 695.38 833.28 700.98 831.32 706.14 C 830.49 708.31 828.89 710.06 827.45 711.86 C 827.46 712.43 827.49 713.56 827.50 714.13 C 825.77 715.28 824.09 716.52 822.39 717.71 C 822.41 718.81 822.45 719.91 822.50 721.03 C 824.08 723.70 825.71 726.36 827.61 728.83 C 827.43 730.20 827.72 731.75 826.97 733.00 C 821.33 733.76 815.64 734.40 809.95 734.51 C 809.17 733.45 808.41 732.41 807.65 731.37 C 807.49 728.41 805.71 725.99 804.23 723.56 C 801.14 722.62 797.92 722.33 794.70 722.49 C 792.46 721.33 790.20 720.21 788.00 718.98 C 784.16 716.90 781.55 713.31 778.51 710.29 C 778.47 709.66 778.44 709.03 778.43 708.42 C 777.58 706.85 776.74 705.26 775.94 703.69 C 776.87 703.07 777.87 702.49 778.84 701.91 C 778.08 701.69 776.55 701.26 775.79 701.04 C 774.82 692.40 775.62 683.67 775.30 675.01 C 775.91 664.30 774.50 653.48 776.65 642.89 C 777.08 642.67 777.93 642.22 778.36 641.99 C 777.73 636.81 782.40 633.71 785.84 630.75 C 788.84 630.02 791.61 628.61 794.01 626.68 M 800.53 644.32 C 799.82 647.06 799.30 649.85 799.42 652.70 C 799.58 659.44 799.25 666.19 799.65 672.93 C 799.58 681.64 799.26 690.39 799.54 699.12 C 799.70 701.49 800.35 704.38 802.81 705.40 C 805.33 706.61 806.94 703.93 808.59 702.54 C 808.66 701.94 808.81 700.75 808.88 700.15 C 809.87 694.20 809.65 688.04 809.09 682.06 C 807.87 678.37 809.93 674.67 809.10 670.97 C 808.95 669.92 808.74 668.90 808.90 667.86 C 810.08 660.07 809.51 652.16 808.44 644.40 C 805.85 643.55 803.10 643.21 800.53 644.32 Z" />
<path fill="#c0944d" opacity="1.00" d=" M 497.64 629.57 C 504.60 627.48 511.95 629.30 519.00 627.79 C 525.33 628.88 531.76 628.43 538.15 628.53 C 539.24 629.50 540.33 630.47 541.42 631.46 C 542.71 631.46 544.01 631.47 545.32 631.48 C 547.74 634.74 549.34 638.49 551.15 642.11 C 551.48 643.83 551.96 645.53 552.41 647.24 C 551.39 655.92 551.76 666.97 543.15 672.06 C 548.88 675.83 553.25 681.94 553.46 688.98 C 553.54 695.25 554.35 701.85 551.77 707.78 C 550.92 709.94 550.02 712.08 549.20 714.26 C 545.74 716.83 542.03 719.03 538.40 721.36 C 537.00 721.45 535.61 721.56 534.23 721.71 C 529.32 722.95 524.17 722.98 519.16 722.59 C 511.97 722.21 504.75 722.96 497.59 722.29 C 496.21 722.14 496.68 720.35 496.51 719.42 C 496.48 715.55 496.91 711.65 496.20 707.81 C 497.22 698.85 496.10 689.81 496.77 680.84 C 497.87 675.05 497.53 669.13 497.28 663.28 C 495.53 659.05 497.41 654.51 496.79 650.15 C 496.60 648.73 496.83 647.30 497.18 645.94 C 496.18 640.58 496.45 634.88 497.64 629.57 M 520.48 644.36 C 520.46 651.09 520.44 657.83 520.39 664.57 C 522.35 664.53 524.31 664.53 526.28 664.54 C 527.49 662.39 529.58 660.45 529.52 657.83 C 529.61 655.03 529.45 652.24 529.53 649.45 C 528.41 647.87 527.39 646.20 525.97 644.89 C 524.20 644.34 522.30 644.48 520.48 644.36 M 520.39 681.19 C 520.35 687.02 520.83 692.90 519.90 698.69 C 519.63 700.88 520.33 703.04 520.54 705.23 C 523.62 705.68 526.64 704.93 529.38 703.50 C 530.88 697.96 530.68 692.19 530.39 686.51 C 530.74 686.24 531.44 685.70 531.78 685.43 C 531.06 685.50 529.60 685.63 528.88 685.70 C 529.44 684.70 529.93 683.66 530.32 682.60 C 527.04 681.89 523.74 681.35 520.39 681.19 Z" />
<path fill="#c0944d" opacity="1.00" d=" M 851.12 627.76 C 855.47 627.49 859.87 627.16 864.22 627.83 C 865.54 639.31 862.22 650.78 864.14 662.25 C 864.84 669.45 864.23 676.71 864.50 683.94 C 864.70 687.32 863.86 690.63 863.71 693.99 C 863.96 697.14 864.63 700.25 865.42 703.31 C 866.04 703.66 867.29 704.36 867.92 704.71 C 869.81 704.52 871.68 704.15 873.50 703.59 C 873.41 701.33 873.54 699.05 874.30 696.91 C 874.64 693.33 874.57 689.71 873.79 686.19 C 873.22 683.91 874.61 681.83 875.42 679.81 C 875.04 679.36 874.28 678.47 873.90 678.02 C 874.22 677.66 874.86 676.93 875.18 676.57 C 873.60 670.82 875.04 664.78 874.12 658.93 C 874.97 652.64 873.91 646.32 874.44 640.02 C 874.73 637.16 873.65 634.42 873.57 631.60 C 873.93 629.87 875.45 628.68 876.46 627.29 C 883.48 628.48 890.70 626.56 897.64 628.36 C 897.59 630.57 897.49 632.78 897.59 635.00 C 898.71 644.63 899.00 654.48 897.61 664.11 C 897.44 665.52 897.87 666.90 898.27 668.25 C 898.01 680.16 899.62 692.26 896.84 703.97 C 895.56 710.20 891.58 716.03 885.75 718.79 C 882.47 720.32 879.10 721.66 875.93 723.41 C 871.48 723.66 867.06 723.17 862.68 722.54 C 862.28 722.32 861.50 721.89 861.10 721.68 C 860.27 721.65 858.59 721.59 857.76 721.56 C 856.97 720.85 856.19 720.16 855.42 719.47 C 854.76 719.47 853.46 719.49 852.81 719.49 C 852.25 719.15 851.12 718.46 850.56 718.12 C 850.47 717.50 850.31 716.26 850.22 715.65 C 849.59 715.65 848.32 715.64 847.68 715.64 C 846.12 713.92 844.71 712.08 843.42 710.17 C 843.44 709.56 843.50 708.33 843.52 707.71 C 842.86 706.95 842.20 706.19 841.56 705.44 C 840.07 694.42 840.53 683.29 840.53 672.20 C 840.66 661.48 840.26 650.76 840.69 640.06 C 841.46 636.24 839.93 632.31 840.42 628.42 C 843.98 628.49 847.62 628.70 851.12 627.76 Z" />
<path fill="#c0944d" opacity="1.00" d=" M 909.96 627.68 C 924.41 627.24 938.88 627.68 953.34 627.47 C 953.65 630.64 955.06 633.86 953.71 636.99 C 953.52 639.77 953.51 642.57 953.55 645.36 C 946.41 647.17 939.08 644.18 931.94 646.22 C 930.76 646.31 929.58 646.42 928.42 646.53 C 928.45 649.04 928.48 651.56 928.52 654.09 C 928.14 654.55 927.37 655.48 926.99 655.94 C 927.38 656.27 928.15 656.92 928.53 657.24 C 928.46 659.35 928.44 661.45 928.39 663.57 C 935.43 663.47 942.48 663.76 949.52 663.41 C 950.10 664.85 951.56 666.23 951.02 667.91 C 950.23 672.12 950.65 676.40 950.46 680.65 C 950.57 681.98 949.04 682.64 947.93 682.51 C 945.40 682.62 942.87 682.50 940.36 682.40 C 941.00 681.84 942.29 680.72 942.94 680.16 C 938.32 683.08 932.78 682.62 927.57 682.59 C 927.66 688.88 927.62 695.16 927.58 701.45 C 935.85 701.58 944.12 701.65 952.39 701.45 C 953.42 702.59 954.46 703.75 955.52 704.91 C 955.40 709.56 955.46 714.22 955.45 718.88 C 954.63 719.75 953.82 720.62 953.04 721.52 C 936.87 721.40 920.70 721.65 904.54 721.41 C 904.51 709.18 904.52 696.95 904.52 684.72 C 904.59 677.21 904.25 669.69 904.84 662.20 C 904.13 653.04 904.71 643.85 904.46 634.68 C 904.35 632.64 904.67 630.61 905.30 628.67 C 906.85 628.38 908.40 628.03 909.96 627.68 Z" />
<path fill="#c0944d" opacity="1.00" d=" M 627.45 628.45 C 633.80 628.28 640.34 629.28 646.51 627.36 C 649.35 629.69 650.62 633.21 650.45 636.85 C 648.35 641.68 650.39 646.84 650.35 651.84 C 647.85 657.16 651.81 662.82 649.68 668.14 C 649.55 673.45 649.22 678.81 650.01 684.09 C 649.44 690.89 648.59 698.09 651.11 704.61 C 653.13 704.58 655.17 704.57 657.21 704.56 C 657.91 703.46 658.63 702.38 659.37 701.31 C 660.04 696.85 661.34 692.18 659.55 687.80 C 660.62 681.59 660.67 675.27 660.32 669.00 C 659.95 664.02 660.69 659.03 660.25 654.06 C 658.44 645.95 661.16 637.70 659.49 629.61 C 660.82 627.91 663.17 628.64 665.04 628.45 C 671.22 628.90 677.61 626.98 683.57 629.40 C 683.54 638.27 683.22 647.16 683.81 656.02 C 683.31 662.05 685.05 668.07 683.86 674.05 C 683.40 676.69 683.60 679.37 684.01 682.01 C 683.46 683.53 683.86 685.02 684.56 686.42 C 684.29 686.79 683.74 687.52 683.47 687.89 C 683.63 694.01 683.86 700.20 682.28 706.18 C 680.41 710.08 678.57 714.25 674.80 716.71 C 671.42 719.82 667.03 721.27 663.02 723.35 C 656.71 723.80 650.30 723.50 644.16 721.97 C 643.79 721.64 643.06 721.00 642.69 720.68 C 642.28 720.61 641.44 720.46 641.02 720.39 C 638.21 718.48 634.77 717.21 632.86 714.25 C 631.08 711.65 629.04 709.20 627.72 706.33 C 627.34 702.98 627.31 699.60 626.67 696.28 C 625.88 691.39 627.59 686.22 625.58 681.54 C 625.84 681.22 626.37 680.59 626.64 680.27 C 626.62 679.39 626.60 677.64 626.59 676.77 C 626.12 676.09 625.65 675.41 625.19 674.74 C 625.98 674.09 626.77 673.44 627.58 672.80 C 627.41 672.03 627.25 671.26 627.10 670.51 C 628.18 670.20 629.26 669.90 630.35 669.59 C 629.37 669.57 627.43 669.53 626.46 669.51 C 626.66 660.22 626.43 650.92 626.52 641.63 C 626.63 637.23 625.96 632.70 627.45 628.45 Z" />
<path fill="#c0944d" opacity="1.00" d=" M 687.87 628.75 C 696.23 628.15 704.62 627.00 713.01 628.04 C 719.19 627.59 725.46 627.41 731.62 628.20 C 733.92 627.94 736.26 627.62 738.54 628.33 C 738.53 633.99 738.58 639.65 738.52 645.32 C 734.06 646.90 729.32 646.26 724.72 646.71 C 724.25 649.59 724.67 652.51 725.29 655.34 C 726.17 659.92 724.23 664.42 724.52 669.01 C 725.11 678.33 723.87 687.70 724.84 697.00 C 725.92 700.32 724.65 703.69 724.71 707.06 C 724.76 711.87 724.35 716.67 724.52 721.49 C 716.88 722.44 708.99 723.07 701.39 721.57 C 701.45 718.95 701.48 716.34 701.60 713.73 C 701.23 713.29 700.49 712.41 700.12 711.97 C 700.48 711.79 701.21 711.44 701.57 711.26 C 699.62 706.66 701.84 701.77 701.52 697.03 C 701.87 691.68 700.60 686.34 701.36 681.01 C 701.58 676.48 701.60 671.93 701.32 667.41 C 700.31 661.86 701.35 656.24 701.49 650.67 C 701.29 649.16 700.38 647.84 699.81 646.47 C 695.27 645.77 690.59 645.89 686.18 644.51 C 686.37 643.02 686.61 641.54 686.93 640.09 C 688.22 639.46 689.67 639.23 691.03 638.77 C 690.20 638.62 688.54 638.30 687.71 638.14 C 687.40 635.04 686.94 631.78 687.87 628.75 Z" />
<path fill="#c0944d" opacity="1.00" d=" M 743.45 628.82 C 750.81 628.26 758.11 627.14 765.51 627.46 C 766.60 629.13 767.72 630.90 767.46 633.01 C 767.51 650.35 767.39 667.70 767.48 685.04 C 767.67 688.71 766.29 692.31 766.85 695.98 C 767.48 699.00 766.19 702.05 766.91 705.06 C 767.73 709.36 767.63 713.78 767.37 718.13 C 767.30 720.12 765.64 721.56 764.13 722.62 C 763.30 722.33 761.63 721.77 760.80 721.48 C 759.50 721.75 758.21 722.05 756.93 722.38 C 754.99 722.38 753.06 722.35 751.14 722.30 C 748.96 721.69 746.72 721.49 744.48 721.42 C 743.76 719.35 743.47 717.17 743.64 715.00 C 744.70 710.09 742.62 704.88 744.26 699.95 C 743.98 698.62 743.72 697.30 743.50 695.98 C 743.89 694.96 744.65 693.96 744.27 692.81 C 742.52 684.16 744.47 675.26 743.05 666.56 C 743.94 660.64 743.43 654.64 743.56 648.67 C 743.51 642.05 743.61 635.44 743.45 628.82 Z" />
</g>
</svg>
