<?xml version="1.0" encoding="UTF-8"?>
<svg xmlns="http://www.w3.org/2000/svg" xmlns:xlink="http://www.w3.org/1999/xlink" width="100px" height="80px" viewBox="0 0 100 80" version="1.1">
<g id="surface1">
<path style=" stroke:none;fill-rule:evenodd;fill:rgb(100%,89.803922%,49.803922%);fill-opacity:1;" d="M 34.453125 3.984375 C 34.296875 4.15625 34.160156 4.8125 34.160156 5.390625 C 34.15625 6.058594 33.632812 6.890625 33.160156 6.972656 C 32.875 7.023438 32.917969 7.265625 33.214844 7.292969 C 33.480469 7.320312 33.480469 7.320312 33.519531 7.820312 C 33.542969 8.097656 33.585938 8.320312 33.621094 8.320312 C 33.652344 8.320312 33.714844 8.320312 33.753906 8.320312 C 33.796875 8.320312 33.847656 8.253906 33.875 8.175781 C 33.914062 8.050781 34.304688 7.761719 34.433594 7.761719 C 34.457031 7.761719 34.480469 9.179688 34.480469 10.914062 C 34.480469 14.257812 34.488281 14.328125 34.847656 13.992188 C 35.410156 13.464844 35.511719 12.910156 35.285156 11.5625 C 35.121094 10.589844 35.132812 10.324219 35.328125 10.488281 C 35.390625 10.539062 35.441406 10.648438 35.441406 10.730469 C 35.441406 11.171875 36.867188 14.230469 37.28125 14.679688 C 37.402344 14.8125 37.582031 15.074219 37.675781 15.261719 C 37.917969 15.75 39.308594 17.136719 39.800781 17.382812 C 40.242188 17.605469 40.957031 18.308594 40.964844 18.535156 C 41.035156 20.226562 41.304688 20.835938 42.167969 21.28125 C 42.476562 21.441406 42.757812 22.148438 43.074219 23.558594 C 43.144531 23.867188 43.289062 24.460938 43.398438 24.878906 C 43.917969 26.878906 43.683594 27.097656 41.027344 27.113281 C 38.898438 27.125 38.261719 27.386719 38.53125 28.152344 C 38.632812 28.441406 38.816406 28.449219 38.984375 28.167969 C 39.175781 27.839844 39.472656 27.773438 40.679688 27.769531 C 43.230469 27.765625 43.863281 27.609375 44.238281 26.886719 C 44.363281 26.648438 44.222656 24.929688 44.027344 24.238281 C 43.816406 23.515625 43.269531 21.917969 43.152344 21.691406 C 43.089844 21.574219 43.039062 21.449219 43.039062 21.40625 C 43.039062 21.367188 42.953125 21.222656 42.851562 21.085938 C 42.539062 20.675781 42.027344 19.59375 41.886719 19.039062 C 41.570312 17.820312 41.410156 17.550781 40.804688 17.242188 C 40.59375 17.132812 40.316406 16.90625 40.191406 16.734375 C 40.0625 16.5625 39.730469 16.175781 39.449219 15.871094 C 39.167969 15.570312 38.84375 15.175781 38.726562 14.996094 C 38.613281 14.820312 38.382812 14.496094 38.21875 14.277344 C 37.273438 13.035156 35.601562 9.742188 35.601562 9.117188 C 35.601562 9.042969 35.523438 8.773438 35.433594 8.511719 C 35.292969 8.121094 35.261719 7.832031 35.25 6.839844 C 35.238281 5.710938 35.222656 5.609375 35.015625 5.164062 C 34.671875 4.421875 35.039062 4.421875 35.839844 5.164062 C 35.992188 5.304688 36.371094 5.582031 36.679688 5.78125 C 36.988281 5.976562 37.3125 6.21875 37.398438 6.316406 C 37.488281 6.414062 37.667969 6.550781 37.800781 6.621094 C 37.933594 6.6875 38.363281 7 38.761719 7.3125 C 39.15625 7.625 39.625 7.976562 39.800781 8.089844 C 39.976562 8.207031 40.226562 8.40625 40.359375 8.535156 C 40.492188 8.660156 40.757812 8.890625 40.953125 9.039062 C 41.707031 9.625 41.8125 10.257812 41.867188 14.46875 C 41.890625 16.589844 41.976562 17.121094 42.28125 17.121094 C 42.472656 17.121094 42.496094 16.84375 42.574219 14.121094 C 42.707031 9.527344 42.617188 9.125 41.339844 8.347656 C 41.070312 8.183594 40.667969 7.902344 40.445312 7.722656 C 40.222656 7.539062 39.8125 7.230469 39.535156 7.035156 C 39.257812 6.839844 38.800781 6.515625 38.515625 6.316406 C 38.230469 6.113281 37.882812 5.839844 37.738281 5.703125 C 37.597656 5.570312 37.316406 5.359375 37.121094 5.238281 C 36.921875 5.117188 36.5625 4.863281 36.320312 4.675781 C 35.386719 3.957031 34.707031 3.703125 34.453125 3.984375 M 37.761719 7.230469 C 37.761719 7.289062 37.835938 7.433594 37.925781 7.546875 C 38.296875 8.023438 39.871094 11.070312 40.34375 12.238281 C 40.496094 12.613281 40.714844 13.125 40.828125 13.375 C 40.945312 13.625 41.042969 13.878906 41.042969 13.933594 C 41.050781 14.214844 41.359375 14.921875 41.488281 14.949219 C 41.917969 15.035156 41.097656 11.878906 40.242188 10.15625 C 39.5 8.660156 37.761719 6.609375 37.761719 7.230469 M 36.839844 16.558594 C 35.28125 16.847656 33.703125 18.269531 33.195312 19.839844 C 32.746094 21.222656 32.183594 22.171875 31.613281 22.503906 C 31.410156 22.625 31.1875 22.757812 31.121094 22.796875 C 31.054688 22.835938 30.566406 23.019531 30.039062 23.203125 C 28.777344 23.648438 27.441406 24.277344 27.441406 24.425781 C 27.441406 24.6875 27.800781 24.628906 28.875 24.191406 C 29.472656 23.949219 30.210938 23.675781 30.519531 23.589844 C 32.015625 23.160156 32.625 22.734375 33.097656 21.777344 C 33.449219 21.066406 33.519531 21.011719 33.519531 21.445312 C 33.519531 22.703125 31.683594 24.234375 29.695312 24.632812 C 29.460938 24.683594 29.164062 24.777344 29.035156 24.84375 C 28.902344 24.910156 28.757812 24.945312 28.714844 24.917969 C 28.503906 24.785156 25.425781 25.695312 24.679688 26.109375 C 23.859375 26.566406 24.109375 27.003906 24.949219 26.578125 C 25.109375 26.5 25.402344 26.386719 25.601562 26.332031 C 25.796875 26.277344 26.066406 26.191406 26.199219 26.144531 C 26.332031 26.097656 26.65625 26.035156 26.921875 26.003906 C 27.183594 25.972656 27.492188 25.90625 27.605469 25.859375 C 27.71875 25.8125 28.023438 25.75 28.285156 25.71875 C 28.546875 25.683594 28.851562 25.625 28.960938 25.582031 C 29.070312 25.542969 29.304688 25.476562 29.480469 25.441406 C 31.390625 25.03125 32.929688 24.101562 33.59375 22.953125 C 33.964844 22.308594 33.972656 22.308594 34.417969 23.199219 C 34.90625 24.1875 34.878906 24.558594 34.253906 25.222656 C 33.851562 25.652344 32.617188 25.769531 32 25.441406 C 31.667969 25.261719 30.78125 25.347656 30.503906 25.585938 C 30.105469 25.929688 30.0625 26.136719 29.992188 28.039062 C 29.882812 30.992188 29.746094 31.402344 28.6875 31.886719 C 27.976562 32.210938 26.355469 32.015625 24.800781 31.421875 C 24.691406 31.378906 24.292969 31.242188 23.921875 31.117188 C 23.316406 30.914062 22.992188 30.828125 21.601562 30.476562 C 21.402344 30.425781 21.042969 30.332031 20.800781 30.273438 C 19.832031 30.023438 16.527344 29.519531 15.886719 29.519531 C 14.773438 29.523438 15.066406 29.914062 16.320312 30.089844 C 16.871094 30.167969 17.542969 30.289062 17.816406 30.355469 C 18.089844 30.425781 18.410156 30.480469 18.53125 30.480469 C 18.734375 30.480469 19.101562 30.574219 20.039062 30.859375 C 20.261719 30.929688 20.585938 31.011719 20.761719 31.042969 C 20.9375 31.078125 21.835938 31.398438 22.761719 31.757812 C 23.683594 32.121094 24.710938 32.484375 25.039062 32.574219 C 25.371094 32.660156 25.855469 32.792969 26.121094 32.867188 C 26.480469 32.964844 26.929688 33 27.902344 33 C 28.972656 33 29.195312 33.019531 29.160156 33.109375 C 29.136719 33.171875 29.078125 33.386719 29.027344 33.589844 C 28.976562 33.792969 28.847656 34.15625 28.738281 34.398438 C 28.632812 34.640625 28.386719 35.214844 28.191406 35.671875 C 27.78125 36.640625 27.035156 38.078125 26.449219 39.023438 C 26.222656 39.386719 25.914062 39.894531 25.761719 40.148438 C 25.605469 40.402344 25.382812 40.726562 25.261719 40.871094 C 25.140625 41.015625 25.039062 41.160156 25.039062 41.195312 C 25.039062 41.230469 24.859375 41.503906 24.640625 41.800781 C 24.234375 42.347656 24.152344 42.558594 24.34375 42.558594 C 24.460938 42.558594 25.207031 41.757812 25.609375 41.199219 C 25.75 41.003906 26.042969 40.640625 26.257812 40.398438 C 26.476562 40.15625 26.710938 39.851562 26.777344 39.71875 C 26.847656 39.589844 27.019531 39.335938 27.160156 39.160156 C 27.300781 38.984375 27.484375 38.714844 27.566406 38.558594 C 27.648438 38.40625 27.769531 38.21875 27.828125 38.140625 C 28.195312 37.691406 29.28125 35.546875 29.621094 34.601562 C 29.734375 34.292969 29.917969 33.84375 30.03125 33.601562 C 30.144531 33.359375 30.238281 33.101562 30.238281 33.03125 C 30.238281 32.960938 30.3125 32.671875 30.40625 32.390625 C 30.59375 31.800781 30.960938 29.457031 30.960938 28.824219 C 30.960938 28.292969 31.011719 28.292969 31.535156 28.847656 C 32.597656 29.964844 33.28125 31.53125 33.28125 32.84375 L 33.28125 33.578125 L 32.59375 34.28125 C 32.21875 34.667969 31.855469 35.097656 31.785156 35.234375 C 31.71875 35.367188 31.578125 35.570312 31.476562 35.679688 C 31.078125 36.109375 29.902344 38.441406 29.511719 39.566406 C 28.996094 41.050781 28.253906 42.625 27.628906 43.558594 C 26.84375 44.726562 26.492188 45.164062 25.5625 46.117188 C 24.480469 47.230469 24.300781 47.523438 24.78125 47.402344 C 25.074219 47.328125 25.574219 46.917969 26.441406 46.039062 C 28.410156 44.039062 29.164062 42.8125 30.28125 39.800781 C 30.507812 39.179688 31.410156 37.328125 31.855469 36.558594 C 32.339844 35.726562 33.039062 34.742188 33.546875 34.183594 C 34.132812 33.539062 34.171875 32.929688 33.71875 31.59375 C 33.609375 31.273438 33.519531 30.96875 33.519531 30.914062 C 33.519531 30.824219 34.105469 30.40625 34.515625 30.199219 C 34.886719 30.011719 34.707031 29.882812 34.023438 29.839844 C 33.296875 29.796875 33.429688 29.875 32.28125 28.800781 C 30.894531 27.503906 30.800781 27.386719 30.800781 26.960938 C 30.800781 26.222656 31.535156 25.859375 32.277344 26.238281 C 33.265625 26.742188 34.484375 26.234375 34.996094 25.109375 L 35.203125 24.65625 L 35.847656 24.597656 C 36.832031 24.511719 38.210938 23.222656 37.972656 22.609375 C 37.894531 22.398438 37.816406 22.449219 37.046875 23.238281 C 36.089844 24.226562 35.886719 24.261719 35.320312 23.539062 C 34.226562 22.148438 33.8125 20.40625 34.308594 19.300781 C 34.5 18.878906 35.644531 17.679688 35.859375 17.679688 C 35.917969 17.679688 36.148438 17.554688 36.378906 17.398438 C 36.605469 17.246094 36.839844 17.117188 36.898438 17.117188 C 37.054688 17.113281 37.28125 16.917969 37.28125 16.78125 C 37.28125 16.59375 37.105469 16.507812 36.839844 16.558594 M 62.292969 26.898438 C 62.230469 27 62.050781 27.324219 61.886719 27.621094 C 61.675781 28.007812 61.46875 28.253906 61.15625 28.492188 C 60.5625 28.9375 60.609375 29.1875 61.238281 28.925781 C 62.125 28.554688 62.847656 27.898438 62.992188 27.328125 C 63.113281 26.839844 62.542969 26.492188 62.292969 26.898438 M 69.484375 29.417969 C 68.671875 29.625 66.640625 31.234375 66.640625 31.667969 C 66.640625 31.71875 66.546875 31.949219 66.433594 32.179688 C 66.140625 32.78125 65.894531 34.050781 66.082031 33.984375 C 66.179688 33.953125 66.257812 33.722656 66.507812 32.761719 C 66.960938 31.011719 69.007812 29.566406 70.835938 29.707031 C 71.757812 29.777344 71.789062 29.976562 70.921875 30.242188 C 68 31.136719 66.507812 34.925781 68.648438 36.003906 C 69.140625 36.253906 70.070312 36.292969 70.207031 36.070312 C 70.230469 36.03125 70.335938 36 70.441406 36 C 71.140625 36 72.671875 34.433594 72.835938 33.542969 C 72.867188 33.378906 72.949219 33.140625 73.015625 33.011719 C 73.222656 32.609375 73.183594 31.589844 72.933594 30.875 C 72.671875 30.125 72.664062 30.191406 73.019531 30.132812 C 73.808594 30.007812 75.035156 30.265625 75.738281 30.707031 C 76.167969 30.972656 76.179688 30.917969 75.535156 31.613281 C 75.015625 32.175781 74.238281 33.152344 74.238281 33.246094 C 74.238281 33.269531 74.082031 33.515625 73.890625 33.785156 C 73.554688 34.261719 73.433594 34.46875 72.8125 35.601562 C 71.332031 38.316406 70.410156 38.996094 68.761719 38.597656 C 67.484375 38.289062 66.441406 38.59375 67.101562 39.078125 C 67.402344 39.300781 72.015625 39.296875 72.980469 39.078125 C 75.8125 38.429688 77.785156 35.953125 77.566406 33.320312 C 77.5 32.496094 77.359375 31.972656 77.140625 31.742188 C 76.742188 31.316406 76.804688 30.945312 77.347656 30.554688 C 77.855469 30.183594 77.976562 30.023438 77.851562 29.898438 C 77.785156 29.832031 77.398438 30.023438 76.550781 30.539062 C 76.355469 30.660156 76.324219 30.65625 75.871094 30.382812 C 75.023438 29.875 74.515625 29.757812 73.023438 29.730469 C 71.804688 29.710938 71.6875 29.695312 71.480469 29.535156 C 71.261719 29.363281 69.992188 29.289062 69.484375 29.417969 M 61.039062 29.90625 C 60.417969 30.222656 59.945312 30.511719 59.695312 30.730469 C 59.554688 30.855469 59.382812 30.960938 59.316406 30.960938 C 59.253906 30.960938 59.066406 31.09375 58.898438 31.261719 C 58.734375 31.425781 58.441406 31.667969 58.246094 31.800781 C 58.050781 31.933594 57.460938 32.464844 56.929688 32.984375 C 55.910156 33.980469 55.789062 34.042969 55.640625 33.605469 C 55.414062 32.921875 54.191406 32.238281 53.21875 32.242188 C 51.015625 32.257812 50.394531 35.046875 52.199219 36.808594 C 52.695312 37.296875 52.734375 37.445312 52.421875 37.605469 C 52.300781 37.664062 52.074219 37.808594 51.921875 37.925781 C 51.609375 38.164062 50.695312 38.640625 50.554688 38.640625 C 50.503906 38.640625 50.347656 38.695312 50.203125 38.765625 C 49.441406 39.125 47.390625 39.113281 46.480469 38.742188 C 44.382812 37.890625 44.53125 35.542969 46.746094 34.488281 C 47.195312 34.273438 48.117188 34.085938 48.480469 34.140625 C 49.886719 34.339844 50.289062 34.632812 50.363281 35.507812 C 50.457031 36.617188 49.605469 37.398438 48.183594 37.507812 C 47.453125 37.5625 47.210938 37.710938 47.699219 37.800781 C 49.933594 38.21875 51.691406 35.773438 50.238281 34.269531 C 49.585938 33.589844 47.769531 33.15625 47.347656 33.578125 C 47.292969 33.636719 47.15625 33.679688 47.042969 33.679688 C 45.976562 33.683594 44.628906 35.195312 44.574219 36.457031 C 44.519531 37.730469 44.933594 38.363281 46.230469 38.988281 L 46.898438 39.308594 L 48.269531 39.308594 C 49.75 39.3125 49.808594 39.300781 51.167969 38.742188 C 51.667969 38.535156 52.625 37.894531 52.761719 37.679688 C 52.839844 37.554688 53.226562 37.589844 53.441406 37.738281 C 53.828125 38.011719 54.445312 38.253906 54.859375 38.296875 C 55.394531 38.355469 55.503906 38.472656 55.367188 38.851562 C 55.246094 39.179688 55.257812 39.195312 55.609375 39.25 C 56.011719 39.3125 56.289062 39.171875 56.476562 38.804688 C 56.632812 38.496094 56.707031 38.445312 56.9375 38.472656 C 56.992188 38.480469 57.238281 38.394531 57.480469 38.28125 C 57.726562 38.171875 57.957031 38.078125 57.996094 38.078125 C 58.035156 38.078125 58.160156 37.964844 58.28125 37.824219 C 58.546875 37.511719 58.636719 37.609375 58.640625 38.222656 C 58.640625 39.5 59.871094 39.679688 61.015625 38.566406 C 61.277344 38.3125 61.414062 38.238281 61.628906 38.238281 C 62.179688 38.238281 63.027344 37.722656 63.035156 37.382812 C 63.042969 37.164062 62.863281 37.21875 62.480469 37.558594 C 62.257812 37.757812 62.042969 37.921875 62.003906 37.921875 C 61.964844 37.921875 61.871094 37.945312 61.792969 37.972656 C 61.621094 38.039062 61.65625 37.851562 61.960938 37.125 C 62.828125 35.070312 60.867188 34.78125 59.03125 36.699219 C 57.925781 37.851562 56.878906 38.472656 56.878906 37.972656 C 56.878906 37.746094 57.753906 35.945312 58.636719 34.359375 C 59.578125 32.664062 60.058594 31.914062 60.949219 30.71875 C 61.671875 29.757812 61.691406 29.578125 61.039062 29.90625 M 39.808594 30.898438 C 39.5625 31.394531 39.210938 32.074219 39.027344 32.414062 C 38.574219 33.25 38.648438 34.730469 39.199219 35.753906 C 39.242188 35.839844 39.28125 35.992188 39.28125 36.09375 C 39.28125 36.195312 39.480469 36.855469 39.726562 37.558594 C 40.800781 40.652344 40.980469 41.527344 40.964844 43.550781 C 40.949219 45.277344 40.664062 46.945312 40.109375 48.53125 C 39.992188 48.878906 39.867188 49.304688 39.835938 49.480469 C 39.800781 49.65625 39.683594 50.050781 39.574219 50.359375 C 39.464844 50.667969 39.351562 51.046875 39.320312 51.199219 C 39.289062 51.355469 39.164062 51.695312 39.039062 51.960938 C 38.917969 52.222656 38.757812 52.65625 38.683594 52.921875 C 38.609375 53.183594 38.5 53.472656 38.445312 53.558594 C 38.390625 53.648438 38.296875 53.863281 38.242188 54.039062 C 38.128906 54.394531 36.757812 57.308594 36.585938 57.558594 C 36.410156 57.820312 36.464844 57.914062 36.851562 58.019531 C 37.054688 58.074219 37.234375 58.15625 37.253906 58.203125 C 37.285156 58.289062 36.207031 59.992188 35.609375 60.800781 C 35.429688 61.042969 35.003906 61.660156 34.660156 62.171875 C 33.238281 64.3125 30.328125 67.164062 28.367188 68.335938 C 24.320312 70.753906 19.585938 71.492188 15.871094 70.273438 C 15.390625 70.117188 14.964844 69.957031 14.925781 69.914062 C 14.882812 69.875 14.789062 69.839844 14.714844 69.839844 C 14.554688 69.839844 13.421875 69.222656 12.816406 68.808594 C 12.582031 68.652344 12.273438 68.449219 12.128906 68.359375 C 11.492188 67.972656 9.226562 65.820312 8.894531 65.28125 C 8.828125 65.171875 8.5625 64.792969 8.304688 64.441406 C 7.484375 63.3125 7.082031 62.695312 6.558594 61.769531 C 6.027344 60.820312 5.820312 60.480469 5.71875 60.398438 C 5.570312 60.273438 5.5625 60 5.710938 60 C 5.84375 60 6.265625 60.167969 6.921875 60.480469 C 7.511719 60.761719 8.171875 60.960938 8.523438 60.960938 C 8.671875 60.960938 8.808594 60.992188 8.832031 61.03125 C 8.855469 61.066406 9.058594 61.121094 9.28125 61.152344 C 9.503906 61.183594 9.765625 61.238281 9.863281 61.273438 C 10.019531 61.335938 11.101562 61.472656 12.078125 61.554688 C 13.597656 61.683594 14.214844 61.679688 15.835938 61.523438 C 19.273438 61.195312 21.378906 61.507812 23.121094 62.601562 C 23.578125 62.886719 24.382812 63.28125 24.519531 63.28125 C 24.785156 63.28125 24.632812 62.972656 24.261719 62.757812 C 24.050781 62.636719 23.773438 62.441406 23.640625 62.320312 C 22.53125 61.320312 20.988281 60.804688 18.601562 60.640625 C 15.96875 60.457031 15.605469 60.292969 14.289062 58.71875 C 13.035156 57.214844 12.1875 55.5625 11.867188 54 C 11.847656 53.890625 11.765625 53.53125 11.695312 53.199219 C 11.589844 52.730469 11.558594 52.183594 11.558594 50.703125 C 11.558594 48.269531 11.460938 48.410156 12.878906 48.839844 C 13.121094 48.910156 13.519531 49.019531 13.761719 49.078125 C 14.441406 49.242188 15.046875 49.414062 15.429688 49.554688 C 15.621094 49.621094 15.835938 49.679688 15.902344 49.679688 C 16.695312 49.679688 17.597656 50.570312 17.875 51.628906 C 17.9375 51.871094 18.027344 52.140625 18.074219 52.230469 C 18.121094 52.316406 18.160156 52.460938 18.160156 52.546875 C 18.160156 52.960938 19.082031 54.792969 19.851562 55.90625 C 20.398438 56.699219 21.730469 58.035156 22.558594 58.625 C 22.933594 58.890625 23.347656 59.195312 23.480469 59.300781 C 23.882812 59.617188 24.800781 60.125 25.601562 60.476562 C 26.019531 60.660156 26.421875 60.84375 26.5 60.882812 C 26.890625 61.097656 26.777344 60.722656 26.351562 60.398438 C 26.152344 60.246094 25.855469 60.007812 25.691406 59.875 C 25.53125 59.738281 25.21875 59.507812 25 59.363281 C 24.78125 59.214844 24.472656 58.980469 24.320312 58.835938 C 24.164062 58.691406 23.824219 58.425781 23.558594 58.246094 C 21.613281 56.898438 19.726562 54.101562 19.410156 52.078125 C 19.386719 51.925781 19.332031 51.59375 19.289062 51.339844 C 19.148438 50.535156 19.09375 48.480469 19.191406 47.714844 C 19.242188 47.320312 19.335938 46.507812 19.402344 45.902344 C 19.46875 45.300781 19.558594 44.632812 19.601562 44.421875 C 19.644531 44.210938 19.703125 43.933594 19.730469 43.800781 C 19.832031 43.308594 20.042969 43.292969 20.722656 43.722656 C 20.914062 43.84375 21.234375 44.035156 21.4375 44.152344 C 21.957031 44.445312 22.652344 44.929688 23.226562 45.40625 C 23.941406 45.992188 24.152344 46.121094 24.25 46.019531 C 24.609375 45.664062 21.308594 42.351562 19.851562 41.605469 C 19.15625 41.25 18.710938 41.417969 18.59375 42.078125 C 18.566406 42.234375 18.496094 42.472656 18.433594 42.613281 C 18.371094 42.75 18.320312 42.957031 18.320312 43.074219 C 18.320312 43.1875 18.285156 43.34375 18.242188 43.421875 C 18.121094 43.640625 17.863281 44.851562 17.796875 45.519531 C 17.773438 45.761719 17.714844 46.085938 17.671875 46.238281 C 17.628906 46.394531 17.570312 47.199219 17.539062 48.035156 C 17.472656 49.765625 17.464844 49.777344 16.902344 49.257812 C 15.625 48.082031 13.726562 47.292969 11.078125 46.835938 C 10.199219 46.683594 10.132812 46.6875 9.851562 46.949219 L 9.605469 47.179688 L 9.636719 48.570312 C 9.765625 54.421875 11.253906 57.878906 14.519531 59.9375 C 15.265625 60.40625 15.226562 60.425781 13.71875 60.375 C 11.558594 60.300781 9.484375 60.003906 8.621094 59.644531 C 8.460938 59.574219 8.269531 59.519531 8.203125 59.519531 C 8.140625 59.519531 7.894531 59.433594 7.664062 59.328125 C 7.429688 59.222656 7.148438 59.113281 7.039062 59.082031 C 6.539062 58.933594 4.832031 57.839844 4.121094 57.214844 C 3.941406 57.054688 3.792969 56.976562 3.746094 57.019531 C 3.570312 57.199219 4.113281 60.089844 4.617188 61.640625 C 4.730469 61.992188 4.929688 62.53125 5.058594 62.839844 C 5.183594 63.148438 5.320312 63.472656 5.355469 63.558594 C 6.863281 67.21875 9.847656 70.140625 13.160156 71.195312 C 13.601562 71.335938 14.105469 71.5 14.28125 71.5625 C 15.679688 72.054688 19.902344 71.945312 22.519531 71.351562 C 24.082031 70.996094 26.394531 70.167969 27.183594 69.683594 C 27.402344 69.550781 27.597656 69.441406 27.625 69.441406 C 27.699219 69.441406 28.953125 68.664062 29.269531 68.421875 C 29.429688 68.300781 29.761719 68.070312 30.007812 67.910156 C 30.851562 67.363281 34.878906 63.269531 34.878906 62.960938 C 34.878906 62.917969 35.035156 62.710938 35.222656 62.5 C 35.90625 61.730469 38.320312 57.824219 38.320312 57.484375 C 38.320312 57.414062 38.230469 57.320312 38.117188 57.277344 C 37.757812 57.140625 37.832031 56.761719 38.5625 55.039062 C 38.792969 54.496094 40.03125 51.332031 40.316406 50.558594 C 40.453125 50.1875 40.613281 49.773438 40.671875 49.640625 C 40.84375 49.242188 40.972656 48.863281 41.082031 48.410156 C 41.199219 47.941406 41.296875 47.792969 41.433594 47.875 C 41.546875 47.945312 41.550781 52.109375 41.4375 52.996094 C 41.390625 53.351562 41.304688 54.070312 41.238281 54.601562 C 41.175781 55.128906 41.085938 55.738281 41.042969 55.960938 C 41 56.179688 40.921875 56.628906 40.871094 56.960938 C 40.816406 57.289062 40.707031 57.730469 40.628906 57.941406 C 40.546875 58.152344 40.480469 58.417969 40.480469 58.527344 C 40.480469 58.640625 40.414062 58.898438 40.332031 59.105469 C 40.109375 59.675781 39.921875 60.285156 39.921875 60.441406 C 39.921875 60.515625 39.832031 60.78125 39.722656 61.03125 C 39.613281 61.277344 39.359375 61.910156 39.15625 62.441406 C 38.445312 64.292969 36.644531 67.660156 35.757812 68.800781 C 35.640625 68.953125 35.425781 69.285156 35.28125 69.539062 L 35.023438 70 L 35.226562 70 C 35.441406 70 35.878906 69.5 36.566406 68.480469 C 36.757812 68.195312 37.050781 67.796875 37.214844 67.59375 C 37.382812 67.394531 37.519531 67.199219 37.519531 67.164062 C 37.519531 67.128906 37.679688 66.859375 37.878906 66.5625 C 38.074219 66.269531 38.261719 65.957031 38.289062 65.871094 C 38.320312 65.789062 38.417969 65.617188 38.503906 65.492188 C 38.589844 65.371094 38.765625 65.046875 38.898438 64.773438 C 39.03125 64.503906 39.203125 64.1875 39.285156 64.074219 C 39.363281 63.960938 39.613281 63.441406 39.839844 62.914062 C 40.066406 62.390625 40.335938 61.757812 40.445312 61.511719 C 40.550781 61.261719 40.640625 61.003906 40.640625 60.933594 C 40.640625 60.867188 40.671875 60.789062 40.707031 60.765625 C 40.800781 60.710938 41.261719 59.375 41.363281 58.878906 C 41.394531 58.726562 41.519531 58.238281 41.636719 57.800781 C 41.753906 57.359375 41.882812 56.820312 41.921875 56.601562 C 41.957031 56.378906 42.046875 55.875 42.117188 55.480469 C 42.296875 54.480469 42.375 50.707031 42.238281 49.71875 C 42.183594 49.324219 42.128906 48.875 42.117188 48.71875 C 42.101562 48.566406 42.039062 48.242188 41.976562 48 C 41.703125 46.980469 41.652344 46.160156 41.757812 44.5625 C 41.960938 41.492188 41.707031 40.015625 40.589844 37.71875 C 40.113281 36.746094 39.875 36.160156 39.753906 35.660156 C 39.703125 35.449219 39.628906 35.257812 39.589844 35.234375 C 39.550781 35.210938 39.519531 35.09375 39.519531 34.976562 C 39.519531 34.855469 39.464844 34.589844 39.402344 34.378906 C 39.144531 33.527344 39.402344 32.570312 40.078125 31.878906 C 40.730469 31.210938 40.902344 30.367188 40.449219 30.0625 C 40.289062 29.953125 40.257812 29.992188 39.808594 30.898438 M 72.546875 30.878906 C 73.558594 32.832031 71.679688 35.839844 69.488281 35.78125 C 67.34375 35.722656 68.777344 31.863281 71.421875 30.578125 C 72.136719 30.230469 72.21875 30.25 72.546875 30.878906 M 60.398438 30.710938 C 60.398438 30.746094 60.128906 31.082031 59.796875 31.449219 C 59.464844 31.816406 59.132812 32.226562 59.0625 32.359375 C 58.992188 32.492188 58.820312 32.742188 58.679688 32.921875 C 58.261719 33.441406 57.507812 34.613281 56.921875 35.660156 C 56.332031 36.703125 56.261719 36.777344 56.1875 36.402344 C 56.117188 36.054688 56 36.1875 56 36.613281 C 56 36.960938 55.71875 38.046875 55.613281 38.113281 C 55.351562 38.273438 53.441406 37.527344 53.441406 37.261719 C 53.441406 37.1875 53.777344 36.769531 54.195312 36.339844 C 54.609375 35.910156 55.101562 35.371094 55.289062 35.140625 C 55.476562 34.910156 55.691406 34.71875 55.765625 34.71875 C 55.871094 34.71875 55.917969 34.816406 55.960938 35.140625 C 55.992188 35.371094 56.046875 35.613281 56.082031 35.675781 C 56.171875 35.84375 56.269531 35.121094 56.210938 34.699219 C 56.183594 34.492188 56.203125 34.292969 56.261719 34.1875 C 56.398438 33.945312 58.847656 31.441406 58.945312 31.441406 C 58.992188 31.441406 59.136719 31.347656 59.273438 31.234375 C 59.734375 30.84375 60.398438 30.535156 60.398438 30.710938 M 76.695312 31.621094 C 76.785156 31.71875 76.878906 31.871094 76.90625 31.960938 C 76.929688 32.046875 77.023438 32.332031 77.117188 32.59375 C 77.472656 33.613281 77.183594 35.332031 76.503906 36.226562 C 76.359375 36.417969 76.238281 36.621094 76.238281 36.679688 C 76.238281 36.820312 75.1875 37.789062 74.816406 37.992188 C 73.652344 38.621094 73.210938 38.753906 71.890625 38.871094 C 70.667969 38.980469 70.519531 38.898438 71.21875 38.492188 C 72.355469 37.835938 73.675781 36.15625 74.847656 33.878906 C 75.140625 33.308594 75.476562 32.714844 75.59375 32.558594 C 75.710938 32.40625 75.875 32.171875 75.953125 32.039062 C 76.125 31.757812 76.40625 31.441406 76.480469 31.441406 C 76.507812 31.441406 76.605469 31.519531 76.695312 31.621094 M 54.125 32.84375 C 54.527344 32.949219 54.679688 33.042969 55.101562 33.460938 C 55.835938 34.1875 55.835938 34.179688 54.675781 35.382812 C 54.238281 35.832031 53.726562 36.375 53.535156 36.582031 C 53.074219 37.089844 52.914062 37.078125 52.441406 36.523438 C 50.9375 34.765625 52.058594 32.308594 54.125 32.84375 M 85.441406 32.9375 C 85.175781 33.273438 85.242188 33.710938 85.5625 33.742188 C 86.109375 33.796875 86.476562 33.132812 86.0625 32.84375 C 85.804688 32.664062 85.636719 32.691406 85.441406 32.9375 M 79.9375 33.054688 C 79.753906 33.238281 79.828125 33.683594 80.117188 34.148438 C 80.839844 35.324219 81.585938 35.703125 81.046875 34.625 C 80.867188 34.269531 80.800781 34.023438 80.800781 33.726562 C 80.800781 33.078125 80.300781 32.691406 79.9375 33.054688 M 33.867188 34.367188 C 33.699219 34.574219 33.40625 34.917969 33.21875 35.132812 C 33.035156 35.347656 32.8125 35.65625 32.730469 35.820312 C 32.644531 35.984375 32.496094 36.191406 32.398438 36.28125 C 32.042969 36.601562 31.125 38.691406 30.804688 39.921875 C 30.707031 40.292969 30.574219 40.773438 30.511719 40.988281 C 30.449219 41.203125 30.398438 41.460938 30.398438 41.558594 C 30.398438 41.660156 30.351562 41.863281 30.292969 42.011719 C 30.230469 42.160156 30.136719 42.566406 30.085938 42.921875 C 29.984375 43.566406 29.789062 44.460938 29.523438 45.480469 C 29.441406 45.789062 29.351562 46.164062 29.320312 46.320312 C 29.289062 46.472656 29.144531 46.960938 29 47.398438 C 28.855469 47.839844 28.648438 48.488281 28.535156 48.839844 C 28.222656 49.832031 27.300781 51.902344 26.949219 52.414062 C 26.867188 52.527344 26.800781 52.671875 26.800781 52.734375 C 26.800781 52.792969 26.726562 52.886719 26.640625 52.941406 C 26.457031 53.054688 26.425781 53.402344 26.589844 53.464844 C 26.710938 53.511719 26.878906 53.378906 26.878906 53.234375 C 26.878906 53.183594 26.972656 53.039062 27.082031 52.910156 C 27.195312 52.785156 27.3125 52.644531 27.34375 52.601562 C 27.375 52.554688 27.511719 52.375 27.648438 52.199219 C 28.484375 51.109375 29.328125 49.375 30.066406 47.238281 C 30.355469 46.398438 30.859375 44.515625 31 43.761719 C 31.058594 43.429688 31.144531 42.996094 31.191406 42.800781 C 31.234375 42.601562 31.308594 42.1875 31.355469 41.878906 C 31.449219 41.234375 31.488281 41.058594 31.867188 39.640625 C 32.320312 37.957031 32.519531 37.449219 33.269531 36.121094 C 33.863281 35.066406 33.835938 35.109375 34.1875 34.691406 C 34.355469 34.488281 34.480469 34.265625 34.464844 34.183594 C 34.414062 33.914062 34.179688 33.984375 33.867188 34.367188 M 79.519531 35.472656 C 79.367188 35.53125 79.148438 35.613281 79.039062 35.660156 C 78.820312 35.75 78.351562 36.121094 77.722656 36.710938 L 77.324219 37.078125 L 77.34375 37.761719 C 77.390625 39.300781 78.273438 39.714844 79.34375 38.695312 C 79.617188 38.433594 79.753906 38.472656 79.757812 38.8125 C 79.761719 39.0625 79.992188 39.199219 80.414062 39.199219 C 80.8125 39.199219 82.160156 38.105469 82.160156 37.777344 C 82.160156 37.597656 82.027344 37.679688 81.417969 38.234375 C 80.820312 38.78125 80.554688 38.9375 80.402344 38.839844 C 80.210938 38.722656 80.335938 38.488281 81.632812 36.464844 C 82.167969 35.632812 82.199219 35.441406 81.804688 35.441406 C 81.605469 35.441406 81.441406 35.511719 81.242188 35.6875 L 80.960938 35.933594 L 80.691406 35.648438 C 80.390625 35.324219 80.046875 35.273438 79.519531 35.472656 M 83.550781 35.945312 C 82.9375 36.5625 82.675781 37.035156 83.007812 36.90625 C 83.1875 36.835938 83.097656 37.121094 82.792969 37.605469 C 82.292969 38.398438 82.523438 39.117188 83.289062 39.179688 L 83.726562 39.21875 L 84.246094 38.746094 C 84.972656 38.085938 85.441406 37.566406 85.441406 37.410156 C 85.441406 37.199219 85.371094 37.25 84.828125 37.832031 C 84.042969 38.683594 83.027344 39.183594 83.15625 38.660156 C 83.210938 38.433594 83.28125 38.320312 84.285156 36.71875 C 85.085938 35.445312 85.085938 35.4375 84.503906 35.445312 C 84.042969 35.449219 84.039062 35.449219 83.550781 35.945312 M 61.523438 35.84375 C 61.96875 36.078125 61.621094 37.320312 60.894531 38.101562 C 59.660156 39.433594 58.808594 39.113281 59.554688 37.601562 C 60.242188 36.207031 60.980469 35.550781 61.523438 35.84375 M 80.542969 36.179688 C 80.566406 36.496094 80.527344 36.617188 80.324219 36.914062 C 80.191406 37.109375 80.078125 37.308594 80.078125 37.359375 C 80.078125 37.71875 78.699219 38.824219 78.300781 38.785156 L 78.039062 38.761719 L 78.066406 38.324219 C 78.132812 37.285156 79.398438 35.726562 80.136719 35.777344 L 80.519531 35.800781 L 80.542969 36.179688 M 59.320312 45.496094 C 58.046875 45.605469 56.359375 47.117188 56.121094 48.363281 C 55.921875 49.417969 55.996094 49.828125 56.480469 50.351562 L 56.789062 50.679688 L 57.46875 50.707031 C 58.898438 50.765625 60.121094 49.539062 60.222656 47.945312 C 60.285156 46.941406 60.09375 47.0625 59.585938 48.347656 C 58.785156 50.363281 56.238281 50.855469 56.238281 48.992188 C 56.238281 47.964844 57.386719 46.53125 58.582031 46.058594 C 59.609375 45.65625 60.109375 45.859375 60.730469 46.941406 C 61.027344 47.457031 61.378906 47.734375 61.824219 47.804688 C 62.136719 47.855469 62.265625 48.003906 62.089844 48.113281 C 62.050781 48.136719 61.941406 48.382812 61.84375 48.660156 C 61.746094 48.933594 61.621094 49.269531 61.5625 49.398438 C 61.398438 49.769531 61.265625 50.167969 61.199219 50.519531 C 61.125 50.882812 60.675781 52.167969 60.421875 52.734375 C 60.332031 52.9375 60.230469 53.1875 60.199219 53.285156 C 60.167969 53.382812 60.039062 53.640625 59.910156 53.855469 C 59.785156 54.070312 59.679688 54.265625 59.679688 54.289062 C 59.679688 54.3125 59.570312 54.488281 59.441406 54.679688 C 59.019531 55.289062 59.214844 55.476562 59.851562 55.074219 C 60.492188 54.667969 62.664062 52.457031 64.058594 50.792969 C 64.328125 50.46875 64.667969 50.074219 64.808594 49.921875 C 64.945312 49.765625 65.140625 49.515625 65.242188 49.359375 C 65.484375 48.980469 66.640625 47.679688 67.320312 47.019531 C 67.894531 46.457031 68.140625 46.371094 68.601562 46.554688 C 68.882812 46.671875 69.273438 46.363281 69.277344 46.023438 C 69.285156 45.578125 68.726562 45.394531 68.246094 45.6875 C 67.867188 45.917969 66.195312 47.566406 65.898438 48 C 65.761719 48.199219 65.339844 48.71875 64.960938 49.160156 C 64.582031 49.601562 64.183594 50.085938 64.078125 50.238281 C 63.863281 50.542969 62.601562 51.964844 62.003906 52.574219 C 61.804688 52.777344 61.375 53.21875 61.054688 53.554688 C 60.730469 53.886719 60.429688 54.160156 60.390625 54.160156 C 60.296875 54.160156 60.308594 54.136719 60.8125 53.378906 C 61.027344 53.058594 61.199219 52.777344 61.199219 52.753906 C 61.199219 52.726562 61.316406 52.503906 61.460938 52.253906 C 62.078125 51.191406 62.667969 49.636719 62.910156 48.441406 C 62.996094 48.015625 63.035156 47.953125 63.242188 47.890625 C 64.699219 47.441406 65.65625 46.214844 65.015625 45.613281 C 64.503906 45.136719 63.519531 45.695312 62.746094 46.898438 C 62.296875 47.601562 62.1875 47.601562 61.84375 46.886719 C 61.230469 45.621094 60.773438 45.367188 59.320312 45.496094 M 64.847656 45.957031 C 64.964844 46.429688 64.589844 46.929688 63.800781 47.351562 C 63.320312 47.605469 63.171875 47.582031 63.246094 47.261719 C 63.449219 46.324219 64.6875 45.316406 64.847656 45.957031 M 66.839844 48.785156 C 66.359375 49.117188 66.378906 49.679688 66.867188 49.679688 C 67.304688 49.679688 67.582031 49.132812 67.355469 48.714844 C 67.25 48.515625 67.222656 48.519531 66.839844 48.785156 M 73.839844 48.753906 C 73.636719 48.824219 73.503906 48.953125 73.355469 49.222656 C 73.074219 49.738281 72.808594 50 72.566406 50 C 72.304688 50.003906 72.121094 50.117188 72.195312 50.230469 C 72.226562 50.28125 72.320312 50.320312 72.40625 50.320312 C 72.742188 50.320312 72.3125 51.011719 71.300781 52.089844 C 70.683594 52.75 70.625 52.84375 70.878906 52.777344 C 70.96875 52.753906 71.039062 52.742188 71.039062 52.746094 C 71.039062 52.796875 70.707031 53.613281 70.597656 53.828125 C 70.28125 54.453125 70.59375 55.121094 71.203125 55.121094 C 71.636719 55.121094 73.171875 53.914062 73.3125 53.460938 C 73.417969 53.128906 73.15625 53.261719 72.566406 53.832031 C 71.742188 54.636719 71.53125 54.800781 71.3125 54.800781 C 71.074219 54.800781 71.054688 54.5 71.265625 54.105469 C 71.53125 53.605469 71.953125 52.910156 72.273438 52.441406 C 72.453125 52.179688 72.707031 51.777344 72.839844 51.550781 C 72.972656 51.324219 73.199219 50.953125 73.347656 50.730469 L 73.613281 50.320312 L 74.371094 50.320312 C 75.050781 50.320312 75.128906 50.304688 75.105469 50.179688 C 75.082031 50.0625 74.972656 50.035156 74.460938 50.015625 C 73.75 49.988281 73.707031 49.929688 74.082031 49.511719 C 74.617188 48.90625 74.496094 48.519531 73.839844 48.753906 M 69.734375 49.308594 C 69.390625 49.667969 67.785156 50.71875 67.582031 50.71875 C 67.472656 50.71875 67.515625 51.042969 67.628906 51.085938 C 67.742188 51.128906 68.835938 50.628906 69.398438 50.277344 C 69.863281 49.988281 70.082031 50.039062 70.289062 50.484375 C 70.71875 51.386719 71.09375 51.171875 70.804688 50.183594 C 70.429688 48.90625 70.253906 48.765625 69.734375 49.308594 M 68.878906 51.347656 C 68.277344 51.585938 67.824219 51.910156 67.257812 52.507812 L 66.710938 53.078125 L 66.800781 53.601562 C 66.847656 53.886719 66.90625 54.203125 66.925781 54.300781 C 67.054688 54.921875 67.910156 55.351562 68.484375 55.089844 C 69.175781 54.769531 70.398438 53.636719 70.398438 53.3125 C 70.398438 53.125 70.335938 53.171875 69.5 53.960938 C 69.054688 54.378906 68.628906 54.71875 68.550781 54.71875 C 68.472656 54.71875 68.316406 54.761719 68.207031 54.8125 C 67.972656 54.917969 67.820312 54.828125 67.636719 54.46875 C 67.457031 54.125 67.59375 53.882812 68.054688 53.71875 C 69.613281 53.164062 70.28125 52.574219 70.222656 51.804688 C 70.199219 51.492188 70.183594 51.476562 69.800781 51.347656 C 69.296875 51.179688 69.3125 51.179688 68.878906 51.347656 M 64.863281 51.910156 C 64.488281 52.285156 64.332031 52.496094 64.363281 52.585938 C 64.429688 52.753906 64.324219 52.9375 64.238281 52.800781 C 64.195312 52.730469 64.164062 52.726562 64.125 52.792969 C 64.09375 52.839844 64.113281 52.878906 64.160156 52.878906 C 64.28125 52.878906 64.191406 53.300781 63.976562 53.71875 C 63.472656 54.71875 64.15625 55.460938 65.101562 54.941406 C 65.644531 54.644531 66.480469 53.78125 66.480469 53.523438 C 66.480469 53.332031 66.273438 53.476562 65.625 54.121094 C 65.035156 54.703125 64.898438 54.800781 64.667969 54.800781 C 64.214844 54.800781 64.414062 54.285156 65.460938 52.753906 C 66.292969 51.539062 66.335938 51.359375 65.785156 51.359375 C 65.429688 51.359375 65.386719 51.386719 64.863281 51.910156 M 69.636719 51.570312 C 70.199219 51.785156 68.664062 53.441406 67.902344 53.441406 C 67.433594 53.441406 68.648438 51.78125 69.246094 51.601562 C 69.375 51.566406 69.484375 51.53125 69.492188 51.527344 C 69.5 51.523438 69.566406 51.542969 69.636719 51.570312 M 67.132812 56.265625 C 66.925781 56.484375 66.902344 56.917969 67.085938 57.023438 C 67.527344 57.269531 68.171875 56.523438 67.824219 56.175781 C 67.667969 56.019531 67.320312 56.066406 67.132812 56.265625 M 72.398438 59.597656 C 71.039062 59.699219 70.316406 60.308594 70.085938 61.558594 C 69.957031 62.269531 69.972656 65.996094 70.113281 66.660156 C 70.273438 67.425781 70.871094 68.234375 71.292969 68.242188 C 71.351562 68.242188 71.46875 68.296875 71.554688 68.363281 C 71.640625 68.425781 71.855469 68.480469 72.035156 68.480469 C 72.585938 68.484375 72.695312 68.546875 72.875 68.964844 C 73.085938 69.457031 73.207031 69.519531 73.949219 69.519531 C 74.894531 69.519531 75 69.394531 74.558594 68.789062 C 74.222656 68.320312 74.246094 68.132812 74.714844 67.640625 C 75.28125 67.039062 75.292969 66.960938 75.265625 63.933594 L 75.238281 61.320312 L 75.019531 60.878906 C 74.730469 60.292969 73.359375 59.335938 73.097656 59.535156 C 73.089844 59.542969 72.773438 59.570312 72.398438 59.597656 M 51.640625 59.765625 C 51.195312 59.929688 50.546875 60.566406 50.339844 61.039062 C 50.171875 61.425781 50.097656 66.039062 50.246094 66.761719 C 50.382812 67.402344 50.800781 67.96875 51.367188 68.277344 C 52.542969 68.917969 54.648438 68.394531 55.050781 67.363281 C 55.535156 66.121094 55.476562 61.589844 54.964844 60.648438 C 54.492188 59.785156 52.796875 59.332031 51.640625 59.765625 M 67.277344 59.816406 C 67.039062 59.984375 67.027344 68.132812 67.265625 68.347656 C 67.496094 68.554688 68.820312 68.539062 69.035156 68.324219 C 69.199219 68.160156 69.210938 59.980469 69.046875 59.816406 C 68.925781 59.691406 67.453125 59.695312 67.277344 59.816406 M 76.199219 59.734375 C 76.140625 59.753906 76.125 60.902344 76.140625 63.242188 L 76.167969 66.71875 L 76.394531 67.21875 C 77.230469 69.066406 80.136719 69.03125 81.148438 67.160156 C 81.359375 66.765625 81.460938 60.308594 81.261719 59.929688 C 81.160156 59.738281 79.472656 59.621094 79.296875 59.792969 C 79.265625 59.828125 79.238281 61.375 79.238281 63.234375 C 79.238281 66.941406 79.246094 66.878906 78.765625 66.878906 C 78.171875 66.878906 78.1875 66.980469 78.167969 63.195312 C 78.160156 61.335938 78.136719 59.785156 78.113281 59.746094 C 78.074219 59.683594 76.375 59.671875 76.199219 59.734375 M 82.625 59.753906 C 82.058594 59.8125 82.078125 59.785156 82.152344 60.402344 C 82.183594 60.6875 82.203125 62.554688 82.191406 64.554688 C 82.179688 66.554688 82.199219 68.242188 82.234375 68.308594 C 82.324219 68.472656 86.5 68.496094 86.730469 68.335938 C 86.855469 68.246094 86.878906 68.125 86.878906 67.558594 C 86.878906 66.640625 86.851562 66.621094 85.441406 66.648438 C 84.179688 66.675781 84.242188 66.726562 84.242188 65.621094 L 84.238281 64.800781 L 84.820312 64.792969 C 85.140625 64.789062 85.585938 64.792969 85.8125 64.796875 C 86.351562 64.816406 86.414062 64.703125 86.382812 63.78125 L 86.359375 63.078125 L 85.40625 63.0625 C 84.144531 63.042969 84.230469 63.105469 84.257812 62.222656 L 84.28125 61.480469 L 85.4375 61.457031 C 86.226562 61.441406 86.613281 61.40625 86.652344 61.339844 C 86.78125 61.132812 86.71875 59.945312 86.574219 59.816406 C 86.433594 59.6875 83.671875 59.644531 82.625 59.753906 M 44.25 59.910156 C 44.109375 60.050781 44.101562 60.261719 44.121094 64.25 L 44.140625 68.441406 L 45.96875 68.4375 L 47.800781 68.433594 L 48.28125 68.152344 C 49.496094 67.4375 49.683594 64.914062 48.585938 64.121094 C 48.199219 63.84375 48.167969 63.75 48.417969 63.640625 C 49.414062 63.199219 49.285156 60.582031 48.238281 60 C 47.742188 59.722656 44.507812 59.652344 44.25 59.910156 M 56.253906 59.828125 C 56.171875 59.882812 56.15625 60.570312 56.175781 63.328125 L 56.199219 66.761719 L 56.394531 67.136719 C 57.359375 69.027344 60.382812 69.035156 61.171875 67.144531 C 61.378906 66.644531 61.464844 63.042969 61.332031 60.359375 L 61.304688 59.800781 L 59.28125 59.753906 L 59.277344 63.015625 C 59.269531 66.6875 59.253906 66.824219 58.8125 66.867188 C 58.222656 66.921875 58.238281 67.015625 58.238281 63.34375 C 58.238281 61.238281 58.210938 60.015625 58.15625 59.914062 C 58.066406 59.75 56.492188 59.675781 56.253906 59.828125 M 61.894531 59.8125 C 61.792969 59.914062 61.832031 61.265625 61.941406 61.335938 C 61.996094 61.371094 62.273438 61.417969 62.558594 61.441406 L 63.078125 61.480469 L 63.101562 64.929688 L 63.121094 68.382812 L 63.300781 68.429688 C 63.648438 68.523438 64.925781 68.484375 65.070312 68.375 C 65.203125 68.277344 65.214844 68.03125 65.226562 64.875 L 65.238281 61.480469 L 66.441406 61.398438 L 66.464844 60.648438 C 66.480469 60.097656 66.457031 59.875 66.382812 59.828125 C 66.261719 59.75 61.96875 59.734375 61.894531 59.8125 M 73.101562 61.300781 C 73.292969 61.457031 73.238281 66.601562 73.039062 66.800781 C 72.816406 67.023438 72.4375 67.007812 72.277344 66.769531 C 72.082031 66.46875 72.136719 61.394531 72.335938 61.246094 C 72.484375 61.140625 72.9375 61.171875 73.101562 61.300781 M 53.15625 61.4375 C 53.257812 61.632812 53.28125 62.078125 53.28125 64.089844 L 53.28125 66.503906 L 53.074219 66.773438 C 52.832031 67.09375 52.652344 67.109375 52.398438 66.835938 L 52.207031 66.632812 L 52.203125 64.050781 C 52.199219 61.164062 52.191406 61.199219 52.726562 61.199219 C 52.988281 61.199219 53.054688 61.238281 53.15625 61.4375 M 47.023438 61.519531 C 47.148438 61.761719 47.113281 62.816406 46.96875 62.988281 C 46.84375 63.140625 46.324219 63.234375 46.214844 63.128906 C 46.132812 63.042969 46.128906 61.472656 46.214844 61.339844 C 46.3125 61.179688 46.914062 61.316406 47.023438 61.519531 M 47.101562 64.941406 C 47.261719 65.304688 47.292969 66.582031 47.144531 66.730469 C 47.042969 66.828125 46.320312 66.96875 46.21875 66.90625 C 46.144531 66.863281 46.140625 64.765625 46.214844 64.691406 C 46.414062 64.492188 46.972656 64.648438 47.101562 64.941406 "/>
<path style=" stroke:none;fill-rule:evenodd;fill:rgb(6.27451%,6.27451%,6.27451%);fill-opacity:1;" d="M 0 40 L 0 80 L 100 80 L 100 0 L 0 0 L 0 40 M 35.410156 4.089844 C 35.667969 4.222656 36.078125 4.488281 36.320312 4.675781 C 36.5625 4.863281 36.921875 5.117188 37.121094 5.238281 C 37.316406 5.359375 37.597656 5.570312 37.738281 5.703125 C 37.882812 5.839844 38.230469 6.113281 38.515625 6.316406 C 38.800781 6.515625 39.257812 6.839844 39.535156 7.035156 C 39.8125 7.230469 40.222656 7.539062 40.445312 7.722656 C 40.667969 7.902344 41.070312 8.183594 41.339844 8.347656 C 42.617188 9.125 42.707031 9.527344 42.574219 14.121094 C 42.496094 16.84375 42.472656 17.121094 42.28125 17.121094 C 41.976562 17.121094 41.890625 16.589844 41.867188 14.46875 C 41.8125 10.257812 41.707031 9.625 40.953125 9.039062 C 40.757812 8.890625 40.492188 8.660156 40.359375 8.535156 C 40.226562 8.40625 39.976562 8.207031 39.800781 8.089844 C 39.625 7.976562 39.15625 7.625 38.761719 7.3125 C 38.363281 7 37.933594 6.6875 37.800781 6.621094 C 37.667969 6.550781 37.488281 6.414062 37.398438 6.316406 C 37.3125 6.21875 36.988281 5.976562 36.679688 5.78125 C 36.371094 5.582031 35.992188 5.304688 35.839844 5.164062 C 35.039062 4.421875 34.671875 4.421875 35.015625 5.164062 C 35.222656 5.609375 35.238281 5.710938 35.25 6.839844 C 35.261719 7.832031 35.292969 8.121094 35.433594 8.511719 C 35.523438 8.773438 35.601562 9.042969 35.601562 9.117188 C 35.601562 9.742188 37.273438 13.035156 38.21875 14.277344 C 38.382812 14.496094 38.613281 14.820312 38.726562 14.996094 C 38.84375 15.175781 39.167969 15.570312 39.449219 15.871094 C 39.730469 16.175781 40.0625 16.5625 40.191406 16.734375 C 40.316406 16.90625 40.59375 17.132812 40.804688 17.242188 C 41.410156 17.550781 41.570312 17.820312 41.886719 19.039062 C 42.027344 19.59375 42.539062 20.675781 42.851562 21.085938 C 42.953125 21.222656 43.039062 21.367188 43.039062 21.40625 C 43.039062 21.449219 43.089844 21.574219 43.152344 21.691406 C 43.269531 21.917969 43.816406 23.515625 44.027344 24.238281 C 44.222656 24.929688 44.363281 26.648438 44.238281 26.886719 C 43.863281 27.609375 43.230469 27.765625 40.679688 27.769531 C 39.472656 27.773438 39.175781 27.839844 38.984375 28.167969 C 38.816406 28.449219 38.632812 28.441406 38.53125 28.152344 C 38.261719 27.386719 38.898438 27.125 41.027344 27.113281 C 43.683594 27.097656 43.917969 26.878906 43.398438 24.878906 C 43.289062 24.460938 43.144531 23.867188 43.074219 23.558594 C 42.757812 22.148438 42.476562 21.441406 42.167969 21.28125 C 41.304688 20.835938 41.035156 20.226562 40.964844 18.535156 C 40.957031 18.308594 40.242188 17.605469 39.800781 17.382812 C 39.308594 17.136719 37.917969 15.75 37.675781 15.261719 C 37.582031 15.074219 37.402344 14.8125 37.28125 14.679688 C 36.867188 14.230469 35.441406 11.171875 35.441406 10.730469 C 35.441406 10.648438 35.390625 10.539062 35.328125 10.488281 C 35.132812 10.324219 35.121094 10.589844 35.285156 11.5625 C 35.511719 12.910156 35.410156 13.464844 34.847656 13.992188 C 34.488281 14.328125 34.480469 14.257812 34.480469 10.914062 C 34.480469 9.179688 34.457031 7.761719 34.433594 7.761719 C 34.304688 7.761719 33.914062 8.050781 33.875 8.175781 C 33.847656 8.253906 33.796875 8.320312 33.753906 8.320312 C 33.714844 8.320312 33.652344 8.320312 33.621094 8.320312 C 33.585938 8.320312 33.542969 8.097656 33.519531 7.820312 C 33.480469 7.320312 33.480469 7.320312 33.214844 7.292969 C 32.917969 7.265625 32.875 7.023438 33.160156 6.972656 C 33.632812 6.890625 34.15625 6.058594 34.160156 5.390625 C 34.164062 3.949219 34.492188 3.605469 35.410156 4.089844 M 38.371094 7.5 C 38.988281 8.140625 39.84375 9.351562 40.242188 10.15625 C 41.097656 11.878906 41.917969 15.035156 41.488281 14.949219 C 41.359375 14.921875 41.050781 14.214844 41.042969 13.933594 C 41.042969 13.878906 40.945312 13.625 40.828125 13.375 C 40.714844 13.125 40.496094 12.613281 40.34375 12.238281 C 39.871094 11.070312 38.296875 8.023438 37.925781 7.546875 C 37.507812 7.015625 37.863281 6.976562 38.371094 7.5 M 37.28125 16.78125 C 37.28125 16.917969 37.054688 17.113281 36.898438 17.117188 C 36.839844 17.117188 36.605469 17.246094 36.378906 17.398438 C 36.148438 17.554688 35.917969 17.679688 35.859375 17.679688 C 35.644531 17.679688 34.5 18.878906 34.308594 19.300781 C 33.8125 20.40625 34.226562 22.148438 35.320312 23.539062 C 35.886719 24.261719 36.089844 24.226562 37.046875 23.238281 C 37.816406 22.449219 37.894531 22.398438 37.972656 22.609375 C 38.210938 23.222656 36.832031 24.511719 35.847656 24.597656 L 35.203125 24.65625 L 34.996094 25.109375 C 34.484375 26.234375 33.265625 26.742188 32.277344 26.238281 C 31.535156 25.859375 30.800781 26.222656 30.800781 26.960938 C 30.800781 27.386719 30.894531 27.503906 32.28125 28.800781 C 33.429688 29.875 33.296875 29.796875 34.023438 29.839844 C 34.707031 29.882812 34.886719 30.011719 34.515625 30.199219 C 34.105469 30.40625 33.519531 30.824219 33.519531 30.914062 C 33.519531 30.96875 33.609375 31.273438 33.71875 31.59375 C 34.171875 32.929688 34.132812 33.539062 33.546875 34.183594 C 33.039062 34.742188 32.339844 35.726562 31.855469 36.558594 C 31.410156 37.328125 30.507812 39.179688 30.28125 39.800781 C 29.164062 42.8125 28.410156 44.039062 26.441406 46.039062 C 25.574219 46.917969 25.074219 47.328125 24.78125 47.402344 C 24.300781 47.523438 24.480469 47.230469 25.5625 46.117188 C 26.492188 45.164062 26.84375 44.726562 27.628906 43.558594 C 28.253906 42.625 28.996094 41.050781 29.511719 39.566406 C 29.902344 38.441406 31.078125 36.109375 31.476562 35.679688 C 31.578125 35.570312 31.71875 35.367188 31.785156 35.234375 C 31.855469 35.097656 32.21875 34.667969 32.59375 34.28125 L 33.28125 33.578125 L 33.28125 32.84375 C 33.28125 31.53125 32.597656 29.964844 31.535156 28.847656 C 31.011719 28.292969 30.960938 28.292969 30.960938 28.824219 C 30.960938 29.457031 30.59375 31.800781 30.40625 32.390625 C 30.3125 32.671875 30.238281 32.960938 30.238281 33.03125 C 30.238281 33.101562 30.144531 33.359375 30.03125 33.601562 C 29.917969 33.84375 29.734375 34.292969 29.621094 34.601562 C 29.28125 35.546875 28.195312 37.691406 27.828125 38.140625 C 27.769531 38.21875 27.648438 38.40625 27.566406 38.558594 C 27.484375 38.714844 27.300781 38.984375 27.160156 39.160156 C 27.019531 39.335938 26.847656 39.589844 26.777344 39.71875 C 26.710938 39.851562 26.476562 40.15625 26.257812 40.398438 C 26.042969 40.640625 25.75 41.003906 25.609375 41.199219 C 25.207031 41.757812 24.460938 42.558594 24.34375 42.558594 C 24.152344 42.558594 24.234375 42.347656 24.640625 41.800781 C 24.859375 41.503906 25.039062 41.230469 25.039062 41.195312 C 25.039062 41.160156 25.140625 41.015625 25.261719 40.871094 C 25.382812 40.726562 25.605469 40.402344 25.761719 40.148438 C 25.914062 39.894531 26.222656 39.386719 26.449219 39.023438 C 27.035156 38.078125 27.78125 36.640625 28.191406 35.671875 C 28.386719 35.214844 28.632812 34.640625 28.738281 34.398438 C 28.847656 34.15625 28.976562 33.792969 29.027344 33.589844 C 29.078125 33.386719 29.136719 33.171875 29.160156 33.109375 C 29.195312 33.019531 28.972656 33 27.902344 33 C 26.929688 33 26.480469 32.964844 26.121094 32.867188 C 25.855469 32.792969 25.371094 32.660156 25.039062 32.574219 C 24.710938 32.484375 23.683594 32.121094 22.761719 31.757812 C 21.835938 31.398438 20.9375 31.078125 20.761719 31.042969 C 20.585938 31.011719 20.261719 30.929688 20.039062 30.859375 C 19.101562 30.574219 18.734375 30.480469 18.53125 30.480469 C 18.410156 30.480469 18.089844 30.425781 17.816406 30.355469 C 17.542969 30.289062 16.871094 30.167969 16.320312 30.089844 C 15.066406 29.914062 14.773438 29.523438 15.886719 29.519531 C 16.527344 29.519531 19.832031 30.023438 20.800781 30.273438 C 21.042969 30.332031 21.402344 30.425781 21.601562 30.476562 C 22.992188 30.828125 23.316406 30.914062 23.921875 31.117188 C 24.292969 31.242188 24.691406 31.378906 24.800781 31.421875 C 26.355469 32.015625 27.976562 32.210938 28.6875 31.886719 C 29.746094 31.402344 29.882812 30.992188 29.992188 28.039062 C 30.0625 26.136719 30.105469 25.929688 30.503906 25.585938 C 30.78125 25.347656 31.667969 25.261719 32 25.441406 C 32.617188 25.769531 33.851562 25.652344 34.253906 25.222656 C 34.878906 24.558594 34.90625 24.1875 34.417969 23.199219 C 33.972656 22.308594 33.964844 22.308594 33.59375 22.953125 C 32.929688 24.101562 31.390625 25.03125 29.480469 25.441406 C 29.304688 25.476562 29.070312 25.542969 28.960938 25.582031 C 28.851562 25.625 28.546875 25.683594 28.285156 25.71875 C 28.023438 25.75 27.71875 25.8125 27.605469 25.859375 C 27.492188 25.90625 27.183594 25.972656 26.921875 26.003906 C 26.65625 26.035156 26.332031 26.097656 26.199219 26.144531 C 26.066406 26.191406 25.796875 26.277344 25.601562 26.332031 C 25.402344 26.386719 25.109375 26.5 24.949219 26.578125 C 24.109375 27.003906 23.859375 26.566406 24.679688 26.109375 C 25.425781 25.695312 28.503906 24.785156 28.714844 24.917969 C 28.757812 24.945312 28.902344 24.910156 29.035156 24.84375 C 29.164062 24.777344 29.460938 24.683594 29.695312 24.632812 C 31.683594 24.234375 33.519531 22.703125 33.519531 21.445312 C 33.519531 21.011719 33.449219 21.066406 33.097656 21.777344 C 32.625 22.734375 32.015625 23.160156 30.519531 23.589844 C 30.210938 23.675781 29.472656 23.949219 28.875 24.191406 C 27.800781 24.628906 27.441406 24.6875 27.441406 24.425781 C 27.441406 24.277344 28.777344 23.648438 30.039062 23.203125 C 30.566406 23.019531 31.054688 22.835938 31.121094 22.796875 C 31.1875 22.757812 31.410156 22.625 31.613281 22.503906 C 32.183594 22.171875 32.746094 21.222656 33.195312 19.839844 C 33.589844 18.628906 34.953125 17.15625 36.011719 16.800781 C 36.996094 16.46875 37.28125 16.464844 37.28125 16.78125 M 62.921875 26.910156 C 63.265625 27.4375 62.441406 28.421875 61.238281 28.925781 C 60.609375 29.1875 60.5625 28.9375 61.15625 28.492188 C 61.46875 28.253906 61.675781 28.007812 61.886719 27.621094 C 62.050781 27.324219 62.230469 27 62.292969 26.898438 C 62.441406 26.660156 62.761719 26.664062 62.921875 26.910156 M 71.480469 29.535156 C 71.6875 29.695312 71.804688 29.710938 73.023438 29.730469 C 74.515625 29.757812 75.023438 29.875 75.871094 30.382812 C 76.324219 30.65625 76.355469 30.660156 76.550781 30.539062 C 77.398438 30.023438 77.785156 29.832031 77.851562 29.898438 C 77.976562 30.023438 77.855469 30.183594 77.347656 30.554688 C 76.804688 30.945312 76.742188 31.316406 77.140625 31.742188 C 77.359375 31.972656 77.5 32.496094 77.566406 33.320312 C 77.785156 35.953125 75.8125 38.429688 72.980469 39.078125 C 72.015625 39.296875 67.402344 39.300781 67.101562 39.078125 C 66.441406 38.59375 67.484375 38.289062 68.761719 38.597656 C 70.410156 38.996094 71.332031 38.316406 72.8125 35.601562 C 73.433594 34.46875 73.554688 34.261719 73.890625 33.785156 C 74.082031 33.515625 74.238281 33.269531 74.238281 33.246094 C 74.238281 33.152344 75.015625 32.175781 75.535156 31.613281 C 76.179688 30.917969 76.167969 30.972656 75.738281 30.707031 C 75.035156 30.265625 73.808594 30.007812 73.019531 30.132812 C 72.664062 30.191406 72.671875 30.125 72.933594 30.875 C 73.183594 31.589844 73.222656 32.609375 73.015625 33.011719 C 72.949219 33.140625 72.867188 33.378906 72.835938 33.542969 C 72.671875 34.433594 71.140625 36 70.441406 36 C 70.335938 36 70.230469 36.03125 70.207031 36.070312 C 70.070312 36.292969 69.140625 36.253906 68.648438 36.003906 C 66.507812 34.925781 68 31.136719 70.921875 30.242188 C 71.789062 29.976562 71.757812 29.777344 70.835938 29.707031 C 69.007812 29.566406 66.960938 31.011719 66.507812 32.761719 C 66.257812 33.722656 66.179688 33.953125 66.082031 33.984375 C 65.894531 34.050781 66.140625 32.78125 66.433594 32.179688 C 66.546875 31.949219 66.640625 31.71875 66.640625 31.667969 C 66.640625 31.414062 68.207031 29.976562 68.765625 29.71875 C 69.691406 29.292969 71.054688 29.199219 71.480469 29.535156 M 61.519531 29.859375 C 61.519531 29.914062 61.261719 30.300781 60.949219 30.71875 C 60.058594 31.914062 59.578125 32.664062 58.636719 34.359375 C 57.753906 35.945312 56.878906 37.746094 56.878906 37.972656 C 56.878906 38.472656 57.925781 37.851562 59.03125 36.699219 C 60.867188 34.78125 62.828125 35.070312 61.960938 37.125 C 61.65625 37.851562 61.621094 38.039062 61.792969 37.972656 C 61.871094 37.945312 61.964844 37.921875 62.003906 37.921875 C 62.042969 37.921875 62.257812 37.757812 62.480469 37.558594 C 62.863281 37.21875 63.042969 37.164062 63.035156 37.382812 C 63.027344 37.722656 62.179688 38.238281 61.628906 38.238281 C 61.414062 38.238281 61.277344 38.3125 61.015625 38.566406 C 59.871094 39.679688 58.640625 39.5 58.640625 38.222656 C 58.636719 37.609375 58.546875 37.511719 58.28125 37.824219 C 58.160156 37.964844 58.035156 38.078125 57.996094 38.078125 C 57.957031 38.078125 57.726562 38.171875 57.480469 38.28125 C 57.238281 38.394531 56.992188 38.480469 56.9375 38.472656 C 56.707031 38.445312 56.632812 38.496094 56.476562 38.804688 C 56.289062 39.171875 56.011719 39.3125 55.609375 39.25 C 55.257812 39.195312 55.246094 39.179688 55.367188 38.851562 C 55.503906 38.472656 55.394531 38.355469 54.859375 38.296875 C 54.445312 38.253906 53.828125 38.011719 53.441406 37.738281 C 53.226562 37.589844 52.839844 37.554688 52.761719 37.679688 C 52.625 37.894531 51.667969 38.535156 51.167969 38.742188 C 49.808594 39.300781 49.75 39.3125 48.269531 39.308594 L 46.898438 39.308594 L 46.230469 38.988281 C 44.199219 38.011719 43.910156 35.984375 45.589844 34.46875 C 46.074219 34.027344 46.71875 33.683594 47.042969 33.679688 C 47.15625 33.679688 47.292969 33.636719 47.347656 33.578125 C 47.769531 33.15625 49.585938 33.589844 50.238281 34.269531 C 51.691406 35.773438 49.933594 38.21875 47.699219 37.800781 C 47.210938 37.710938 47.453125 37.5625 48.183594 37.507812 C 49.605469 37.398438 50.457031 36.617188 50.363281 35.507812 C 50.289062 34.632812 49.886719 34.339844 48.480469 34.140625 C 48.117188 34.085938 47.195312 34.273438 46.746094 34.488281 C 44.53125 35.542969 44.382812 37.890625 46.480469 38.742188 C 47.390625 39.113281 49.441406 39.125 50.203125 38.765625 C 50.347656 38.695312 50.503906 38.640625 50.554688 38.640625 C 50.695312 38.640625 51.609375 38.164062 51.921875 37.925781 C 52.074219 37.808594 52.300781 37.664062 52.421875 37.605469 C 52.734375 37.445312 52.695312 37.296875 52.199219 36.808594 C 50.394531 35.046875 51.015625 32.257812 53.21875 32.242188 C 54.191406 32.238281 55.414062 32.921875 55.640625 33.605469 C 55.789062 34.042969 55.910156 33.980469 56.929688 32.984375 C 57.460938 32.464844 58.050781 31.933594 58.246094 31.800781 C 58.441406 31.667969 58.734375 31.425781 58.898438 31.261719 C 59.066406 31.09375 59.253906 30.960938 59.316406 30.960938 C 59.382812 30.960938 59.554688 30.855469 59.695312 30.730469 C 60.054688 30.414062 61.207031 29.769531 61.421875 29.761719 C 61.476562 29.761719 61.519531 29.804688 61.519531 29.859375 M 40.449219 30.0625 C 40.902344 30.367188 40.730469 31.210938 40.078125 31.878906 C 39.402344 32.570312 39.144531 33.527344 39.402344 34.378906 C 39.464844 34.589844 39.519531 34.855469 39.519531 34.976562 C 39.519531 35.09375 39.550781 35.210938 39.589844 35.234375 C 39.628906 35.257812 39.703125 35.449219 39.753906 35.660156 C 39.875 36.160156 40.113281 36.746094 40.589844 37.71875 C 41.707031 40.015625 41.960938 41.492188 41.757812 44.5625 C 41.652344 46.160156 41.703125 46.980469 41.976562 48 C 42.039062 48.242188 42.101562 48.566406 42.117188 48.71875 C 42.128906 48.875 42.183594 49.324219 42.238281 49.71875 C 42.375 50.707031 42.296875 54.480469 42.117188 55.480469 C 42.046875 55.875 41.957031 56.378906 41.921875 56.601562 C 41.882812 56.820312 41.753906 57.359375 41.636719 57.800781 C 41.519531 58.238281 41.394531 58.726562 41.363281 58.878906 C 41.261719 59.375 40.800781 60.710938 40.707031 60.765625 C 40.671875 60.789062 40.640625 60.867188 40.640625 60.933594 C 40.640625 61.003906 40.550781 61.261719 40.445312 61.511719 C 40.335938 61.757812 40.066406 62.390625 39.839844 62.914062 C 39.613281 63.441406 39.363281 63.960938 39.285156 64.074219 C 39.203125 64.1875 39.03125 64.503906 38.898438 64.773438 C 38.765625 65.046875 38.589844 65.371094 38.503906 65.492188 C 38.417969 65.617188 38.320312 65.789062 38.289062 65.871094 C 38.261719 65.957031 38.074219 66.269531 37.878906 66.5625 C 37.679688 66.859375 37.519531 67.128906 37.519531 67.164062 C 37.519531 67.199219 37.382812 67.394531 37.214844 67.59375 C 37.050781 67.796875 36.757812 68.195312 36.566406 68.480469 C 35.878906 69.5 35.441406 70 35.226562 70 L 35.023438 70 L 35.28125 69.539062 C 35.425781 69.285156 35.640625 68.953125 35.757812 68.800781 C 36.644531 67.660156 38.445312 64.292969 39.15625 62.441406 C 39.359375 61.910156 39.613281 61.277344 39.722656 61.03125 C 39.832031 60.78125 39.921875 60.515625 39.921875 60.441406 C 39.921875 60.285156 40.109375 59.675781 40.332031 59.105469 C 40.414062 58.898438 40.480469 58.640625 40.480469 58.527344 C 40.480469 58.417969 40.546875 58.152344 40.628906 57.941406 C 40.707031 57.730469 40.816406 57.289062 40.871094 56.960938 C 40.921875 56.628906 41 56.179688 41.042969 55.960938 C 41.085938 55.738281 41.175781 55.128906 41.238281 54.601562 C 41.304688 54.070312 41.390625 53.351562 41.4375 52.996094 C 41.550781 52.109375 41.546875 47.945312 41.433594 47.875 C 41.296875 47.792969 41.199219 47.941406 41.082031 48.410156 C 40.972656 48.863281 40.84375 49.242188 40.671875 49.640625 C 40.613281 49.773438 40.453125 50.1875 40.316406 50.558594 C 40.03125 51.332031 38.792969 54.496094 38.5625 55.039062 C 37.832031 56.761719 37.757812 57.140625 38.117188 57.277344 C 38.230469 57.320312 38.320312 57.414062 38.320312 57.484375 C 38.320312 57.824219 35.90625 61.730469 35.222656 62.5 C 35.035156 62.710938 34.878906 62.917969 34.878906 62.960938 C 34.878906 63.269531 30.851562 67.363281 30.007812 67.910156 C 29.761719 68.070312 29.429688 68.300781 29.269531 68.421875 C 28.953125 68.664062 27.699219 69.441406 27.625 69.441406 C 27.597656 69.441406 27.402344 69.550781 27.183594 69.683594 C 26.394531 70.167969 24.082031 70.996094 22.519531 71.351562 C 19.902344 71.945312 15.679688 72.054688 14.28125 71.5625 C 14.105469 71.5 13.601562 71.335938 13.160156 71.195312 C 9.847656 70.140625 6.863281 67.21875 5.355469 63.558594 C 5.320312 63.472656 5.183594 63.148438 5.058594 62.839844 C 4.496094 61.492188 4.015625 59.628906 3.792969 57.964844 C 3.652344 56.941406 3.699219 56.839844 4.121094 57.214844 C 4.832031 57.839844 6.539062 58.933594 7.039062 59.082031 C 7.148438 59.113281 7.429688 59.222656 7.664062 59.328125 C 7.894531 59.433594 8.140625 59.519531 8.203125 59.519531 C 8.269531 59.519531 8.460938 59.574219 8.621094 59.644531 C 9.484375 60.003906 11.558594 60.300781 13.71875 60.375 C 15.226562 60.425781 15.265625 60.40625 14.519531 59.9375 C 11.253906 57.878906 9.765625 54.421875 9.636719 48.570312 L 9.605469 47.179688 L 9.851562 46.949219 C 10.132812 46.6875 10.199219 46.683594 11.078125 46.835938 C 13.726562 47.292969 15.625 48.082031 16.902344 49.257812 C 17.464844 49.777344 17.472656 49.765625 17.539062 48.035156 C 17.570312 47.199219 17.628906 46.394531 17.671875 46.238281 C 17.714844 46.085938 17.773438 45.761719 17.796875 45.519531 C 17.863281 44.851562 18.121094 43.640625 18.242188 43.421875 C 18.285156 43.34375 18.320312 43.1875 18.320312 43.074219 C 18.320312 42.957031 18.371094 42.75 18.433594 42.613281 C 18.496094 42.472656 18.566406 42.234375 18.59375 42.078125 C 18.710938 41.417969 19.15625 41.25 19.851562 41.605469 C 21.308594 42.351562 24.609375 45.664062 24.25 46.019531 C 24.152344 46.121094 23.941406 45.992188 23.226562 45.40625 C 22.652344 44.929688 21.957031 44.445312 21.4375 44.152344 C 21.234375 44.035156 20.914062 43.84375 20.722656 43.722656 C 20.042969 43.292969 19.832031 43.308594 19.730469 43.800781 C 19.703125 43.933594 19.644531 44.210938 19.601562 44.421875 C 19.558594 44.632812 19.46875 45.300781 19.402344 45.902344 C 19.335938 46.507812 19.242188 47.320312 19.191406 47.714844 C 19.09375 48.480469 19.148438 50.535156 19.289062 51.339844 C 19.332031 51.59375 19.386719 51.925781 19.410156 52.078125 C 19.726562 54.101562 21.613281 56.898438 23.558594 58.246094 C 23.824219 58.425781 24.164062 58.691406 24.320312 58.835938 C 24.472656 58.980469 24.78125 59.214844 25 59.363281 C 25.21875 59.507812 25.53125 59.738281 25.691406 59.875 C 25.855469 60.007812 26.152344 60.246094 26.351562 60.398438 C 26.777344 60.722656 26.890625 61.097656 26.5 60.882812 C 26.421875 60.84375 26.019531 60.660156 25.601562 60.476562 C 24.800781 60.125 23.882812 59.617188 23.480469 59.300781 C 23.347656 59.195312 22.933594 58.890625 22.558594 58.625 C 21.730469 58.035156 20.398438 56.699219 19.851562 55.90625 C 19.082031 54.792969 18.160156 52.960938 18.160156 52.546875 C 18.160156 52.460938 18.121094 52.316406 18.074219 52.230469 C 18.027344 52.140625 17.9375 51.871094 17.875 51.628906 C 17.597656 50.570312 16.695312 49.679688 15.902344 49.679688 C 15.835938 49.679688 15.621094 49.621094 15.429688 49.554688 C 15.046875 49.414062 14.441406 49.242188 13.761719 49.078125 C 13.519531 49.019531 13.121094 48.910156 12.878906 48.839844 C 11.460938 48.410156 11.558594 48.269531 11.558594 50.703125 C 11.558594 52.183594 11.589844 52.730469 11.695312 53.199219 C 11.765625 53.53125 11.847656 53.890625 11.867188 54 C 12.1875 55.5625 13.035156 57.214844 14.289062 58.71875 C 15.605469 60.292969 15.96875 60.457031 18.601562 60.640625 C 20.988281 60.804688 22.53125 61.320312 23.640625 62.320312 C 23.773438 62.441406 24.050781 62.636719 24.261719 62.757812 C 24.632812 62.972656 24.785156 63.28125 24.519531 63.28125 C 24.382812 63.28125 23.578125 62.886719 23.121094 62.601562 C 21.378906 61.507812 19.273438 61.195312 15.835938 61.523438 C 14.214844 61.679688 13.597656 61.683594 12.078125 61.554688 C 11.101562 61.472656 10.019531 61.335938 9.863281 61.273438 C 9.765625 61.238281 9.503906 61.183594 9.28125 61.152344 C 9.058594 61.121094 8.855469 61.066406 8.832031 61.03125 C 8.808594 60.992188 8.671875 60.960938 8.523438 60.960938 C 8.171875 60.960938 7.511719 60.761719 6.921875 60.480469 C 6.265625 60.167969 5.84375 60 5.710938 60 C 5.5625 60 5.570312 60.273438 5.71875 60.398438 C 5.820312 60.480469 6.027344 60.820312 6.558594 61.769531 C 7.082031 62.695312 7.484375 63.3125 8.304688 64.441406 C 8.5625 64.792969 8.828125 65.171875 8.894531 65.28125 C 9.226562 65.820312 11.492188 67.972656 12.128906 68.359375 C 12.273438 68.449219 12.582031 68.652344 12.816406 68.808594 C 13.421875 69.222656 14.554688 69.839844 14.714844 69.839844 C 14.789062 69.839844 14.882812 69.875 14.925781 69.914062 C 14.964844 69.957031 15.390625 70.117188 15.871094 70.273438 C 19.585938 71.492188 24.320312 70.753906 28.367188 68.335938 C 30.328125 67.164062 33.238281 64.3125 34.660156 62.171875 C 35.003906 61.660156 35.429688 61.042969 35.609375 60.800781 C 36.207031 59.992188 37.285156 58.289062 37.253906 58.203125 C 37.234375 58.15625 37.054688 58.074219 36.851562 58.019531 C 36.464844 57.914062 36.410156 57.820312 36.585938 57.558594 C 36.757812 57.308594 38.128906 54.394531 38.242188 54.039062 C 38.296875 53.863281 38.390625 53.648438 38.445312 53.558594 C 38.5 53.472656 38.609375 53.183594 38.683594 52.921875 C 38.757812 52.65625 38.917969 52.222656 39.039062 51.960938 C 39.164062 51.695312 39.289062 51.355469 39.320312 51.199219 C 39.351562 51.046875 39.464844 50.667969 39.574219 50.359375 C 39.683594 50.050781 39.800781 49.65625 39.835938 49.480469 C 39.867188 49.304688 39.992188 48.878906 40.109375 48.53125 C 41.398438 44.839844 41.300781 42.089844 39.726562 37.558594 C 39.480469 36.855469 39.28125 36.195312 39.28125 36.09375 C 39.28125 35.992188 39.242188 35.839844 39.199219 35.753906 C 38.648438 34.730469 38.574219 33.25 39.027344 32.414062 C 39.210938 32.074219 39.5625 31.394531 39.808594 30.898438 C 40.257812 29.992188 40.289062 29.953125 40.449219 30.0625 M 71.421875 30.578125 C 68.777344 31.863281 67.34375 35.722656 69.488281 35.78125 C 71.679688 35.839844 73.558594 32.832031 72.546875 30.878906 C 72.21875 30.25 72.136719 30.230469 71.421875 30.578125 M 59.859375 30.839844 C 59.671875 30.945312 59.40625 31.121094 59.273438 31.234375 C 59.136719 31.347656 58.992188 31.441406 58.945312 31.441406 C 58.847656 31.441406 56.398438 33.945312 56.261719 34.1875 C 56.203125 34.292969 56.183594 34.492188 56.210938 34.699219 C 56.269531 35.121094 56.171875 35.84375 56.082031 35.675781 C 56.046875 35.613281 55.992188 35.371094 55.960938 35.140625 C 55.917969 34.816406 55.871094 34.71875 55.765625 34.71875 C 55.691406 34.71875 55.476562 34.910156 55.289062 35.140625 C 55.101562 35.371094 54.609375 35.910156 54.195312 36.339844 C 53.777344 36.769531 53.441406 37.1875 53.441406 37.261719 C 53.441406 37.527344 55.351562 38.273438 55.613281 38.113281 C 55.71875 38.046875 56 36.960938 56 36.613281 C 56 36.1875 56.117188 36.054688 56.1875 36.402344 C 56.261719 36.777344 56.332031 36.703125 56.921875 35.660156 C 57.507812 34.613281 58.261719 33.441406 58.679688 32.921875 C 58.820312 32.742188 58.992188 32.492188 59.0625 32.359375 C 59.132812 32.226562 59.464844 31.816406 59.796875 31.449219 C 60.570312 30.589844 60.585938 30.441406 59.859375 30.839844 M 76.265625 31.621094 C 76.175781 31.71875 76.035156 31.90625 75.953125 32.039062 C 75.875 32.171875 75.710938 32.40625 75.59375 32.558594 C 75.476562 32.714844 75.140625 33.308594 74.847656 33.878906 C 74.335938 34.875 74.195312 35.109375 73.347656 36.382812 C 72.886719 37.074219 71.785156 38.164062 71.21875 38.492188 C 70.519531 38.898438 70.667969 38.980469 71.890625 38.871094 C 73.210938 38.753906 73.652344 38.621094 74.816406 37.992188 C 75.1875 37.789062 76.238281 36.820312 76.238281 36.679688 C 76.238281 36.621094 76.359375 36.417969 76.503906 36.226562 C 77.183594 35.332031 77.472656 33.613281 77.117188 32.59375 C 77.023438 32.332031 76.929688 32.046875 76.90625 31.960938 C 76.855469 31.792969 76.570312 31.441406 76.480469 31.441406 C 76.453125 31.441406 76.355469 31.519531 76.265625 31.621094 M 52.96875 32.882812 C 51.597656 33.375 51.328125 35.226562 52.441406 36.523438 C 52.914062 37.078125 53.074219 37.089844 53.535156 36.582031 C 53.726562 36.375 54.238281 35.832031 54.675781 35.382812 C 55.835938 34.179688 55.835938 34.1875 55.101562 33.460938 C 54.390625 32.757812 53.773438 32.589844 52.96875 32.882812 M 86.0625 32.84375 C 86.476562 33.132812 86.109375 33.796875 85.5625 33.742188 C 85.347656 33.722656 85.316406 33.6875 85.296875 33.4375 C 85.25 32.898438 85.675781 32.574219 86.0625 32.84375 M 80.675781 33.136719 C 80.75 33.242188 80.800781 33.484375 80.800781 33.726562 C 80.800781 34.023438 80.867188 34.269531 81.046875 34.625 C 81.585938 35.703125 80.839844 35.324219 80.117188 34.148438 C 79.828125 33.683594 79.753906 33.238281 79.9375 33.054688 C 80.101562 32.890625 80.535156 32.941406 80.675781 33.136719 M 34.464844 34.183594 C 34.480469 34.265625 34.355469 34.488281 34.1875 34.691406 C 33.835938 35.109375 33.863281 35.066406 33.269531 36.121094 C 32.519531 37.449219 32.320312 37.957031 31.867188 39.640625 C 31.488281 41.058594 31.449219 41.234375 31.355469 41.878906 C 31.308594 42.1875 31.234375 42.601562 31.191406 42.800781 C 31.144531 42.996094 31.058594 43.429688 31 43.761719 C 30.890625 44.359375 30.644531 45.3125 30.320312 46.417969 C 29.640625 48.710938 28.609375 50.945312 27.648438 52.199219 C 27.511719 52.375 27.375 52.554688 27.34375 52.601562 C 27.3125 52.644531 27.195312 52.785156 27.082031 52.910156 C 26.972656 53.039062 26.878906 53.183594 26.878906 53.234375 C 26.878906 53.378906 26.710938 53.511719 26.589844 53.464844 C 26.425781 53.402344 26.457031 53.054688 26.640625 52.941406 C 26.726562 52.886719 26.800781 52.792969 26.800781 52.734375 C 26.800781 52.671875 26.867188 52.527344 26.949219 52.414062 C 27.300781 51.902344 28.222656 49.832031 28.535156 48.839844 C 28.648438 48.488281 28.855469 47.839844 29 47.398438 C 29.144531 46.960938 29.289062 46.472656 29.320312 46.320312 C 29.351562 46.164062 29.441406 45.789062 29.523438 45.480469 C 29.789062 44.460938 29.984375 43.566406 30.085938 42.921875 C 30.136719 42.566406 30.230469 42.160156 30.292969 42.011719 C 30.351562 41.863281 30.398438 41.660156 30.398438 41.558594 C 30.398438 41.460938 30.449219 41.203125 30.511719 40.988281 C 30.574219 40.773438 30.707031 40.292969 30.804688 39.921875 C 31.125 38.691406 32.042969 36.601562 32.398438 36.28125 C 32.496094 36.191406 32.644531 35.984375 32.730469 35.820312 C 32.8125 35.65625 33.035156 35.347656 33.21875 35.132812 C 33.40625 34.917969 33.699219 34.574219 33.867188 34.367188 C 34.179688 33.984375 34.414062 33.914062 34.464844 34.183594 M 80.691406 35.648438 L 80.960938 35.933594 L 81.242188 35.6875 C 81.441406 35.511719 81.605469 35.441406 81.804688 35.441406 C 82.199219 35.441406 82.167969 35.632812 81.632812 36.464844 C 80.335938 38.488281 80.210938 38.722656 80.402344 38.839844 C 80.554688 38.9375 80.820312 38.78125 81.417969 38.234375 C 82.027344 37.679688 82.160156 37.597656 82.160156 37.777344 C 82.160156 38.105469 80.8125 39.199219 80.414062 39.199219 C 79.992188 39.199219 79.761719 39.0625 79.757812 38.8125 C 79.753906 38.472656 79.617188 38.433594 79.34375 38.695312 C 78.273438 39.714844 77.390625 39.300781 77.34375 37.761719 L 77.324219 37.078125 L 77.722656 36.710938 C 78.351562 36.121094 78.820312 35.75 79.039062 35.660156 C 80.03125 35.253906 80.320312 35.253906 80.691406 35.648438 M 84.917969 35.621094 C 84.886719 35.71875 84.605469 36.214844 84.285156 36.71875 C 83.28125 38.320312 83.210938 38.433594 83.15625 38.660156 C 83.027344 39.183594 84.042969 38.683594 84.828125 37.832031 C 85.371094 37.25 85.441406 37.199219 85.441406 37.410156 C 85.441406 37.566406 84.972656 38.085938 84.246094 38.746094 L 83.726562 39.21875 L 83.289062 39.179688 C 82.523438 39.117188 82.292969 38.398438 82.792969 37.605469 C 83.097656 37.121094 83.1875 36.835938 83.007812 36.90625 C 82.675781 37.035156 82.9375 36.5625 83.550781 35.945312 C 84.105469 35.382812 85.054688 35.15625 84.917969 35.621094 M 60.960938 35.851562 C 60.121094 36.183594 58.941406 38.429688 59.375 38.863281 C 59.621094 39.109375 60.25 38.796875 60.894531 38.101562 C 61.953125 36.960938 62 35.4375 60.960938 35.851562 M 79.167969 36.335938 C 78.464844 37.035156 78.105469 37.6875 78.066406 38.324219 L 78.039062 38.761719 L 78.300781 38.785156 C 78.699219 38.824219 80.078125 37.71875 80.078125 37.359375 C 80.078125 37.308594 80.191406 37.109375 80.324219 36.914062 C 80.527344 36.617188 80.566406 36.496094 80.542969 36.179688 L 80.519531 35.800781 L 80.136719 35.777344 C 79.753906 35.75 79.746094 35.753906 79.167969 36.335938 M 60.667969 45.515625 C 60.996094 45.640625 61.558594 46.296875 61.84375 46.886719 C 62.1875 47.601562 62.296875 47.601562 62.746094 46.898438 C 63.519531 45.695312 64.503906 45.136719 65.015625 45.613281 C 65.65625 46.214844 64.699219 47.441406 63.242188 47.890625 C 63.035156 47.953125 62.996094 48.015625 62.910156 48.441406 C 62.667969 49.636719 62.078125 51.191406 61.460938 52.253906 C 61.316406 52.503906 61.199219 52.726562 61.199219 52.753906 C 61.199219 52.777344 61.027344 53.058594 60.8125 53.378906 C 60.308594 54.136719 60.296875 54.160156 60.390625 54.160156 C 60.429688 54.160156 60.730469 53.886719 61.054688 53.554688 C 61.375 53.21875 61.804688 52.777344 62.003906 52.574219 C 62.601562 51.964844 63.863281 50.542969 64.078125 50.238281 C 64.183594 50.085938 64.582031 49.601562 64.960938 49.160156 C 65.339844 48.71875 65.761719 48.199219 65.898438 48 C 66.195312 47.566406 67.867188 45.917969 68.246094 45.6875 C 68.726562 45.394531 69.285156 45.578125 69.277344 46.023438 C 69.273438 46.363281 68.882812 46.671875 68.601562 46.554688 C 68.140625 46.371094 67.894531 46.457031 67.320312 47.019531 C 66.640625 47.679688 65.484375 48.980469 65.242188 49.359375 C 65.140625 49.515625 64.945312 49.765625 64.808594 49.921875 C 64.667969 50.074219 64.328125 50.46875 64.058594 50.792969 C 62.664062 52.457031 60.492188 54.667969 59.851562 55.074219 C 59.214844 55.476562 59.019531 55.289062 59.441406 54.679688 C 59.570312 54.488281 59.679688 54.3125 59.679688 54.289062 C 59.679688 54.265625 59.785156 54.070312 59.910156 53.855469 C 60.039062 53.640625 60.167969 53.382812 60.199219 53.285156 C 60.230469 53.1875 60.332031 52.9375 60.421875 52.734375 C 60.675781 52.167969 61.125 50.882812 61.199219 50.519531 C 61.265625 50.167969 61.398438 49.769531 61.5625 49.398438 C 61.621094 49.269531 61.746094 48.933594 61.84375 48.660156 C 61.941406 48.382812 62.050781 48.136719 62.089844 48.113281 C 62.265625 48.003906 62.136719 47.855469 61.824219 47.804688 C 61.378906 47.734375 61.027344 47.457031 60.730469 46.941406 C 60.109375 45.859375 59.609375 45.65625 58.582031 46.058594 C 57.386719 46.53125 56.238281 47.964844 56.238281 48.992188 C 56.238281 50.855469 58.785156 50.363281 59.585938 48.347656 C 60.09375 47.0625 60.285156 46.941406 60.222656 47.945312 C 60.121094 49.539062 58.898438 50.765625 57.46875 50.707031 L 56.789062 50.679688 L 56.480469 50.351562 C 55.339844 49.125 56.261719 46.871094 58.320312 45.859375 C 58.695312 45.671875 59.144531 45.511719 59.320312 45.496094 C 60 45.4375 60.476562 45.441406 60.667969 45.515625 M 64.074219 45.976562 C 63.523438 46.441406 63.007812 47.519531 63.335938 47.519531 C 63.738281 47.519531 64.671875 46.828125 64.800781 46.433594 C 65.015625 45.785156 64.605469 45.53125 64.074219 45.976562 M 67.355469 48.714844 C 67.582031 49.132812 67.304688 49.679688 66.867188 49.679688 C 66.378906 49.679688 66.359375 49.117188 66.839844 48.785156 C 67.222656 48.519531 67.25 48.515625 67.355469 48.714844 M 74.371094 48.761719 C 74.445312 48.949219 74.339844 49.21875 74.082031 49.511719 C 73.707031 49.929688 73.75 49.988281 74.460938 50.015625 C 74.972656 50.035156 75.082031 50.0625 75.105469 50.179688 C 75.128906 50.304688 75.050781 50.320312 74.371094 50.320312 L 73.613281 50.320312 L 73.347656 50.730469 C 73.199219 50.953125 72.972656 51.324219 72.839844 51.550781 C 72.707031 51.777344 72.453125 52.179688 72.273438 52.441406 C 71.953125 52.910156 71.53125 53.605469 71.265625 54.105469 C 71.054688 54.5 71.074219 54.800781 71.3125 54.800781 C 71.53125 54.800781 71.742188 54.636719 72.566406 53.832031 C 73.15625 53.261719 73.417969 53.128906 73.3125 53.460938 C 73.171875 53.914062 71.636719 55.121094 71.203125 55.121094 C 70.59375 55.121094 70.28125 54.453125 70.597656 53.828125 C 70.707031 53.613281 71.039062 52.796875 71.039062 52.746094 C 71.039062 52.742188 70.96875 52.753906 70.878906 52.777344 C 70.625 52.84375 70.683594 52.75 71.300781 52.089844 C 72.3125 51.011719 72.742188 50.320312 72.40625 50.320312 C 72.320312 50.320312 72.226562 50.28125 72.195312 50.230469 C 72.121094 50.117188 72.304688 50.003906 72.566406 50 C 72.808594 50 73.074219 49.738281 73.355469 49.222656 C 73.609375 48.757812 74.257812 48.464844 74.371094 48.761719 M 70.515625 49.300781 C 71.117188 50.777344 70.921875 51.8125 70.289062 50.484375 C 70.082031 50.039062 69.863281 49.988281 69.398438 50.277344 C 68.835938 50.628906 67.742188 51.128906 67.628906 51.085938 C 67.515625 51.042969 67.472656 50.71875 67.582031 50.71875 C 67.785156 50.71875 69.390625 49.667969 69.734375 49.308594 C 70.078125 48.949219 70.371094 48.945312 70.515625 49.300781 M 69.800781 51.347656 C 70.503906 51.582031 70.414062 52.300781 69.597656 52.933594 C 69.128906 53.300781 68.878906 53.425781 68.054688 53.71875 C 67.59375 53.882812 67.457031 54.125 67.636719 54.46875 C 67.820312 54.828125 67.972656 54.917969 68.207031 54.8125 C 68.316406 54.761719 68.472656 54.71875 68.550781 54.71875 C 68.628906 54.71875 69.054688 54.378906 69.5 53.960938 C 70.335938 53.171875 70.398438 53.125 70.398438 53.3125 C 70.398438 53.636719 69.175781 54.769531 68.484375 55.089844 C 67.910156 55.351562 67.054688 54.921875 66.925781 54.300781 C 66.90625 54.203125 66.847656 53.886719 66.800781 53.601562 L 66.710938 53.078125 L 67.257812 52.507812 C 68.257812 51.453125 69.042969 51.09375 69.800781 51.347656 M 66.160156 51.484375 C 66.160156 51.660156 65.957031 52.027344 65.460938 52.753906 C 64.414062 54.285156 64.214844 54.800781 64.667969 54.800781 C 64.898438 54.800781 65.035156 54.703125 65.625 54.121094 C 66.273438 53.476562 66.480469 53.332031 66.480469 53.523438 C 66.480469 53.78125 65.644531 54.644531 65.101562 54.941406 C 64.15625 55.460938 63.472656 54.71875 63.976562 53.71875 C 64.191406 53.300781 64.28125 52.878906 64.160156 52.878906 C 64.113281 52.878906 64.09375 52.839844 64.125 52.792969 C 64.164062 52.726562 64.195312 52.730469 64.238281 52.800781 C 64.324219 52.9375 64.429688 52.753906 64.363281 52.585938 C 64.257812 52.308594 65.359375 51.359375 65.785156 51.359375 C 66.070312 51.359375 66.160156 51.390625 66.160156 51.484375 M 69.246094 51.601562 C 68.648438 51.78125 67.433594 53.441406 67.902344 53.441406 C 68.136719 53.441406 69.257812 52.738281 69.464844 52.460938 C 69.78125 52.039062 69.800781 51.371094 69.492188 51.527344 C 69.484375 51.53125 69.375 51.566406 69.246094 51.601562 M 67.824219 56.175781 C 68.171875 56.523438 67.527344 57.269531 67.085938 57.023438 C 66.902344 56.917969 66.925781 56.484375 67.132812 56.265625 C 67.320312 56.066406 67.667969 56.019531 67.824219 56.175781 M 73.640625 59.71875 C 74.320312 59.972656 74.75 60.335938 75.019531 60.878906 L 75.238281 61.320312 L 75.265625 63.933594 C 75.292969 66.960938 75.28125 67.039062 74.714844 67.640625 C 74.246094 68.132812 74.222656 68.320312 74.558594 68.789062 C 75 69.394531 74.894531 69.519531 73.949219 69.519531 C 73.207031 69.519531 73.085938 69.457031 72.875 68.964844 C 72.695312 68.546875 72.585938 68.484375 72.035156 68.480469 C 71.855469 68.480469 71.640625 68.425781 71.554688 68.363281 C 71.46875 68.296875 71.351562 68.242188 71.292969 68.242188 C 70.871094 68.234375 70.273438 67.425781 70.113281 66.660156 C 69.972656 65.996094 69.957031 62.269531 70.085938 61.558594 C 70.316406 60.308594 71.039062 59.699219 72.398438 59.597656 C 72.773438 59.570312 73.089844 59.542969 73.097656 59.535156 C 73.109375 59.527344 73.351562 59.609375 73.640625 59.71875 M 53.859375 59.800781 C 55.132812 60.320312 55.359375 60.953125 55.359375 63.976562 C 55.359375 67.761719 54.917969 68.523438 52.71875 68.515625 C 51.289062 68.511719 50.496094 67.949219 50.246094 66.761719 C 50.097656 66.039062 50.171875 61.425781 50.339844 61.039062 C 50.878906 59.808594 52.484375 59.242188 53.859375 59.800781 M 69.046875 59.816406 C 69.210938 59.980469 69.199219 68.160156 69.035156 68.324219 C 68.820312 68.539062 67.496094 68.554688 67.265625 68.347656 C 67.027344 68.132812 67.039062 59.984375 67.277344 59.816406 C 67.453125 59.695312 68.925781 59.691406 69.046875 59.816406 M 78.113281 59.746094 C 78.136719 59.785156 78.160156 61.335938 78.167969 63.195312 C 78.1875 66.980469 78.171875 66.878906 78.765625 66.878906 C 79.246094 66.878906 79.238281 66.941406 79.238281 63.234375 C 79.238281 61.375 79.265625 59.828125 79.296875 59.792969 C 79.472656 59.621094 81.160156 59.738281 81.261719 59.929688 C 81.460938 60.308594 81.359375 66.765625 81.148438 67.160156 C 80.136719 69.03125 77.230469 69.066406 76.394531 67.21875 L 76.167969 66.71875 L 76.140625 63.242188 C 76.125 60.902344 76.140625 59.753906 76.199219 59.734375 C 76.375 59.671875 78.074219 59.683594 78.113281 59.746094 M 86.574219 59.816406 C 86.71875 59.945312 86.78125 61.132812 86.652344 61.339844 C 86.613281 61.40625 86.226562 61.441406 85.4375 61.457031 L 84.28125 61.480469 L 84.257812 62.222656 C 84.230469 63.105469 84.144531 63.042969 85.40625 63.0625 L 86.359375 63.078125 L 86.382812 63.78125 C 86.414062 64.703125 86.351562 64.816406 85.8125 64.796875 C 85.585938 64.792969 85.140625 64.789062 84.820312 64.792969 L 84.238281 64.800781 L 84.242188 65.621094 C 84.242188 66.726562 84.179688 66.675781 85.441406 66.648438 C 86.851562 66.621094 86.878906 66.640625 86.878906 67.558594 C 86.878906 68.125 86.855469 68.246094 86.730469 68.335938 C 86.5 68.496094 82.324219 68.472656 82.234375 68.308594 C 82.199219 68.242188 82.179688 66.554688 82.191406 64.554688 C 82.203125 62.554688 82.183594 60.6875 82.152344 60.402344 C 82.117188 60.117188 82.109375 59.863281 82.132812 59.839844 C 82.3125 59.660156 86.375 59.636719 86.574219 59.816406 M 48.238281 60 C 49.285156 60.582031 49.414062 63.199219 48.417969 63.640625 C 48.167969 63.75 48.199219 63.84375 48.585938 64.121094 C 49.683594 64.914062 49.496094 67.4375 48.28125 68.152344 L 47.800781 68.433594 L 45.96875 68.4375 L 44.140625 68.441406 L 44.121094 64.25 C 44.101562 60.261719 44.109375 60.050781 44.25 59.910156 C 44.507812 59.652344 47.742188 59.722656 48.238281 60 M 58.15625 59.914062 C 58.210938 60.015625 58.238281 61.238281 58.238281 63.34375 C 58.238281 67.015625 58.222656 66.921875 58.8125 66.867188 C 59.253906 66.824219 59.269531 66.6875 59.277344 63.015625 L 59.28125 59.753906 L 61.304688 59.800781 L 61.332031 60.359375 C 61.464844 63.042969 61.378906 66.644531 61.171875 67.144531 C 60.382812 69.035156 57.359375 69.027344 56.394531 67.136719 L 56.199219 66.761719 L 56.175781 63.328125 C 56.15625 60.570312 56.171875 59.882812 56.253906 59.828125 C 56.492188 59.675781 58.066406 59.75 58.15625 59.914062 M 66.382812 59.828125 C 66.457031 59.875 66.480469 60.097656 66.464844 60.648438 L 66.441406 61.398438 L 65.238281 61.480469 L 65.226562 64.875 C 65.214844 68.03125 65.203125 68.277344 65.070312 68.375 C 64.925781 68.484375 63.648438 68.523438 63.300781 68.429688 L 63.121094 68.382812 L 63.101562 64.929688 L 63.078125 61.480469 L 62.558594 61.441406 C 62.273438 61.417969 61.996094 61.371094 61.941406 61.335938 C 61.832031 61.265625 61.792969 59.914062 61.894531 59.8125 C 61.96875 59.734375 66.261719 59.75 66.382812 59.828125 M 72.335938 61.246094 C 72.136719 61.394531 72.082031 66.46875 72.277344 66.769531 C 72.4375 67.007812 72.816406 67.023438 73.039062 66.800781 C 73.238281 66.601562 73.292969 61.457031 73.101562 61.300781 C 72.9375 61.171875 72.484375 61.140625 72.335938 61.246094 M 52.308594 61.332031 C 52.222656 61.4375 52.199219 61.972656 52.203125 64.050781 L 52.207031 66.632812 L 52.398438 66.835938 C 52.652344 67.109375 52.832031 67.09375 53.074219 66.773438 L 53.28125 66.503906 L 53.28125 64.089844 C 53.28125 61.296875 53.261719 61.199219 52.726562 61.199219 C 52.539062 61.199219 52.378906 61.25 52.308594 61.332031 M 46.214844 61.339844 C 46.128906 61.472656 46.132812 63.042969 46.214844 63.128906 C 46.324219 63.234375 46.84375 63.140625 46.96875 62.988281 C 47.113281 62.816406 47.148438 61.761719 47.023438 61.519531 C 46.914062 61.316406 46.3125 61.179688 46.214844 61.339844 M 46.214844 64.691406 C 46.140625 64.765625 46.144531 66.863281 46.21875 66.90625 C 46.320312 66.96875 47.042969 66.828125 47.144531 66.730469 C 47.292969 66.582031 47.261719 65.304688 47.101562 64.941406 C 46.972656 64.648438 46.414062 64.492188 46.214844 64.691406 "/>
</g>
</svg>
