<svg id="svg" version="1.1" xmlns="http://www.w3.org/2000/svg" xmlns:xlink="http://www.w3.org/1999/xlink" width="400" height="319.8124267291911" viewBox="0, 0, 400,319.8124267291911"><g id="svgg"><path id="path0" d="M137.812 15.942 C 137.193 16.626,136.643 19.250,136.633 21.564 C 136.622 24.229,134.525 27.556,132.644 27.893 C 131.505 28.097,131.668 29.064,132.861 29.178 C 133.917 29.280,133.921 29.287,134.080 31.285 C 134.168 32.388,134.348 33.288,134.480 33.285 C 134.612 33.282,134.854 33.280,135.018 33.280 C 135.183 33.280,135.398 33.023,135.498 32.709 C 135.658 32.206,137.217 31.040,137.729 31.040 C 137.834 31.040,137.920 36.720,137.920 43.661 C 137.920 57.032,137.954 57.320,139.389 55.972 C 141.646 53.852,142.043 51.643,141.135 46.249 C 140.481 42.366,140.527 41.295,141.317 41.951 C 141.561 42.153,141.760 42.591,141.760 42.924 C 141.760 44.681,147.470 56.926,149.125 58.720 C 149.612 59.248,150.321 60.298,150.699 61.054 C 151.676 63.004,157.238 68.548,159.206 69.533 C 160.974 70.417,163.826 73.242,163.864 74.146 C 164.145 80.902,165.217 83.349,168.674 85.131 C 169.911 85.769,171.034 88.587,172.303 94.240 C 172.580 95.472,173.161 97.848,173.595 99.520 C 175.670 107.517,174.740 108.392,164.114 108.450 C 155.593 108.497,153.049 109.554,154.121 112.602 C 154.528 113.761,155.270 113.790,155.930 112.673 C 156.701 111.366,157.884 111.090,162.720 111.082 C 172.927 111.067,175.460 110.438,176.957 107.550 C 177.450 106.600,176.895 99.712,176.104 96.960 C 175.272 94.065,173.077 87.670,172.605 86.764 C 172.362 86.300,172.163 85.790,172.162 85.630 C 172.161 85.471,171.819 84.893,171.402 84.347 C 170.153 82.708,168.112 78.380,167.542 76.160 C 166.289 71.276,165.639 70.196,163.218 68.969 C 162.370 68.539,161.263 67.627,160.758 66.942 C 160.253 66.257,158.918 64.703,157.791 63.488 C 156.665 62.274,155.369 60.699,154.911 59.988 C 154.454 59.278,153.535 57.982,152.869 57.108 C 149.088 52.148,142.400 38.963,142.400 36.470 C 142.400 36.179,142.097 35.090,141.727 34.050 C 141.170 32.485,141.045 31.334,141.001 27.360 C 140.952 22.850,140.895 22.445,140.066 20.664 C 138.684 17.692,140.153 17.688,143.360 20.656 C 143.976 21.226,145.488 22.335,146.720 23.120 C 147.952 23.906,149.248 24.872,149.599 25.267 C 149.951 25.662,150.671 26.209,151.199 26.482 C 151.728 26.756,153.456 28.002,155.040 29.252 C 156.624 30.502,158.496 31.903,159.200 32.366 C 159.904 32.829,160.912 33.626,161.440 34.137 C 161.968 34.647,163.033 35.556,163.807 36.157 C 166.829 38.501,167.255 41.029,167.464 57.871 C 167.570 66.364,167.900 68.480,169.122 68.480 C 169.883 68.480,169.991 67.382,170.300 56.480 C 170.822 38.116,170.475 36.499,165.361 33.392 C 164.279 32.735,162.666 31.606,161.777 30.883 C 160.888 30.160,159.253 28.927,158.145 28.144 C 157.037 27.361,155.199 26.062,154.060 25.258 C 152.921 24.453,151.524 23.354,150.955 22.816 C 150.386 22.277,149.272 21.437,148.480 20.949 C 147.688 20.462,146.248 19.451,145.280 18.704 C 141.546 15.821,138.831 14.817,137.812 15.942 M151.040 28.917 C 151.040 29.157,151.336 29.730,151.698 30.190 C 153.190 32.087,159.480 44.286,161.376 48.960 C 161.983 50.456,162.857 52.499,163.319 53.499 C 163.782 54.500,164.165 55.508,164.170 55.739 C 164.198 56.855,165.440 59.689,165.946 59.793 C 167.675 60.146,164.397 47.513,160.972 40.623 C 157.999 34.644,151.040 26.441,151.040 28.917 M147.360 66.227 C 141.131 67.396,134.818 73.083,132.783 79.360 C 130.990 84.891,128.739 88.684,126.457 90.020 C 125.634 90.502,124.744 91.024,124.480 91.181 C 124.216 91.337,122.272 92.073,120.160 92.817 C 115.111 94.595,109.760 97.108,109.760 97.702 C 109.760 98.745,111.208 98.509,115.498 96.764 C 117.886 95.792,120.847 94.709,122.078 94.356 C 128.070 92.639,130.501 90.930,132.396 87.104 C 133.801 84.267,134.080 84.047,134.080 85.774 C 134.080 90.807,126.728 96.943,118.784 98.539 C 117.851 98.727,116.659 99.102,116.135 99.373 C 115.610 99.644,115.037 99.777,114.862 99.669 C 114.010 99.143,101.709 102.777,98.720 104.437 C 95.441 106.259,96.443 108.017,99.793 106.319 C 100.435 105.993,101.608 105.545,102.400 105.324 C 103.192 105.102,104.272 104.766,104.800 104.577 C 105.328 104.388,106.624 104.133,107.680 104.009 C 108.736 103.886,109.969 103.632,110.421 103.443 C 110.872 103.255,112.096 102.996,113.141 102.868 C 114.185 102.739,115.400 102.499,115.840 102.334 C 116.280 102.168,117.216 101.909,117.920 101.759 C 125.557 100.122,131.713 96.400,134.371 91.810 C 135.865 89.229,135.895 89.238,137.665 92.800 C 139.629 96.753,139.511 98.227,137.018 100.888 C 135.410 102.603,130.466 103.080,127.995 101.758 C 126.675 101.051,123.120 101.397,122.020 102.340 C 120.418 103.712,120.244 104.544,119.967 112.160 C 119.539 123.966,118.981 125.611,114.748 127.548 C 111.910 128.848,105.427 128.070,99.200 125.684 C 98.760 125.515,97.176 124.970,95.680 124.471 C 93.258 123.664,91.963 123.306,86.400 121.901 C 85.608 121.701,84.168 121.335,83.200 121.087 C 79.327 120.095,66.117 118.077,63.544 118.085 C 59.090 118.098,60.272 119.651,65.280 120.365 C 67.480 120.678,70.174 121.156,71.266 121.427 C 72.358 121.698,73.641 121.920,74.118 121.920 C 74.933 121.920,76.413 122.294,80.160 123.445 C 81.040 123.715,82.336 124.045,83.040 124.178 C 83.744 124.311,87.344 125.597,91.040 127.037 C 94.736 128.477,98.840 129.942,100.160 130.292 C 101.480 130.642,103.424 131.169,104.480 131.464 C 105.915 131.865,107.713 132.000,111.604 132.000 C 115.894 132.000,116.777 132.077,116.638 132.441 C 116.545 132.684,116.305 133.548,116.105 134.361 C 115.905 135.175,115.389 136.632,114.959 137.600 C 114.528 138.568,113.542 140.857,112.768 142.687 C 111.131 146.556,108.142 152.307,105.801 156.093 C 104.898 157.552,103.656 159.577,103.040 160.592 C 102.424 161.608,101.524 162.909,101.040 163.484 C 100.556 164.059,100.160 164.642,100.160 164.781 C 100.160 164.919,99.440 166.008,98.560 167.200 C 96.944 169.389,96.613 170.240,97.378 170.240 C 97.843 170.240,100.830 167.024,102.431 164.800 C 103.001 164.008,104.174 162.568,105.039 161.600 C 105.903 160.632,106.837 159.408,107.113 158.880 C 107.389 158.352,108.076 157.344,108.639 156.640 C 109.203 155.936,109.936 154.856,110.268 154.240 C 110.601 153.624,111.073 152.872,111.318 152.569 C 112.777 150.762,117.119 142.185,118.490 138.400 C 118.936 137.168,119.673 135.368,120.128 134.400 C 120.582 133.432,120.955 132.407,120.957 132.122 C 120.959 131.837,121.256 130.685,121.619 129.562 C 122.378 127.210,123.840 117.823,123.840 115.303 C 123.840 113.172,124.044 113.179,126.142 115.388 C 130.384 119.855,133.120 126.126,133.120 131.380 L 133.120 134.316 130.382 137.130 C 128.875 138.677,127.419 140.388,127.145 140.932 C 126.871 141.475,126.314 142.280,125.907 142.720 C 124.320 144.437,119.603 153.763,118.046 158.264 C 115.988 164.210,113.021 170.501,110.509 174.240 C 107.379 178.900,105.961 180.656,102.252 184.468 C 97.915 188.925,97.206 190.089,99.122 189.608 C 100.301 189.312,102.304 187.668,105.760 184.159 C 113.638 176.160,116.662 171.246,121.119 159.200 C 122.039 156.713,125.636 149.313,127.419 146.240 C 129.355 142.904,132.159 138.967,134.187 136.738 C 136.530 134.163,136.691 131.725,134.872 126.375 C 134.436 125.095,134.080 123.872,134.080 123.657 C 134.080 123.304,136.420 121.622,138.067 120.791 C 139.541 120.047,138.825 119.526,136.100 119.360 C 133.193 119.183,133.723 119.498,129.130 115.205 C 123.583 110.019,123.200 109.544,123.200 107.851 C 123.200 104.891,126.148 103.445,129.105 104.952 C 133.056 106.967,137.930 104.943,139.991 100.433 L 140.817 98.625 143.384 98.398 C 147.334 98.048,152.842 92.896,151.897 90.434 C 151.572 89.586,151.268 89.793,148.193 92.960 C 144.367 96.901,143.549 97.043,141.284 94.160 C 136.913 88.597,135.249 81.624,137.239 77.208 C 138.004 75.509,142.582 70.720,143.441 70.720 C 143.665 70.720,144.597 70.216,145.512 69.600 C 146.426 68.984,147.360 68.475,147.587 68.470 C 148.222 68.454,149.120 67.666,149.120 67.124 C 149.120 66.382,148.423 66.027,147.360 66.227 M249.173 107.600 C 248.929 107.996,248.198 109.293,247.548 110.483 C 246.701 112.031,245.871 113.019,244.623 113.961 C 242.249 115.753,242.440 116.753,244.956 115.702 C 248.503 114.220,251.392 111.587,251.962 109.317 C 252.452 107.366,250.177 105.965,249.173 107.600 M277.942 117.672 C 274.688 118.501,266.560 124.932,266.560 126.677 C 266.560 126.878,266.190 127.798,265.738 128.722 C 264.558 131.131,263.572 136.196,264.331 135.943 C 264.713 135.816,265.034 134.890,266.034 131.040 C 267.851 124.041,276.028 118.273,283.338 118.834 C 287.027 119.117,287.153 119.899,283.680 120.963 C 272.003 124.543,266.033 139.696,274.596 144.018 C 276.559 145.009,280.277 145.167,280.823 144.282 C 280.919 144.127,281.345 144.000,281.769 144.000 C 284.569 144.000,290.684 137.732,291.350 134.179 C 291.474 133.521,291.794 132.559,292.061 132.042 C 292.891 130.438,292.733 126.355,291.730 123.496 C 290.681 120.505,290.651 120.758,292.080 120.531 C 295.230 120.030,300.140 121.068,302.959 122.830 C 304.665 123.896,304.716 123.666,302.145 126.448 C 300.059 128.704,296.960 132.612,296.960 132.986 C 296.960 133.085,296.331 134.055,295.563 135.143 C 294.216 137.048,293.728 137.871,291.256 142.400 C 285.327 153.263,281.643 155.988,275.040 154.394 C 269.944 153.163,265.768 154.377,268.410 156.320 C 269.606 157.200,288.068 157.193,291.923 156.311 C 303.246 153.719,311.145 143.806,310.270 133.285 C 309.994 129.978,309.431 127.892,308.564 126.970 C 306.968 125.270,307.226 123.788,309.394 122.211 C 311.415 120.741,311.907 120.099,311.401 119.593 C 311.134 119.326,309.586 120.091,306.210 122.159 C 305.415 122.646,305.301 122.620,303.490 121.534 C 300.089 119.495,298.056 119.031,292.093 118.929 C 287.222 118.846,286.743 118.785,285.923 118.139 C 285.049 117.452,279.972 117.155,277.942 117.672 M244.160 119.632 C 241.669 120.891,239.785 122.044,238.789 122.918 C 238.211 123.425,237.527 123.840,237.269 123.840 C 237.010 123.840,236.259 124.382,235.600 125.044 C 234.940 125.706,233.763 126.678,232.984 127.204 C 232.205 127.730,229.838 129.857,227.722 131.932 C 223.648 135.927,223.154 136.166,222.567 134.421 C 221.649 131.693,216.766 128.948,212.877 128.974 C 204.069 129.034,201.576 140.186,208.793 147.242 C 210.777 149.181,210.944 149.778,209.680 150.416 C 209.196 150.660,208.296 151.242,207.680 151.709 C 206.435 152.652,202.780 154.560,202.217 154.560 C 202.019 154.560,201.387 154.783,200.814 155.055 C 197.762 156.503,189.568 156.459,185.920 154.974 C 177.535 151.563,178.119 142.178,186.979 137.949 C 188.788 137.086,192.469 136.346,193.920 136.555 C 199.549 137.363,201.160 138.534,201.458 142.034 C 201.835 146.461,198.418 149.590,192.729 150.028 C 189.817 150.252,188.851 150.841,190.797 151.205 C 199.733 152.882,206.769 143.100,200.960 137.076 C 198.342 134.361,191.081 132.631,189.392 134.320 C 189.172 134.540,188.625 134.721,188.176 134.723 C 183.899 134.740,178.514 140.789,178.294 145.824 C 178.071 150.918,179.730 153.454,184.918 155.949 L 187.597 157.237 193.078 157.241 C 198.999 157.247,199.237 157.200,204.675 154.962 C 206.677 154.139,210.506 151.584,211.045 150.712 C 211.354 150.211,212.909 150.352,213.769 150.958 C 215.305 152.042,217.780 153.017,219.438 153.192 C 221.574 153.418,222.013 153.896,221.467 155.405 C 220.992 156.720,221.024 156.774,222.440 157.000 C 224.049 157.256,225.164 156.683,225.913 155.213 C 226.538 153.988,226.833 153.777,227.753 153.895 C 227.970 153.922,228.946 153.579,229.923 153.132 C 230.900 152.686,231.826 152.320,231.981 152.320 C 232.136 152.320,232.648 151.863,233.118 151.304 C 234.182 150.040,234.548 150.445,234.555 152.896 C 234.570 158.005,239.484 158.713,244.068 154.267 C 245.117 153.250,245.660 152.960,246.521 152.960 C 248.716 152.960,252.107 150.898,252.148 149.539 C 252.175 148.651,251.457 148.875,249.928 150.233 C 249.032 151.029,248.171 151.680,248.015 151.680 C 247.860 151.680,247.483 151.776,247.179 151.892 C 246.478 152.161,246.628 151.400,247.846 148.504 C 251.307 140.274,243.471 139.132,236.130 146.796 C 231.710 151.409,227.520 153.887,227.520 151.887 C 227.520 150.980,231.020 143.784,234.546 137.440 C 238.320 130.651,240.227 127.649,243.795 122.880 C 246.680 119.024,246.760 118.317,244.160 119.632 M159.229 123.600 C 158.246 125.580,156.844 128.302,156.113 129.650 C 154.294 133.006,154.593 138.916,156.791 143.023 C 156.972 143.361,157.121 143.971,157.122 144.379 C 157.123 144.787,157.925 147.424,158.904 150.240 C 163.207 162.617,163.929 166.106,163.859 174.196 C 163.800 181.104,162.656 187.784,160.445 194.127 C 159.963 195.509,159.464 197.216,159.336 197.920 C 159.207 198.624,158.741 200.208,158.301 201.440 C 157.861 202.672,157.400 204.184,157.277 204.800 C 157.154 205.416,156.652 206.784,156.161 207.840 C 155.671 208.896,155.026 210.624,154.730 211.680 C 154.433 212.736,154.007 213.888,153.783 214.240 C 153.560 214.592,153.192 215.456,152.966 216.160 C 152.513 217.574,147.032 229.228,146.350 230.231 C 145.634 231.282,145.852 231.664,147.400 232.078 C 148.213 232.296,148.937 232.626,149.009 232.812 C 149.140 233.154,144.827 239.964,142.430 243.200 C 141.712 244.168,140.008 246.640,138.643 248.694 C 132.948 257.257,121.310 268.651,113.463 273.345 C 97.287 283.021,78.337 285.962,63.478 281.100 C 61.565 280.475,59.863 279.827,59.696 279.661 C 59.529 279.496,59.150 279.360,58.855 279.360 C 58.221 279.360,53.680 276.895,51.266 275.241 C 50.334 274.602,49.095 273.792,48.513 273.440 C 45.961 271.897,36.910 263.274,35.582 261.120 C 35.311 260.680,34.249 259.168,33.222 257.760 C 29.938 253.257,28.322 250.785,26.240 247.079 C 24.102 243.274,23.275 241.928,22.869 241.591 C 22.276 241.099,22.256 240.000,22.841 240.000 C 23.369 240.000,25.069 240.675,27.680 241.922 C 30.042 243.051,32.684 243.840,34.098 243.840 C 34.683 243.840,35.239 243.965,35.334 244.118 C 35.428 244.271,36.235 244.492,37.126 244.611 C 38.017 244.729,39.064 244.950,39.453 245.101 C 40.085 245.348,44.413 245.896,48.320 246.223 C 54.390 246.732,56.863 246.711,63.339 246.094 C 77.100 244.782,85.510 246.028,92.492 250.411 C 94.306 251.550,97.539 253.120,98.071 253.120 C 99.146 253.120,98.539 251.889,97.040 251.029 C 96.204 250.549,95.088 249.766,94.560 249.288 C 90.126 245.279,83.958 243.220,74.400 242.558 C 63.877 241.829,62.416 241.179,57.158 234.882 C 52.134 228.867,48.743 222.255,47.473 216.000 C 47.384 215.560,47.070 214.120,46.776 212.800 C 46.357 210.926,46.240 208.737,46.240 202.811 C 46.240 193.085,45.846 193.641,51.520 195.354 C 52.488 195.647,54.072 196.077,55.040 196.311 C 57.772 196.971,60.188 197.659,61.720 198.213 C 62.490 198.492,63.338 198.720,63.604 198.720 C 66.787 198.720,70.392 202.280,71.494 206.512 C 71.747 207.481,72.108 208.563,72.297 208.916 C 72.485 209.269,72.640 209.844,72.640 210.194 C 72.640 211.844,76.332 219.174,79.404 223.621 C 81.593 226.792,86.923 232.145,90.240 234.505 C 91.736 235.570,93.392 236.781,93.920 237.196 C 95.535 238.467,99.203 240.502,102.400 241.901 C 104.072 242.633,105.690 243.369,105.996 243.536 C 107.560 244.392,107.109 242.892,105.413 241.599 C 104.606 240.983,103.418 240.037,102.773 239.495 C 102.128 238.953,100.880 238.032,100.000 237.449 C 99.120 236.866,97.896 235.919,97.280 235.346 C 96.664 234.773,95.296 233.707,94.240 232.978 C 86.448 227.597,78.914 216.402,77.645 208.320 C 77.548 207.704,77.326 206.368,77.150 205.352 C 76.596 202.146,76.381 193.927,76.771 190.853 C 76.969 189.284,77.348 186.025,77.612 183.611 C 77.876 181.197,78.235 178.533,78.409 177.691 C 78.583 176.849,78.816 175.728,78.926 175.200 C 79.335 173.238,80.173 173.171,82.888 174.885 C 83.654 175.369,84.945 176.142,85.756 176.602 C 87.833 177.782,90.602 179.725,92.908 181.620 C 95.765 183.968,96.611 184.477,97.004 184.084 C 98.438 182.650,85.239 169.399,79.414 166.428 C 76.624 165.004,74.840 165.675,74.379 168.320 C 74.272 168.936,73.980 169.894,73.732 170.448 C 73.483 171.003,73.280 171.833,73.280 172.293 C 73.280 172.752,73.142 173.379,72.973 173.684 C 72.491 174.557,71.460 179.401,71.187 182.080 C 71.089 183.048,70.867 184.344,70.694 184.960 C 70.521 185.576,70.276 188.804,70.150 192.134 C 69.887 199.062,69.862 199.110,67.611 197.036 C 62.506 192.335,54.901 189.167,44.320 187.336 C 40.801 186.727,40.524 186.753,39.403 187.800 L 38.418 188.720 38.543 194.280 C 39.070 217.683,45.013 231.510,58.085 239.744 C 61.065 241.621,60.910 241.706,54.875 241.501 C 46.232 241.206,37.934 240.016,34.490 238.577 C 33.836 238.304,33.084 238.080,32.820 238.080 C 32.555 238.080,31.579 237.737,30.649 237.318 C 29.720 236.898,28.600 236.450,28.160 236.322 C 26.163 235.741,19.325 231.367,16.485 228.855 C 15.760 228.214,15.165 227.907,14.989 228.083 C 14.281 228.791,16.460 240.366,18.467 246.560 C 18.924 247.968,19.716 250.128,20.227 251.360 C 20.739 252.592,21.276 253.888,21.421 254.240 C 27.457 268.882,39.392 280.560,52.640 284.784 C 54.400 285.345,56.416 286.007,57.120 286.255 C 62.711 288.223,79.607 287.786,90.080 285.404 C 96.334 283.981,105.572 280.676,108.736 278.729 C 109.602 278.196,110.393 277.760,110.494 277.760 C 110.793 277.760,115.820 274.652,117.077 273.689 C 117.716 273.200,119.049 272.275,120.039 271.633 C 123.410 269.448,139.520 253.080,139.520 251.840 C 139.520 251.676,140.137 250.847,140.891 249.998 C 143.624 246.921,153.280 231.291,153.280 229.944 C 153.280 229.658,152.916 229.286,152.472 229.117 C 151.032 228.569,151.333 227.052,154.250 220.160 C 155.171 217.984,160.124 205.333,161.265 202.240 C 161.817 200.744,162.456 199.088,162.685 198.560 C 163.376 196.962,163.883 195.449,164.334 193.634 C 164.800 191.762,165.190 191.168,165.732 191.503 C 166.189 191.785,166.204 208.434,165.751 211.983 C 165.570 213.401,165.212 216.288,164.957 218.400 C 164.701 220.512,164.349 222.960,164.176 223.840 C 164.002 224.720,163.688 226.520,163.478 227.840 C 163.268 229.160,162.831 230.929,162.508 231.772 C 162.185 232.614,161.920 233.668,161.920 234.113 C 161.920 234.557,161.655 235.596,161.331 236.421 C 160.434 238.703,159.680 241.142,159.680 241.763 C 159.680 242.069,159.325 243.130,158.890 244.120 C 158.456 245.110,157.436 247.648,156.625 249.760 C 153.779 257.169,146.584 270.639,143.037 275.200 C 142.558 275.816,141.701 277.148,141.132 278.160 L 140.099 280.000 140.902 280.000 C 141.764 280.000,143.520 278.007,146.260 273.920 C 147.026 272.776,148.200 271.183,148.867 270.379 C 149.534 269.576,150.080 268.803,150.080 268.662 C 150.080 268.521,150.724 267.438,151.510 266.255 C 152.297 265.072,153.040 263.828,153.162 263.492 C 153.284 263.155,153.667 262.473,154.012 261.975 C 154.357 261.477,155.069 260.181,155.595 259.095 C 156.121 258.009,156.815 256.750,157.136 256.298 C 157.457 255.846,158.457 253.758,159.358 251.658 C 160.258 249.558,161.347 247.030,161.778 246.040 C 162.208 245.050,162.560 244.014,162.560 243.739 C 162.560 243.463,162.683 243.162,162.834 243.069 C 163.198 242.844,165.053 237.502,165.455 235.520 C 165.580 234.904,166.071 232.960,166.546 231.200 C 167.022 229.440,167.534 227.280,167.685 226.400 C 167.835 225.520,168.190 223.504,168.473 221.920 C 169.188 217.925,169.503 202.828,168.955 198.880 C 168.734 197.296,168.513 195.496,168.464 194.880 C 168.414 194.264,168.162 192.968,167.905 192.000 C 166.820 187.915,166.612 184.644,167.031 178.248 C 167.837 165.962,166.829 160.068,162.352 150.880 C 160.452 146.980,159.507 144.646,159.015 142.635 C 158.809 141.796,158.515 141.031,158.361 140.936 C 158.206 140.840,158.078 140.375,158.077 139.901 C 158.075 139.428,157.866 138.356,157.612 137.521 C 156.578 134.112,157.609 130.286,160.309 127.520 C 162.927 124.838,163.615 121.462,161.792 120.245 C 161.150 119.816,161.029 119.975,159.229 123.600 M290.182 123.520 C 294.229 131.323,286.716 143.361,277.948 143.121 C 269.375 142.887,275.113 127.457,285.687 122.312 C 288.551 120.919,288.879 121.007,290.182 123.520 M241.600 122.837 C 241.600 122.989,240.512 124.321,239.183 125.797 C 237.853 127.273,236.536 128.912,236.255 129.440 C 235.975 129.968,235.283 130.976,234.719 131.680 C 233.045 133.766,230.039 138.449,227.683 142.640 C 225.335 146.816,225.053 147.103,224.753 145.605 C 224.476 144.221,224.000 144.755,224.000 146.449 C 224.000 147.849,222.878 152.185,222.447 152.451 C 221.400 153.098,213.760 150.109,213.760 149.052 C 213.760 148.743,215.117 147.084,216.775 145.365 C 218.433 143.646,220.403 141.484,221.152 140.560 C 221.900 139.636,222.762 138.880,223.067 138.880 C 223.492 138.880,223.672 139.268,223.846 140.560 C 223.970 141.484,224.186 142.450,224.326 142.707 C 224.694 143.382,225.078 140.483,224.844 138.800 C 224.728 137.971,224.808 137.171,225.047 136.750 C 225.601 135.777,235.387 125.760,235.784 125.760 C 235.964 125.760,236.551 125.389,237.090 124.936 C 238.942 123.378,241.600 122.141,241.600 122.837 M306.780 126.480 C 307.138 126.876,307.516 127.488,307.618 127.840 C 307.721 128.192,308.100 129.330,308.462 130.370 C 309.885 134.458,308.727 141.324,306.011 144.905 C 305.433 145.666,304.960 146.481,304.960 146.715 C 304.960 147.281,300.748 151.159,299.258 151.965 C 294.607 154.481,292.844 155.011,287.566 155.483 C 282.667 155.921,282.078 155.589,284.880 153.971 C 289.416 151.350,294.710 144.619,299.388 135.520 C 300.565 133.232,301.911 130.856,302.379 130.240 C 302.848 129.624,303.495 128.688,303.818 128.160 C 304.506 127.035,305.622 125.760,305.920 125.760 C 306.035 125.760,306.422 126.084,306.780 126.480 M216.493 131.374 C 218.103 131.791,218.711 132.175,220.400 133.845 C 223.342 136.753,223.349 136.721,218.703 141.526 C 216.952 143.335,214.900 145.496,214.142 146.328 C 212.298 148.352,211.659 148.319,209.761 146.097 C 203.745 139.056,208.236 129.236,216.493 131.374 M341.768 131.743 C 340.703 133.096,340.969 134.850,342.257 134.976 C 344.432 135.188,345.901 132.536,344.249 131.378 C 343.224 130.660,342.540 130.761,341.768 131.743 M319.744 132.224 C 319.022 132.946,319.317 134.727,320.470 136.598 C 323.361 141.290,326.338 142.818,324.182 138.503 C 323.470 137.078,323.200 136.088,323.200 134.900 C 323.200 132.310,321.204 130.764,319.744 132.224 M135.471 137.471 C 134.794 138.299,133.629 139.678,132.882 140.536 C 132.136 141.394,131.251 142.632,130.917 143.288 C 130.582 143.944,129.989 144.768,129.599 145.120 C 128.172 146.408,124.506 154.767,123.214 159.680 C 122.821 161.176,122.297 163.101,122.049 163.957 C 121.802 164.813,121.600 165.839,121.600 166.238 C 121.600 166.636,121.404 167.447,121.165 168.041 C 120.926 168.634,120.554 170.272,120.339 171.680 C 119.944 174.273,119.158 177.843,118.087 181.920 C 117.764 183.152,117.399 184.664,117.276 185.280 C 117.154 185.896,116.581 187.840,116.004 189.600 C 115.426 191.360,114.589 193.952,114.143 195.360 C 112.886 199.329,109.202 207.617,107.790 209.649 C 107.465 210.117,107.200 210.694,107.200 210.932 C 107.200 211.171,106.912 211.546,106.560 211.766 C 105.831 212.221,105.699 213.607,106.361 213.861 C 106.849 214.048,107.520 213.517,107.520 212.943 C 107.520 212.740,107.884 212.156,108.329 211.647 C 108.774 211.137,109.243 210.576,109.372 210.400 C 109.500 210.224,110.048 209.504,110.588 208.800 C 113.936 204.438,117.317 197.503,120.258 188.960 C 121.419 185.588,123.442 178.058,123.997 175.040 C 124.240 173.720,124.584 171.992,124.762 171.200 C 124.940 170.408,125.234 168.752,125.415 167.520 C 125.795 164.945,125.960 164.228,127.476 158.560 C 129.276 151.829,130.085 149.795,133.074 144.480 C 135.448 140.259,135.338 140.431,136.746 138.762 C 137.427 137.957,137.924 137.055,137.863 136.739 C 137.653 135.652,136.724 135.937,135.471 137.471 M318.080 141.890 C 317.464 142.122,316.597 142.460,316.153 142.640 C 315.281 142.995,313.414 144.483,310.888 146.837 L 309.295 148.320 309.379 151.040 C 309.568 157.207,313.101 158.858,317.374 154.775 C 318.468 153.730,319.023 153.891,319.035 155.257 C 319.044 156.256,319.968 156.800,321.652 156.800 C 323.257 156.800,328.640 152.417,328.640 151.111 C 328.640 150.387,328.112 150.711,325.678 152.930 C 323.274 155.121,322.226 155.747,321.603 155.362 C 320.846 154.894,321.336 153.951,326.533 145.858 C 328.675 142.524,328.801 141.760,327.211 141.760 C 326.428 141.760,325.771 142.051,324.976 142.748 L 323.851 143.737 322.768 142.588 C 321.556 141.304,320.180 141.099,318.080 141.890 M334.203 143.776 C 331.756 146.257,330.697 148.136,332.037 147.622 C 332.743 147.350,332.391 148.484,331.166 150.428 C 329.174 153.586,330.086 156.468,333.157 156.723 L 334.901 156.868 336.978 154.985 C 339.896 152.341,341.760 150.259,341.760 149.644 C 341.760 148.804,341.484 148.995,339.320 151.331 C 336.171 154.733,332.109 156.741,332.628 154.640 C 332.850 153.741,333.118 153.281,337.143 146.880 C 340.345 141.789,340.350 141.756,338.022 141.776 C 336.171 141.793,336.149 141.804,334.203 143.776 M246.101 143.371 C 247.868 144.317,246.480 149.283,243.573 152.413 C 238.635 157.730,235.228 156.450,238.218 150.401 C 240.970 144.832,243.918 142.203,246.101 143.371 M322.177 144.717 C 322.258 145.978,322.110 146.474,321.297 147.655 C 320.760 148.436,320.320 149.242,320.320 149.445 C 320.320 150.868,314.794 155.294,313.208 155.141 L 312.160 155.040 312.269 153.293 C 312.529 149.144,317.588 142.913,320.542 143.102 L 322.080 143.200 322.177 144.717 M237.280 181.979 C 232.180 182.423,225.442 188.466,224.488 193.452 C 223.682 197.665,223.980 199.317,225.923 201.401 L 227.154 202.720 229.882 202.832 C 235.591 203.067,240.487 198.150,240.884 191.782 C 241.134 187.771,240.372 188.253,238.340 193.389 C 235.148 201.455,224.960 203.419,224.960 195.969 C 224.960 191.857,229.540 186.124,234.330 184.241 C 238.445 182.624,240.443 183.443,242.924 187.763 C 244.110 189.828,245.515 190.942,247.291 191.226 C 248.543 191.426,249.062 192.022,248.362 192.454 C 248.208 192.549,247.766 193.529,247.379 194.633 C 246.992 195.737,246.482 197.072,246.246 197.600 C 245.588 199.072,245.069 200.670,244.792 202.080 C 244.507 203.525,242.702 208.677,241.691 210.931 C 241.322 211.752,240.919 212.746,240.794 213.140 C 240.668 213.535,240.151 214.562,239.643 215.423 C 239.135 216.284,238.720 217.064,238.720 217.156 C 238.720 217.249,238.288 217.953,237.760 218.720 C 236.084 221.156,236.858 221.899,239.400 220.295 C 241.962 218.677,250.660 209.828,256.227 203.175 C 257.320 201.869,258.670 200.296,259.227 199.680 C 259.784 199.064,260.566 198.056,260.964 197.440 C 261.945 195.920,266.559 190.725,269.277 188.080 C 271.585 185.833,272.556 185.481,274.400 186.222 C 275.537 186.680,277.090 185.459,277.110 184.092 C 277.135 182.311,274.900 181.583,272.987 182.749 C 271.462 183.678,264.776 190.258,263.586 192.000 C 263.045 192.792,261.362 194.880,259.846 196.640 C 258.330 198.400,256.736 200.344,256.305 200.960 C 255.458 202.169,250.400 207.867,248.023 210.292 C 247.218 211.112,245.504 212.876,244.214 214.212 C 242.923 215.547,241.726 216.640,241.555 216.640 C 241.187 216.640,241.241 216.540,243.253 213.514 C 244.104 212.234,244.800 211.107,244.800 211.008 C 244.800 210.909,245.273 210.011,245.850 209.014 C 248.314 204.759,250.675 198.542,251.643 193.762 C 251.989 192.058,252.137 191.812,252.976 191.555 C 258.798 189.772,262.621 184.862,260.059 182.456 C 258.022 180.541,254.082 182.774,250.992 187.594 C 249.187 190.411,248.755 190.404,247.370 187.540 C 244.925 182.486,243.087 181.473,237.280 181.979 M259.384 183.823 C 259.859 185.712,258.355 187.719,255.205 189.400 C 253.289 190.422,252.695 190.326,252.977 189.040 C 253.796 185.299,258.744 181.271,259.384 183.823 M267.360 195.144 C 265.442 196.467,265.515 198.720,267.475 198.720 C 269.212 198.720,270.321 196.527,269.429 194.859 C 269.006 194.068,268.898 194.083,267.360 195.144 M295.360 195.008 C 294.548 195.297,294.016 195.815,293.426 196.892 C 292.295 198.958,291.237 199.999,290.264 200.005 C 289.221 200.011,288.492 200.462,288.778 200.924 C 288.899 201.120,289.277 201.280,289.619 201.280 C 290.968 201.280,289.245 204.040,285.200 208.361 C 282.734 210.995,282.503 211.373,283.520 211.107 C 283.872 211.015,284.160 210.962,284.160 210.990 C 284.159 211.193,282.822 214.449,282.386 215.310 C 281.118 217.810,282.373 220.480,284.816 220.480 C 286.552 220.480,292.685 215.655,293.256 213.840 C 293.673 212.515,292.618 213.042,290.269 215.332 C 286.973 218.544,286.123 219.200,285.255 219.200 C 284.300 219.200,284.213 217.994,285.055 216.425 C 286.129 214.425,287.815 211.647,289.096 209.767 C 289.813 208.716,290.832 207.112,291.360 206.203 C 291.888 205.295,292.800 203.815,293.387 202.916 L 294.455 201.280 297.491 201.280 C 300.210 201.280,300.516 201.221,300.420 200.720 C 300.331 200.254,299.897 200.144,297.837 200.067 C 295.004 199.960,294.828 199.725,296.323 198.043 C 298.476 195.623,297.984 194.073,295.360 195.008 M278.944 197.232 C 277.564 198.677,271.148 202.880,270.321 202.880 C 269.893 202.880,270.066 204.175,270.516 204.348 C 270.967 204.520,275.342 202.523,277.600 201.114 C 279.450 199.960,280.323 200.160,281.161 201.931 C 282.876 205.553,284.368 204.684,283.212 200.737 C 281.716 195.630,281.020 195.058,278.944 197.232 M275.520 205.397 C 273.104 206.348,271.301 207.634,269.024 210.030 L 266.847 212.320 267.202 214.400 C 267.398 215.544,267.625 216.808,267.707 217.208 C 268.215 219.685,271.638 221.411,273.944 220.352 C 276.704 219.084,281.600 214.542,281.600 213.248 C 281.600 212.500,281.339 212.688,277.998 215.840 C 276.225 217.512,274.517 218.880,274.203 218.880 C 273.888 218.880,273.268 219.045,272.825 219.247 C 271.886 219.675,271.280 219.313,270.540 217.881 C 269.829 216.507,270.371 215.539,272.219 214.880 C 278.458 212.657,281.122 210.304,280.895 207.219 C 280.804 205.969,280.739 205.900,279.200 205.386 C 277.195 204.716,277.250 204.716,275.520 205.397 M259.457 207.633 C 257.949 209.141,257.325 209.986,257.460 210.338 C 257.721 211.016,257.297 211.746,256.960 211.200 C 256.788 210.923,256.658 210.913,256.501 211.166 C 256.381 211.361,256.446 211.520,256.647 211.520 C 257.130 211.520,256.762 213.206,255.912 214.880 C 253.886 218.874,256.620 221.838,260.413 219.760 C 262.575 218.575,265.920 215.132,265.920 214.091 C 265.920 213.330,265.091 213.908,262.496 216.480 C 260.145 218.809,259.597 219.200,258.676 219.200 C 256.854 219.200,257.649 217.146,261.841 211.023 C 265.174 206.155,265.341 205.440,263.145 205.440 C 261.723 205.440,261.542 205.548,259.457 207.633 M278.541 206.277 C 280.797 207.143,274.664 213.760,271.607 213.760 C 269.742 213.760,274.600 207.128,276.987 206.414 C 277.500 206.261,277.944 206.123,277.974 206.108 C 278.003 206.092,278.259 206.169,278.541 206.277 M268.536 225.061 C 267.708 225.941,267.603 227.675,268.351 228.094 C 270.106 229.076,272.692 226.100,271.296 224.704 C 270.674 224.082,269.286 224.262,268.536 225.061 M289.600 238.390 C 284.156 238.791,281.272 241.234,280.349 246.229 C 279.822 249.083,279.896 263.983,280.451 266.635 C 281.094 269.708,283.492 272.931,285.166 272.970 C 285.405 272.976,285.880 273.192,286.221 273.450 C 286.563 273.709,287.427 273.922,288.141 273.924 C 290.338 273.932,290.778 274.185,291.499 275.862 C 292.344 277.827,292.834 278.080,295.793 278.080 C 299.575 278.080,299.997 277.574,298.240 275.149 C 296.889 273.284,296.991 272.528,298.856 270.556 C 301.130 268.151,301.175 267.850,301.060 255.733 L 300.960 245.280 300.084 243.520 C 298.916 241.175,293.440 237.340,292.393 238.135 C 292.353 238.166,291.096 238.280,289.600 238.390 M206.560 239.057 C 204.776 239.721,202.188 242.259,201.357 244.160 C 200.680 245.707,200.384 264.153,200.989 267.040 C 201.527 269.604,203.199 271.868,205.474 273.112 C 210.169 275.678,218.594 273.584,220.209 269.450 C 222.147 264.487,221.906 246.358,219.852 242.592 C 217.967 239.136,211.189 237.333,206.560 239.057 M269.112 239.273 C 268.162 239.939,268.117 272.532,269.065 273.390 C 269.979 274.218,275.289 274.151,276.138 273.302 C 276.801 272.639,276.851 239.923,276.190 239.262 C 275.701 238.773,269.814 238.782,269.112 239.273 M304.790 238.933 C 304.568 239.009,304.494 243.603,304.563 252.962 L 304.666 266.877 305.574 268.879 C 308.928 276.269,320.552 276.123,324.589 268.640 C 325.441 267.062,325.847 241.229,325.044 239.721 C 324.635 238.952,317.887 238.486,317.194 239.179 C 317.065 239.308,316.960 245.499,316.960 252.937 C 316.960 267.769,316.992 267.520,315.061 267.520 C 312.680 267.520,312.745 267.921,312.676 252.781 C 312.642 245.343,312.540 239.137,312.449 238.990 C 312.293 238.738,305.501 238.688,304.790 238.933 M330.505 239.016 C 328.232 239.251,328.317 239.134,328.605 241.605 C 328.737 242.746,328.807 250.222,328.759 258.218 C 328.712 266.214,328.792 272.968,328.936 273.227 C 329.304 273.884,345.996 273.991,346.923 273.342 C 347.425 272.990,347.520 272.496,347.520 270.229 C 347.520 266.565,347.401 266.490,341.761 266.600 C 336.722 266.699,336.972 266.913,336.965 262.480 L 336.960 259.200 339.280 259.173 C 340.556 259.158,342.346 259.168,343.257 259.195 C 345.410 259.259,345.655 258.820,345.532 255.118 L 345.440 252.320 341.630 252.255 C 336.580 252.169,336.918 252.417,337.028 248.885 L 337.120 245.920 341.747 245.831 C 344.914 245.770,346.448 245.621,346.611 245.358 C 347.118 244.536,346.879 239.778,346.304 239.265 C 345.734 238.757,334.688 238.583,330.505 239.016 M176.998 239.642 C 176.435 240.205,176.410 241.053,176.482 256.997 L 176.559 273.760 183.879 273.746 L 191.200 273.732 193.120 272.605 C 197.978 269.754,198.742 259.652,194.340 256.484 C 192.801 255.378,192.671 254.999,193.677 254.556 C 197.656 252.803,197.139 242.322,192.960 240.000 C 190.973 238.896,178.034 238.606,176.998 239.642 M225.023 239.315 C 224.687 239.527,224.624 242.286,224.703 253.310 L 224.800 267.040 225.572 268.550 C 229.438 276.115,241.529 276.135,244.685 268.582 C 245.521 266.582,245.865 252.179,245.333 241.440 L 245.222 239.200 241.171 239.110 L 237.120 239.021 237.102 252.070 C 237.082 266.755,237.017 267.293,235.250 267.463 C 232.898 267.688,232.960 268.068,232.960 253.369 C 232.960 244.957,232.842 240.057,232.629 239.659 C 232.273 238.995,225.976 238.710,225.023 239.315 M247.573 239.253 C 247.169 239.658,247.335 245.066,247.760 245.341 C 247.980 245.484,249.096 245.672,250.240 245.760 L 252.320 245.920 252.403 259.724 L 252.487 273.527 253.203 273.719 C 254.591 274.091,259.696 273.936,260.287 273.504 C 260.816 273.117,260.860 272.123,260.908 259.504 L 260.960 245.920 263.360 245.760 L 265.760 245.600 265.853 242.587 C 265.920 240.392,265.833 239.502,265.533 239.312 C 265.042 239.000,247.882 238.944,247.573 239.253 M292.400 245.199 C 293.179 245.821,292.955 266.405,292.160 267.200 C 291.262 268.098,289.744 268.037,289.115 267.077 C 288.330 265.879,288.544 245.575,289.348 244.988 C 289.939 244.556,291.750 244.681,292.400 245.199 M212.632 245.744 C 213.038 246.529,213.120 248.316,213.120 256.354 L 213.120 266.020 212.304 267.090 C 211.327 268.370,210.613 268.438,209.589 267.348 L 208.827 266.537 208.813 256.198 C 208.798 244.652,208.771 244.800,210.911 244.800 C 211.952 244.800,212.219 244.947,212.632 245.744 M188.088 246.080 C 188.599 247.046,188.448 251.268,187.877 251.955 C 187.375 252.561,185.294 252.942,184.861 252.509 C 184.525 252.173,184.518 245.896,184.852 245.355 C 185.243 244.724,187.657 245.264,188.088 246.080 M188.403 259.760 C 189.045 261.211,189.165 266.323,188.571 266.917 C 188.170 267.318,185.289 267.871,184.880 267.626 C 184.583 267.448,184.558 259.069,184.853 258.773 C 185.658 257.969,187.885 258.588,188.403 259.760 " stroke="none" fill="#ffe57f" fill-rule="evenodd"></path><path id="path1" d="M0.000 160.000 L 0.000 320.000 200.000 320.000 L 400.000 320.000 400.000 160.000 L 400.000 0.000 200.000 0.000 L 0.000 0.000 0.000 160.000 M141.635 16.353 C 142.672 16.898,144.312 17.957,145.280 18.704 C 146.248 19.451,147.688 20.462,148.480 20.949 C 149.272 21.437,150.386 22.277,150.955 22.816 C 151.524 23.354,152.921 24.453,154.060 25.258 C 155.199 26.062,157.037 27.361,158.145 28.144 C 159.253 28.927,160.888 30.160,161.777 30.883 C 162.666 31.606,164.279 32.735,165.361 33.392 C 170.475 36.499,170.822 38.116,170.300 56.480 C 169.991 67.382,169.883 68.480,169.122 68.480 C 167.900 68.480,167.570 66.364,167.464 57.871 C 167.255 41.029,166.829 38.501,163.807 36.157 C 163.033 35.556,161.968 34.647,161.440 34.137 C 160.912 33.626,159.904 32.829,159.200 32.366 C 158.496 31.903,156.624 30.502,155.040 29.252 C 153.456 28.002,151.728 26.756,151.199 26.482 C 150.671 26.209,149.951 25.662,149.599 25.267 C 149.248 24.872,147.952 23.906,146.720 23.120 C 145.488 22.335,143.976 21.226,143.360 20.656 C 140.153 17.688,138.684 17.692,140.066 20.664 C 140.895 22.445,140.952 22.850,141.001 27.360 C 141.045 31.334,141.170 32.485,141.727 34.050 C 142.097 35.090,142.400 36.179,142.400 36.470 C 142.400 38.963,149.088 52.148,152.869 57.108 C 153.535 57.982,154.454 59.278,154.911 59.988 C 155.369 60.699,156.665 62.274,157.791 63.488 C 158.918 64.703,160.253 66.257,160.758 66.942 C 161.263 67.627,162.370 68.539,163.218 68.969 C 165.639 70.196,166.289 71.276,167.542 76.160 C 168.112 78.380,170.153 82.708,171.402 84.347 C 171.819 84.893,172.161 85.471,172.162 85.630 C 172.163 85.790,172.362 86.300,172.605 86.764 C 173.077 87.670,175.272 94.065,176.104 96.960 C 176.895 99.712,177.450 106.600,176.957 107.550 C 175.460 110.438,172.927 111.067,162.720 111.082 C 157.884 111.090,156.701 111.366,155.930 112.673 C 155.270 113.790,154.528 113.761,154.121 112.602 C 153.049 109.554,155.593 108.497,164.114 108.450 C 174.740 108.392,175.670 107.517,173.595 99.520 C 173.161 97.848,172.580 95.472,172.303 94.240 C 171.034 88.587,169.911 85.769,168.674 85.131 C 165.217 83.349,164.145 80.902,163.864 74.146 C 163.826 73.242,160.974 70.417,159.206 69.533 C 157.238 68.548,151.676 63.004,150.699 61.054 C 150.321 60.298,149.612 59.248,149.125 58.720 C 147.470 56.926,141.760 44.681,141.760 42.924 C 141.760 42.591,141.561 42.153,141.317 41.951 C 140.527 41.295,140.481 42.366,141.135 46.249 C 142.043 51.643,141.646 53.852,139.389 55.972 C 137.954 57.320,137.920 57.032,137.920 43.661 C 137.920 36.720,137.834 31.040,137.729 31.040 C 137.217 31.040,135.658 32.206,135.498 32.709 C 135.398 33.023,135.183 33.280,135.018 33.280 C 134.854 33.280,134.612 33.282,134.480 33.285 C 134.348 33.288,134.168 32.388,134.080 31.285 C 133.921 29.287,133.917 29.280,132.861 29.178 C 131.668 29.064,131.505 28.097,132.644 27.893 C 134.525 27.556,136.622 24.229,136.633 21.564 C 136.658 15.796,137.974 14.425,141.635 16.353 M153.479 30.000 C 155.958 32.565,159.374 37.409,160.972 40.623 C 164.397 47.513,167.675 60.146,165.946 59.793 C 165.440 59.689,164.198 56.855,164.170 55.739 C 164.165 55.508,163.782 54.500,163.319 53.499 C 162.857 52.499,161.983 50.456,161.376 48.960 C 159.480 44.286,153.190 32.087,151.698 30.190 C 150.025 28.063,151.460 27.910,153.479 30.000 M149.120 67.124 C 149.120 67.666,148.222 68.454,147.587 68.470 C 147.360 68.475,146.426 68.984,145.512 69.600 C 144.597 70.216,143.665 70.720,143.441 70.720 C 142.582 70.720,138.004 75.509,137.239 77.208 C 135.249 81.624,136.913 88.597,141.284 94.160 C 143.549 97.043,144.367 96.901,148.193 92.960 C 151.268 89.793,151.572 89.586,151.897 90.434 C 152.842 92.896,147.334 98.048,143.384 98.398 L 140.817 98.625 139.991 100.433 C 137.930 104.943,133.056 106.967,129.105 104.952 C 126.148 103.445,123.200 104.891,123.200 107.851 C 123.200 109.544,123.583 110.019,129.130 115.205 C 133.723 119.498,133.193 119.183,136.100 119.360 C 138.825 119.526,139.541 120.047,138.067 120.791 C 136.420 121.622,134.080 123.304,134.080 123.657 C 134.080 123.872,134.436 125.095,134.872 126.375 C 136.691 131.725,136.530 134.163,134.187 136.738 C 132.159 138.967,129.355 142.904,127.419 146.240 C 125.636 149.313,122.039 156.713,121.119 159.200 C 116.662 171.246,113.638 176.160,105.760 184.159 C 102.304 187.668,100.301 189.312,99.122 189.608 C 97.206 190.089,97.915 188.925,102.252 184.468 C 105.961 180.656,107.379 178.900,110.509 174.240 C 113.021 170.501,115.988 164.210,118.046 158.264 C 119.603 153.763,124.320 144.437,125.907 142.720 C 126.314 142.280,126.871 141.475,127.145 140.932 C 127.419 140.388,128.875 138.677,130.382 137.130 L 133.120 134.316 133.120 131.380 C 133.120 126.126,130.384 119.855,126.142 115.388 C 124.044 113.179,123.840 113.172,123.840 115.303 C 123.840 117.823,122.378 127.210,121.619 129.562 C 121.256 130.685,120.959 131.837,120.957 132.122 C 120.955 132.407,120.582 133.432,120.128 134.400 C 119.673 135.368,118.936 137.168,118.490 138.400 C 117.119 142.185,112.777 150.762,111.318 152.569 C 111.073 152.872,110.601 153.624,110.268 154.240 C 109.936 154.856,109.203 155.936,108.639 156.640 C 108.076 157.344,107.389 158.352,107.113 158.880 C 106.837 159.408,105.903 160.632,105.039 161.600 C 104.174 162.568,103.001 164.008,102.431 164.800 C 100.830 167.024,97.843 170.240,97.378 170.240 C 96.613 170.240,96.944 169.389,98.560 167.200 C 99.440 166.008,100.160 164.919,100.160 164.781 C 100.160 164.642,100.556 164.059,101.040 163.484 C 101.524 162.909,102.424 161.608,103.040 160.592 C 103.656 159.577,104.898 157.552,105.801 156.093 C 108.142 152.307,111.131 146.556,112.768 142.687 C 113.542 140.857,114.528 138.568,114.959 137.600 C 115.389 136.632,115.905 135.175,116.105 134.361 C 116.305 133.548,116.545 132.684,116.638 132.441 C 116.777 132.077,115.894 132.000,111.604 132.000 C 107.713 132.000,105.915 131.865,104.480 131.464 C 103.424 131.169,101.480 130.642,100.160 130.292 C 98.840 129.942,94.736 128.477,91.040 127.037 C 87.344 125.597,83.744 124.311,83.040 124.178 C 82.336 124.045,81.040 123.715,80.160 123.445 C 76.413 122.294,74.933 121.920,74.118 121.920 C 73.641 121.920,72.358 121.698,71.266 121.427 C 70.174 121.156,67.480 120.678,65.280 120.365 C 60.272 119.651,59.090 118.098,63.544 118.085 C 66.117 118.077,79.327 120.095,83.200 121.087 C 84.168 121.335,85.608 121.701,86.400 121.901 C 91.963 123.306,93.258 123.664,95.680 124.471 C 97.176 124.970,98.760 125.515,99.200 125.684 C 105.427 128.070,111.910 128.848,114.748 127.548 C 118.981 125.611,119.539 123.966,119.967 112.160 C 120.244 104.544,120.418 103.712,122.020 102.340 C 123.120 101.397,126.675 101.051,127.995 101.758 C 130.466 103.080,135.410 102.603,137.018 100.888 C 139.511 98.227,139.629 96.753,137.665 92.800 C 135.895 89.238,135.865 89.229,134.371 91.810 C 131.713 96.400,125.557 100.122,117.920 101.759 C 117.216 101.909,116.280 102.168,115.840 102.334 C 115.400 102.499,114.185 102.739,113.141 102.868 C 112.096 102.996,110.872 103.255,110.421 103.443 C 109.969 103.632,108.736 103.886,107.680 104.009 C 106.624 104.133,105.328 104.388,104.800 104.577 C 104.272 104.766,103.192 105.102,102.400 105.324 C 101.608 105.545,100.435 105.993,99.793 106.319 C 96.443 108.017,95.441 106.259,98.720 104.437 C 101.709 102.777,114.010 99.143,114.862 99.669 C 115.037 99.777,115.610 99.644,116.135 99.373 C 116.659 99.102,117.851 98.727,118.784 98.539 C 126.728 96.943,134.080 90.807,134.080 85.774 C 134.080 84.047,133.801 84.267,132.396 87.104 C 130.501 90.930,128.070 92.639,122.078 94.356 C 120.847 94.709,117.886 95.792,115.498 96.764 C 111.208 98.509,109.760 98.745,109.760 97.702 C 109.760 97.108,115.111 94.595,120.160 92.817 C 122.272 92.073,124.216 91.337,124.480 91.181 C 124.744 91.024,125.634 90.502,126.457 90.020 C 128.739 88.684,130.990 84.891,132.783 79.360 C 134.356 74.508,139.805 68.621,144.040 67.199 C 147.978 65.877,149.120 65.860,149.120 67.124 M251.687 107.646 C 253.065 109.749,249.773 113.690,244.956 115.702 C 242.440 116.753,242.249 115.753,244.623 113.961 C 245.871 113.019,246.701 112.031,247.548 110.483 C 248.198 109.293,248.929 107.996,249.173 107.600 C 249.766 106.634,251.040 106.658,251.687 107.646 M285.923 118.139 C 286.743 118.785,287.222 118.846,292.093 118.929 C 298.056 119.031,300.089 119.495,303.490 121.534 C 305.301 122.620,305.415 122.646,306.210 122.159 C 309.586 120.091,311.134 119.326,311.401 119.593 C 311.907 120.099,311.415 120.741,309.394 122.211 C 307.226 123.788,306.968 125.270,308.564 126.970 C 309.431 127.892,309.994 129.978,310.270 133.285 C 311.145 143.806,303.246 153.719,291.923 156.311 C 288.068 157.193,269.606 157.200,268.410 156.320 C 265.768 154.377,269.944 153.163,275.040 154.394 C 281.643 155.988,285.327 153.263,291.256 142.400 C 293.728 137.871,294.216 137.048,295.563 135.143 C 296.331 134.055,296.960 133.085,296.960 132.986 C 296.960 132.612,300.059 128.704,302.145 126.448 C 304.716 123.666,304.665 123.896,302.959 122.830 C 300.140 121.068,295.230 120.030,292.080 120.531 C 290.651 120.758,290.681 120.505,291.730 123.496 C 292.733 126.355,292.891 130.438,292.061 132.042 C 291.794 132.559,291.474 133.521,291.350 134.179 C 290.684 137.732,284.569 144.000,281.769 144.000 C 281.345 144.000,280.919 144.127,280.823 144.282 C 280.277 145.167,276.559 145.009,274.596 144.018 C 266.033 139.696,272.003 124.543,283.680 120.963 C 287.153 119.899,287.027 119.117,283.338 118.834 C 276.028 118.273,267.851 124.041,266.034 131.040 C 265.034 134.890,264.713 135.816,264.331 135.943 C 263.572 136.196,264.558 131.131,265.738 128.722 C 266.190 127.798,266.560 126.878,266.560 126.677 C 266.560 125.659,272.833 119.901,275.062 118.873 C 278.763 117.165,284.216 116.797,285.923 118.139 M246.075 119.440 C 246.072 119.660,245.046 121.208,243.795 122.880 C 240.227 127.649,238.320 130.651,234.546 137.440 C 231.020 143.784,227.520 150.980,227.520 151.887 C 227.520 153.887,231.710 151.409,236.130 146.796 C 243.471 139.132,251.307 140.274,247.846 148.504 C 246.628 151.400,246.478 152.161,247.179 151.892 C 247.483 151.776,247.860 151.680,248.015 151.680 C 248.171 151.680,249.032 151.029,249.928 150.233 C 251.457 148.875,252.175 148.651,252.148 149.539 C 252.107 150.898,248.716 152.960,246.521 152.960 C 245.660 152.960,245.117 153.250,244.068 154.267 C 239.484 158.713,234.570 158.005,234.555 152.896 C 234.548 150.445,234.182 150.040,233.118 151.304 C 232.648 151.863,232.136 152.320,231.981 152.320 C 231.826 152.320,230.900 152.686,229.923 153.132 C 228.946 153.579,227.970 153.922,227.753 153.895 C 226.833 153.777,226.538 153.988,225.913 155.213 C 225.164 156.683,224.049 157.256,222.440 157.000 C 221.024 156.774,220.992 156.720,221.467 155.405 C 222.013 153.896,221.574 153.418,219.438 153.192 C 217.780 153.017,215.305 152.042,213.769 150.958 C 212.909 150.352,211.354 150.211,211.045 150.712 C 210.506 151.584,206.677 154.139,204.675 154.962 C 199.237 157.200,198.999 157.247,193.078 157.241 L 187.597 157.237 184.918 155.949 C 176.792 152.041,175.645 143.941,182.360 137.874 C 184.303 136.117,186.868 134.728,188.176 134.723 C 188.625 134.721,189.172 134.540,189.392 134.320 C 191.081 132.631,198.342 134.361,200.960 137.076 C 206.769 143.100,199.733 152.882,190.797 151.205 C 188.851 150.841,189.817 150.252,192.729 150.028 C 198.418 149.590,201.835 146.461,201.458 142.034 C 201.160 138.534,199.549 137.363,193.920 136.555 C 192.469 136.346,188.788 137.086,186.979 137.949 C 178.119 142.178,177.535 151.563,185.920 154.974 C 189.568 156.459,197.762 156.503,200.814 155.055 C 201.387 154.783,202.019 154.560,202.217 154.560 C 202.780 154.560,206.435 152.652,207.680 151.709 C 208.296 151.242,209.196 150.660,209.680 150.416 C 210.944 149.778,210.777 149.181,208.793 147.242 C 201.576 140.186,204.069 129.034,212.877 128.974 C 216.766 128.948,221.649 131.693,222.567 134.421 C 223.154 136.166,223.648 135.927,227.722 131.932 C 229.838 129.857,232.205 127.730,232.984 127.204 C 233.763 126.678,234.940 125.706,235.600 125.044 C 236.259 124.382,237.010 123.840,237.269 123.840 C 237.527 123.840,238.211 123.425,238.789 122.918 C 240.220 121.662,244.824 119.080,245.680 119.053 C 245.900 119.046,246.078 119.220,246.075 119.440 M161.792 120.245 C 163.615 121.462,162.927 124.838,160.309 127.520 C 157.609 130.286,156.578 134.112,157.612 137.521 C 157.866 138.356,158.075 139.428,158.077 139.901 C 158.078 140.375,158.206 140.840,158.361 140.936 C 158.515 141.031,158.809 141.796,159.015 142.635 C 159.507 144.646,160.452 146.980,162.352 150.880 C 166.829 160.068,167.837 165.962,167.031 178.248 C 166.612 184.644,166.820 187.915,167.905 192.000 C 168.162 192.968,168.414 194.264,168.464 194.880 C 168.513 195.496,168.734 197.296,168.955 198.880 C 169.503 202.828,169.188 217.925,168.473 221.920 C 168.190 223.504,167.835 225.520,167.685 226.400 C 167.534 227.280,167.022 229.440,166.546 231.200 C 166.071 232.960,165.580 234.904,165.455 235.520 C 165.053 237.502,163.198 242.844,162.834 243.069 C 162.683 243.162,162.560 243.463,162.560 243.739 C 162.560 244.014,162.208 245.050,161.778 246.040 C 161.347 247.030,160.258 249.558,159.358 251.658 C 158.457 253.758,157.457 255.846,157.136 256.298 C 156.815 256.750,156.121 258.009,155.595 259.095 C 155.069 260.181,154.357 261.477,154.012 261.975 C 153.667 262.473,153.284 263.155,153.162 263.492 C 153.040 263.828,152.297 265.072,151.510 266.255 C 150.724 267.438,150.080 268.521,150.080 268.662 C 150.080 268.803,149.534 269.576,148.867 270.379 C 148.200 271.183,147.026 272.776,146.260 273.920 C 143.520 278.007,141.764 280.000,140.902 280.000 L 140.099 280.000 141.132 278.160 C 141.701 277.148,142.558 275.816,143.037 275.200 C 146.584 270.639,153.779 257.169,156.625 249.760 C 157.436 247.648,158.456 245.110,158.890 244.120 C 159.325 243.130,159.680 242.069,159.680 241.763 C 159.680 241.142,160.434 238.703,161.331 236.421 C 161.655 235.596,161.920 234.557,161.920 234.113 C 161.920 233.668,162.185 232.614,162.508 231.772 C 162.831 230.929,163.268 229.160,163.478 227.840 C 163.688 226.520,164.002 224.720,164.176 223.840 C 164.349 222.960,164.701 220.512,164.957 218.400 C 165.212 216.288,165.570 213.401,165.751 211.983 C 166.204 208.434,166.189 191.785,165.732 191.503 C 165.190 191.168,164.800 191.762,164.334 193.634 C 163.883 195.449,163.376 196.962,162.685 198.560 C 162.456 199.088,161.817 200.744,161.265 202.240 C 160.124 205.333,155.171 217.984,154.250 220.160 C 151.333 227.052,151.032 228.569,152.472 229.117 C 152.916 229.286,153.280 229.658,153.280 229.944 C 153.280 231.291,143.624 246.921,140.891 249.998 C 140.137 250.847,139.520 251.676,139.520 251.840 C 139.520 253.080,123.410 269.448,120.039 271.633 C 119.049 272.275,117.716 273.200,117.077 273.689 C 115.820 274.652,110.793 277.760,110.494 277.760 C 110.393 277.760,109.602 278.196,108.736 278.729 C 105.572 280.676,96.334 283.981,90.080 285.404 C 79.607 287.786,62.711 288.223,57.120 286.255 C 56.416 286.007,54.400 285.345,52.640 284.784 C 39.392 280.560,27.457 268.882,21.421 254.240 C 21.276 253.888,20.739 252.592,20.227 251.360 C 17.989 245.972,16.055 238.522,15.165 231.867 C 14.617 227.770,14.796 227.361,16.485 228.855 C 19.325 231.367,26.163 235.741,28.160 236.322 C 28.600 236.450,29.720 236.898,30.649 237.318 C 31.579 237.737,32.555 238.080,32.820 238.080 C 33.084 238.080,33.836 238.304,34.490 238.577 C 37.934 240.016,46.232 241.206,54.875 241.501 C 60.910 241.706,61.065 241.621,58.085 239.744 C 45.013 231.510,39.070 217.683,38.543 194.280 L 38.418 188.720 39.403 187.800 C 40.524 186.753,40.801 186.727,44.320 187.336 C 54.901 189.167,62.506 192.335,67.611 197.036 C 69.862 199.110,69.887 199.062,70.150 192.134 C 70.276 188.804,70.521 185.576,70.694 184.960 C 70.867 184.344,71.089 183.048,71.187 182.080 C 71.460 179.401,72.491 174.557,72.973 173.684 C 73.142 173.379,73.280 172.752,73.280 172.293 C 73.280 171.833,73.483 171.003,73.732 170.448 C 73.980 169.894,74.272 168.936,74.379 168.320 C 74.840 165.675,76.624 165.004,79.414 166.428 C 85.239 169.399,98.438 182.650,97.004 184.084 C 96.611 184.477,95.765 183.968,92.908 181.620 C 90.602 179.725,87.833 177.782,85.756 176.602 C 84.945 176.142,83.654 175.369,82.888 174.885 C 80.173 173.171,79.335 173.238,78.926 175.200 C 78.816 175.728,78.583 176.849,78.409 177.691 C 78.235 178.533,77.876 181.197,77.612 183.611 C 77.348 186.025,76.969 189.284,76.771 190.853 C 76.381 193.927,76.596 202.146,77.150 205.352 C 77.326 206.368,77.548 207.704,77.645 208.320 C 78.914 216.402,86.448 227.597,94.240 232.978 C 95.296 233.707,96.664 234.773,97.280 235.346 C 97.896 235.919,99.120 236.866,100.000 237.449 C 100.880 238.032,102.128 238.953,102.773 239.495 C 103.418 240.037,104.606 240.983,105.413 241.599 C 107.109 242.892,107.560 244.392,105.996 243.536 C 105.690 243.369,104.072 242.633,102.400 241.901 C 99.203 240.502,95.535 238.467,93.920 237.196 C 93.392 236.781,91.736 235.570,90.240 234.505 C 86.923 232.145,81.593 226.792,79.404 223.621 C 76.332 219.174,72.640 211.844,72.640 210.194 C 72.640 209.844,72.485 209.269,72.297 208.916 C 72.108 208.563,71.747 207.481,71.494 206.512 C 70.392 202.280,66.787 198.720,63.604 198.720 C 63.338 198.720,62.490 198.492,61.720 198.213 C 60.188 197.659,57.772 196.971,55.040 196.311 C 54.072 196.077,52.488 195.647,51.520 195.354 C 45.846 193.641,46.240 193.085,46.240 202.811 C 46.240 208.737,46.357 210.926,46.776 212.800 C 47.070 214.120,47.384 215.560,47.473 216.000 C 48.743 222.255,52.134 228.867,57.158 234.882 C 62.416 241.179,63.877 241.829,74.400 242.558 C 83.958 243.220,90.126 245.279,94.560 249.288 C 95.088 249.766,96.204 250.549,97.040 251.029 C 98.539 251.889,99.146 253.120,98.071 253.120 C 97.539 253.120,94.306 251.550,92.492 250.411 C 85.510 246.028,77.100 244.782,63.339 246.094 C 56.863 246.711,54.390 246.732,48.320 246.223 C 44.413 245.896,40.085 245.348,39.453 245.101 C 39.064 244.950,38.017 244.729,37.126 244.611 C 36.235 244.492,35.428 244.271,35.334 244.118 C 35.239 243.965,34.683 243.840,34.098 243.840 C 32.684 243.840,30.042 243.051,27.680 241.922 C 25.069 240.675,23.369 240.000,22.841 240.000 C 22.256 240.000,22.276 241.099,22.869 241.591 C 23.275 241.928,24.102 243.274,26.240 247.079 C 28.322 250.785,29.938 253.257,33.222 257.760 C 34.249 259.168,35.311 260.680,35.582 261.120 C 36.910 263.274,45.961 271.897,48.513 273.440 C 49.095 273.792,50.334 274.602,51.266 275.241 C 53.680 276.895,58.221 279.360,58.855 279.360 C 59.150 279.360,59.529 279.496,59.696 279.661 C 59.863 279.827,61.565 280.475,63.478 281.100 C 78.337 285.962,97.287 283.021,113.463 273.345 C 121.310 268.651,132.948 257.257,138.643 248.694 C 140.008 246.640,141.712 244.168,142.430 243.200 C 144.827 239.964,149.140 233.154,149.009 232.812 C 148.937 232.626,148.213 232.296,147.400 232.078 C 145.852 231.664,145.634 231.282,146.350 230.231 C 147.032 229.228,152.513 217.574,152.966 216.160 C 153.192 215.456,153.560 214.592,153.783 214.240 C 154.007 213.888,154.433 212.736,154.730 211.680 C 155.026 210.624,155.671 208.896,156.161 207.840 C 156.652 206.784,157.154 205.416,157.277 204.800 C 157.400 204.184,157.861 202.672,158.301 201.440 C 158.741 200.208,159.207 198.624,159.336 197.920 C 159.464 197.216,159.963 195.509,160.445 194.127 C 165.590 179.364,165.203 168.358,158.904 150.240 C 157.925 147.424,157.123 144.787,157.122 144.379 C 157.121 143.971,156.972 143.361,156.791 143.023 C 154.593 138.916,154.294 133.006,156.113 129.650 C 156.844 128.302,158.246 125.580,159.229 123.600 C 161.029 119.975,161.150 119.816,161.792 120.245 M285.687 122.312 C 275.113 127.457,269.375 142.887,277.948 143.121 C 286.716 143.361,294.229 131.323,290.182 123.520 C 288.879 121.007,288.551 120.919,285.687 122.312 M239.434 123.360 C 238.683 123.774,237.628 124.484,237.090 124.936 C 236.551 125.389,235.964 125.760,235.784 125.760 C 235.387 125.760,225.601 135.777,225.047 136.750 C 224.808 137.171,224.728 137.971,224.844 138.800 C 225.078 140.483,224.694 143.382,224.326 142.707 C 224.186 142.450,223.970 141.484,223.846 140.560 C 223.672 139.268,223.492 138.880,223.067 138.880 C 222.762 138.880,221.900 139.636,221.152 140.560 C 220.403 141.484,218.433 143.646,216.775 145.365 C 215.117 147.084,213.760 148.743,213.760 149.052 C 213.760 150.109,221.400 153.098,222.447 152.451 C 222.878 152.185,224.000 147.849,224.000 146.449 C 224.000 144.755,224.476 144.221,224.753 145.605 C 225.053 147.103,225.335 146.816,227.683 142.640 C 230.039 138.449,233.045 133.766,234.719 131.680 C 235.283 130.976,235.975 129.968,236.255 129.440 C 236.536 128.912,237.853 127.273,239.183 125.797 C 242.275 122.365,242.337 121.760,239.434 123.360 M305.058 126.480 C 304.699 126.876,304.141 127.632,303.818 128.160 C 303.495 128.688,302.848 129.624,302.379 130.240 C 301.911 130.856,300.565 133.232,299.388 135.520 C 297.342 139.500,296.781 140.436,293.387 145.534 C 291.551 148.291,287.142 152.664,284.880 153.971 C 282.078 155.589,282.667 155.921,287.566 155.483 C 292.844 155.011,294.607 154.481,299.258 151.965 C 300.748 151.159,304.960 147.281,304.960 146.715 C 304.960 146.481,305.433 145.666,306.011 144.905 C 308.727 141.324,309.885 134.458,308.462 130.370 C 308.100 129.330,307.721 128.192,307.618 127.840 C 307.422 127.165,306.274 125.760,305.920 125.760 C 305.805 125.760,305.418 126.084,305.058 126.480 M211.873 131.524 C 206.393 133.495,205.319 140.899,209.761 146.097 C 211.659 148.319,212.298 148.352,214.142 146.328 C 214.900 145.496,216.952 143.335,218.703 141.526 C 223.349 136.721,223.342 136.753,220.400 133.845 C 217.558 131.035,215.096 130.365,211.873 131.524 M344.249 131.378 C 345.901 132.536,344.432 135.188,342.257 134.976 C 341.390 134.891,341.269 134.752,341.184 133.743 C 341.004 131.601,342.699 130.293,344.249 131.378 M322.702 132.551 C 322.995 132.970,323.200 133.936,323.200 134.900 C 323.200 136.088,323.470 137.078,324.182 138.503 C 326.338 142.818,323.361 141.290,320.470 136.598 C 319.317 134.727,319.022 132.946,319.744 132.224 C 320.403 131.565,322.146 131.758,322.702 132.551 M137.863 136.739 C 137.924 137.055,137.427 137.957,136.746 138.762 C 135.338 140.431,135.448 140.259,133.074 144.480 C 130.085 149.795,129.276 151.829,127.476 158.560 C 125.960 164.228,125.795 164.945,125.415 167.520 C 125.234 168.752,124.940 170.408,124.762 171.200 C 124.584 171.992,124.240 173.720,123.997 175.040 C 123.557 177.434,122.580 181.249,121.277 185.668 C 118.568 194.851,114.444 203.778,110.588 208.800 C 110.048 209.504,109.500 210.224,109.372 210.400 C 109.243 210.576,108.774 211.137,108.329 211.647 C 107.884 212.156,107.520 212.740,107.520 212.943 C 107.520 213.517,106.849 214.048,106.361 213.861 C 105.699 213.607,105.831 212.221,106.560 211.766 C 106.912 211.546,107.200 211.171,107.200 210.932 C 107.200 210.694,107.465 210.117,107.790 209.649 C 109.202 207.617,112.886 199.329,114.143 195.360 C 114.589 193.952,115.426 191.360,116.004 189.600 C 116.581 187.840,117.154 185.896,117.276 185.280 C 117.399 184.664,117.764 183.152,118.087 181.920 C 119.158 177.843,119.944 174.273,120.339 171.680 C 120.554 170.272,120.926 168.634,121.165 168.041 C 121.404 167.447,121.600 166.636,121.600 166.238 C 121.600 165.839,121.802 164.813,122.049 163.957 C 122.297 163.101,122.821 161.176,123.214 159.680 C 124.506 154.767,128.172 146.408,129.599 145.120 C 129.989 144.768,130.582 143.944,130.917 143.288 C 131.251 142.632,132.136 141.394,132.882 140.536 C 133.629 139.678,134.794 138.299,135.471 137.471 C 136.724 135.937,137.653 135.652,137.863 136.739 M322.768 142.588 L 323.851 143.737 324.976 142.748 C 325.771 142.051,326.428 141.760,327.211 141.760 C 328.801 141.760,328.675 142.524,326.533 145.858 C 321.336 153.951,320.846 154.894,321.603 155.362 C 322.226 155.747,323.274 155.121,325.678 152.930 C 328.112 150.711,328.640 150.387,328.640 151.111 C 328.640 152.417,323.257 156.800,321.652 156.800 C 319.968 156.800,319.044 156.256,319.035 155.257 C 319.023 153.891,318.468 153.730,317.374 154.775 C 313.101 158.858,309.568 157.207,309.379 151.040 L 309.295 148.320 310.888 146.837 C 313.414 144.483,315.281 142.995,316.153 142.640 C 320.126 141.023,321.283 141.014,322.768 142.588 M339.670 142.480 C 339.553 142.876,338.416 144.856,337.143 146.880 C 333.118 153.281,332.850 153.741,332.628 154.640 C 332.109 156.741,336.171 154.733,339.320 151.331 C 341.484 148.995,341.760 148.804,341.760 149.644 C 341.760 150.259,339.896 152.341,336.978 154.985 L 334.901 156.868 333.157 156.723 C 330.086 156.468,329.174 153.586,331.166 150.428 C 332.391 148.484,332.743 147.350,332.037 147.622 C 330.697 148.136,331.756 146.257,334.203 143.776 C 336.421 141.529,340.218 140.628,339.670 142.480 M243.840 143.399 C 240.490 144.731,235.767 153.719,237.504 155.456 C 238.489 156.441,241.001 155.182,243.573 152.413 C 247.814 147.847,247.994 141.747,243.840 143.399 M316.667 145.342 C 313.867 148.142,312.429 150.743,312.269 153.293 L 312.160 155.040 313.208 155.141 C 314.794 155.294,320.320 150.868,320.320 149.445 C 320.320 149.242,320.760 148.436,321.297 147.655 C 322.110 146.474,322.258 145.978,322.177 144.717 L 322.080 143.200 320.542 143.102 C 319.016 143.004,318.986 143.021,316.667 145.342 M242.670 182.061 C 243.979 182.559,246.228 185.180,247.370 187.540 C 248.755 190.404,249.187 190.411,250.992 187.594 C 254.082 182.774,258.022 180.541,260.059 182.456 C 262.621 184.862,258.798 189.772,252.976 191.555 C 252.137 191.812,251.989 192.058,251.643 193.762 C 250.675 198.542,248.314 204.759,245.850 209.014 C 245.273 210.011,244.800 210.909,244.800 211.008 C 244.800 211.107,244.104 212.234,243.253 213.514 C 241.241 216.540,241.187 216.640,241.555 216.640 C 241.726 216.640,242.923 215.547,244.214 214.212 C 245.504 212.876,247.218 211.112,248.023 210.292 C 250.400 207.867,255.458 202.169,256.305 200.960 C 256.736 200.344,258.330 198.400,259.846 196.640 C 261.362 194.880,263.045 192.792,263.586 192.000 C 264.776 190.258,271.462 183.678,272.987 182.749 C 274.900 181.583,277.135 182.311,277.110 184.092 C 277.090 185.459,275.537 186.680,274.400 186.222 C 272.556 185.481,271.585 185.833,269.277 188.080 C 266.559 190.725,261.945 195.920,260.964 197.440 C 260.566 198.056,259.784 199.064,259.227 199.680 C 258.670 200.296,257.320 201.869,256.227 203.175 C 250.660 209.828,241.962 218.677,239.400 220.295 C 236.858 221.899,236.084 221.156,237.760 218.720 C 238.288 217.953,238.720 217.249,238.720 217.156 C 238.720 217.064,239.135 216.284,239.643 215.423 C 240.151 214.562,240.668 213.535,240.794 213.140 C 240.919 212.746,241.322 211.752,241.691 210.931 C 242.702 208.677,244.507 203.525,244.792 202.080 C 245.069 200.670,245.588 199.072,246.246 197.600 C 246.482 197.072,246.992 195.737,247.379 194.633 C 247.766 193.529,248.208 192.549,248.362 192.454 C 249.062 192.022,248.543 191.426,247.291 191.226 C 245.515 190.942,244.110 189.828,242.924 187.763 C 240.443 183.443,238.445 182.624,234.330 184.241 C 229.540 186.124,224.960 191.857,224.960 195.969 C 224.960 203.419,235.148 201.455,238.340 193.389 C 240.372 188.253,241.134 187.771,240.884 191.782 C 240.487 198.150,235.591 203.067,229.882 202.832 L 227.154 202.720 225.923 201.401 C 221.356 196.504,225.046 187.492,233.280 183.432 C 234.776 182.694,236.576 182.040,237.280 181.979 C 239.994 181.743,241.909 181.772,242.670 182.061 M256.297 183.909 C 254.097 185.759,252.027 190.080,253.339 190.080 C 254.958 190.080,258.685 187.319,259.209 185.733 C 260.063 183.146,258.424 182.119,256.297 183.909 M269.429 194.859 C 270.321 196.527,269.212 198.720,267.475 198.720 C 265.515 198.720,265.442 196.467,267.360 195.144 C 268.898 194.083,269.006 194.068,269.429 194.859 M297.485 195.041 C 297.777 195.804,297.364 196.873,296.323 198.043 C 294.828 199.725,295.004 199.960,297.837 200.067 C 299.897 200.144,300.331 200.254,300.420 200.720 C 300.516 201.221,300.210 201.280,297.491 201.280 L 294.455 201.280 293.387 202.916 C 292.800 203.815,291.888 205.295,291.360 206.203 C 290.832 207.112,289.813 208.716,289.096 209.767 C 287.815 211.647,286.129 214.425,285.055 216.425 C 284.213 217.994,284.300 219.200,285.255 219.200 C 286.123 219.200,286.973 218.544,290.269 215.332 C 292.618 213.042,293.673 212.515,293.256 213.840 C 292.685 215.655,286.552 220.480,284.816 220.480 C 282.373 220.480,281.118 217.810,282.386 215.310 C 282.822 214.449,284.159 211.193,284.160 210.990 C 284.160 210.962,283.872 211.015,283.520 211.107 C 282.503 211.373,282.734 210.995,285.200 208.361 C 289.245 204.040,290.968 201.280,289.619 201.280 C 289.277 201.280,288.899 201.120,288.778 200.924 C 288.492 200.462,289.221 200.011,290.264 200.005 C 291.237 199.999,292.295 198.958,293.426 196.892 C 294.443 195.037,297.030 193.856,297.485 195.041 M282.057 197.200 C 284.464 203.108,283.680 207.252,281.161 201.931 C 280.323 200.160,279.450 199.960,277.600 201.114 C 275.342 202.523,270.967 204.520,270.516 204.348 C 270.066 204.175,269.893 202.880,270.321 202.880 C 271.148 202.880,277.564 198.677,278.944 197.232 C 280.320 195.791,281.477 195.779,282.057 197.200 M279.200 205.386 C 282.018 206.327,281.652 209.206,278.393 211.737 C 276.512 213.198,275.515 213.705,272.219 214.880 C 270.371 215.539,269.829 216.507,270.540 217.881 C 271.280 219.313,271.886 219.675,272.825 219.247 C 273.268 219.045,273.888 218.880,274.203 218.880 C 274.517 218.880,276.225 217.512,277.998 215.840 C 281.339 212.688,281.600 212.500,281.600 213.248 C 281.600 214.542,276.704 219.084,273.944 220.352 C 271.638 221.411,268.215 219.685,267.707 217.208 C 267.625 216.808,267.398 215.544,267.202 214.400 L 266.847 212.320 269.024 210.030 C 273.033 205.811,276.177 204.376,279.200 205.386 M264.640 205.936 C 264.640 206.646,263.832 208.114,261.841 211.023 C 257.649 217.146,256.854 219.200,258.676 219.200 C 259.597 219.200,260.145 218.809,262.496 216.480 C 265.091 213.908,265.920 213.330,265.920 214.091 C 265.920 215.132,262.575 218.575,260.413 219.760 C 256.620 221.838,253.886 218.874,255.912 214.880 C 256.762 213.206,257.130 211.520,256.647 211.520 C 256.446 211.520,256.381 211.361,256.501 211.166 C 256.658 210.913,256.788 210.923,256.960 211.200 C 257.297 211.746,257.721 211.016,257.460 210.338 C 257.034 209.227,261.430 205.440,263.145 205.440 C 264.282 205.440,264.640 205.559,264.640 205.936 M276.987 206.414 C 274.600 207.128,269.742 213.760,271.607 213.760 C 272.553 213.760,277.031 210.956,277.862 209.843 C 279.123 208.154,279.203 205.479,277.974 206.108 C 277.944 206.123,277.500 206.261,276.987 206.414 M271.296 224.704 C 272.692 226.100,270.106 229.076,268.351 228.094 C 267.603 227.675,267.708 225.941,268.536 225.061 C 269.286 224.262,270.674 224.082,271.296 224.704 M294.561 238.869 C 297.282 239.893,298.997 241.337,300.084 243.520 L 300.960 245.280 301.060 255.733 C 301.175 267.850,301.130 268.151,298.856 270.556 C 296.991 272.528,296.889 273.284,298.240 275.149 C 299.997 277.574,299.575 278.080,295.793 278.080 C 292.834 278.080,292.344 277.827,291.499 275.862 C 290.778 274.185,290.338 273.932,288.141 273.924 C 287.427 273.922,286.563 273.709,286.221 273.450 C 285.880 273.192,285.405 272.976,285.166 272.970 C 283.492 272.931,281.094 269.708,280.451 266.635 C 279.896 263.983,279.822 249.083,280.349 246.229 C 281.272 241.234,284.156 238.791,289.600 238.390 C 291.096 238.280,292.353 238.166,292.393 238.135 C 292.433 238.105,293.408 238.435,294.561 238.869 M215.438 239.207 C 220.531 241.276,221.440 243.807,221.440 255.914 C 221.440 271.052,219.668 274.097,210.880 274.067 C 205.161 274.048,201.985 271.791,200.989 267.040 C 200.384 264.153,200.680 245.707,201.357 244.160 C 203.513 239.229,209.935 236.970,215.438 239.207 M276.190 239.262 C 276.851 239.923,276.801 272.639,276.138 273.302 C 275.289 274.151,269.979 274.218,269.065 273.390 C 268.117 272.532,268.162 239.939,269.112 239.273 C 269.814 238.782,275.701 238.773,276.190 239.262 M312.449 238.990 C 312.540 239.137,312.642 245.343,312.676 252.781 C 312.745 267.921,312.680 267.520,315.061 267.520 C 316.992 267.520,316.960 267.769,316.960 252.937 C 316.960 245.499,317.065 239.308,317.194 239.179 C 317.887 238.486,324.635 238.952,325.044 239.721 C 325.847 241.229,325.441 267.062,324.589 268.640 C 320.552 276.123,308.928 276.269,305.574 268.879 L 304.666 266.877 304.563 252.962 C 304.494 243.603,304.568 239.009,304.790 238.933 C 305.501 238.688,312.293 238.738,312.449 238.990 M346.304 239.265 C 346.879 239.778,347.118 244.536,346.611 245.358 C 346.448 245.621,344.914 245.770,341.747 245.831 L 337.120 245.920 337.028 248.885 C 336.918 252.417,336.580 252.169,341.630 252.255 L 345.440 252.320 345.532 255.118 C 345.655 258.820,345.410 259.259,343.257 259.195 C 342.346 259.168,340.556 259.158,339.280 259.173 L 336.960 259.200 336.965 262.480 C 336.972 266.913,336.722 266.699,341.761 266.600 C 347.401 266.490,347.520 266.565,347.520 270.229 C 347.520 272.496,347.425 272.990,346.923 273.342 C 345.996 273.991,329.304 273.884,328.936 273.227 C 328.792 272.968,328.712 266.214,328.759 258.218 C 328.807 250.222,328.737 242.746,328.605 241.605 C 328.472 240.464,328.437 239.456,328.527 239.367 C 329.246 238.647,345.506 238.554,346.304 239.265 M192.960 240.000 C 197.139 242.322,197.656 252.803,193.677 254.556 C 192.671 254.999,192.801 255.378,194.340 256.484 C 198.742 259.652,197.978 269.754,193.120 272.605 L 191.200 273.732 183.879 273.746 L 176.559 273.760 176.482 256.997 C 176.410 241.053,176.435 240.205,176.998 239.642 C 178.034 238.606,190.973 238.896,192.960 240.000 M232.629 239.659 C 232.842 240.057,232.960 244.957,232.960 253.369 C 232.960 268.068,232.898 267.688,235.250 267.463 C 237.017 267.293,237.082 266.755,237.102 252.070 L 237.120 239.021 241.171 239.110 L 245.222 239.200 245.333 241.440 C 245.865 252.179,245.521 266.582,244.685 268.582 C 241.529 276.135,229.438 276.115,225.572 268.550 L 224.800 267.040 224.703 253.310 C 224.624 242.286,224.687 239.527,225.023 239.315 C 225.976 238.710,232.273 238.995,232.629 239.659 M265.533 239.312 C 265.833 239.502,265.920 240.392,265.853 242.587 L 265.760 245.600 263.360 245.760 L 260.960 245.920 260.908 259.504 C 260.860 272.123,260.816 273.117,260.287 273.504 C 259.696 273.936,254.591 274.091,253.203 273.719 L 252.487 273.527 252.403 259.724 L 252.320 245.920 250.240 245.760 C 249.096 245.672,247.980 245.484,247.760 245.341 C 247.335 245.066,247.169 239.658,247.573 239.253 C 247.882 238.944,265.042 239.000,265.533 239.312 M289.348 244.988 C 288.544 245.575,288.330 265.879,289.115 267.077 C 289.744 268.037,291.262 268.098,292.160 267.200 C 292.955 266.405,293.179 245.821,292.400 245.199 C 291.750 244.681,289.939 244.556,289.348 244.988 M209.239 245.329 C 208.886 245.755,208.803 247.890,208.813 256.198 L 208.827 266.537 209.589 267.348 C 210.613 268.438,211.327 268.370,212.304 267.090 L 213.120 266.020 213.120 256.354 C 213.120 245.181,213.047 244.800,210.911 244.800 C 210.154 244.800,209.509 245.004,209.239 245.329 M184.852 245.355 C 184.518 245.896,184.525 252.173,184.861 252.509 C 185.294 252.942,187.375 252.561,187.877 251.955 C 188.448 251.268,188.599 247.046,188.088 246.080 C 187.657 245.264,185.243 244.724,184.852 245.355 M184.853 258.773 C 184.558 259.069,184.583 267.448,184.880 267.626 C 185.289 267.871,188.170 267.318,188.571 266.917 C 189.165 266.323,189.045 261.211,188.403 259.760 C 187.885 258.588,185.658 257.969,184.853 258.773 " stroke="none" fill="#101010" fill-rule="evenodd"></path></g></svg>